SplineFontDB: 3.0
FontName: Sahel
FullName: Sahel
FamilyName: Sahel
Weight: Regular
Copyright: Copyright (c) 2016 by Saber Rastikerdar. All Rights Reserved.\nBased on DejaVu font.\nNon-Arabic(Latin) glyphs and data are imported from Open Sans font under the Apache License, Version 2.0.
Version: 1.0.0-alpha15
ItalicAngle: 0
UnderlinePosition: -500
UnderlineWidth: 100
Ascent: 1638
Descent: 410
InvalidEm: 0
LayerCount: 2
Layer: 0 1 "Back" 1
Layer: 1 1 "Fore" 0
XUID: [1021 502 1027637223 5453938]
UniqueID: 4028628
UseUniqueID: 1
FSType: 0
OS2Version: 1
OS2_WeightWidthSlopeOnly: 0
OS2_UseTypoMetrics: 1
CreationTime: 1431850356
ModificationTime: 1519060327
PfmFamily: 33
TTFWeight: 400
TTFWidth: 5
LineGap: 0
VLineGap: 0
Panose: 2 11 6 3 3 8 4 2 2 4
OS2TypoAscent: 2200
OS2TypoAOffset: 0
OS2TypoDescent: -1000
OS2TypoDOffset: 0
OS2TypoLinegap: 0
OS2WinAscent: 2200
OS2WinAOffset: 0
OS2WinDescent: 1000
OS2WinDOffset: 0
HheadAscent: 2200
HheadAOffset: 0
HheadDescent: -1000
HheadDOffset: 0
OS2SubXSize: 1331
OS2SubYSize: 1433
OS2SubXOff: 0
OS2SubYOff: 286
OS2SupXSize: 1331
OS2SupYSize: 1433
OS2SupXOff: 0
OS2SupYOff: 983
OS2StrikeYSize: 102
OS2StrikeYPos: 530
OS2CapHeight: 1638
OS2XHeight: 1082
OS2Vendor: '    '
OS2CodePages: 00000041.20080000
OS2UnicodeRanges: 8000200f.80000000.00000008.00000000
Lookup: 1 9 0 "'fina' Terminal Forms in Arabic lookup 9" { "'fina' Terminal Forms in Arabic lookup 9 subtable"  } ['fina' ('arab' <'KUR ' 'SND ' 'URD ' 'dflt' > ) ]
Lookup: 1 9 0 "'medi' Medial Forms in Arabic lookup 11" { "'medi' Medial Forms in Arabic lookup 11 subtable"  } ['medi' ('arab' <'KUR ' 'SND ' 'URD ' 'dflt' > ) ]
Lookup: 1 9 0 "'init' Initial Forms in Arabic lookup 13" { "'init' Initial Forms in Arabic lookup 13 subtable"  } ['init' ('arab' <'KUR ' 'SND ' 'URD ' 'dflt' > ) ]
Lookup: 4 1 1 "'rlig' Required Ligatures in Arabic lookup 14" { "'rlig' Required Ligatures in Arabic lookup 14 subtable"  } ['rlig' ('arab' <'KUR ' 'dflt' > ) ]

StartChar: afii57388
Encoding: 1548 1548 2
Width: 748
VWidth: 3387
GlyphClass: 2
Flags: W
LayerCount: 2
Fore
SplineSet
351.693359375 300.504882812 m 5,0,-1
 378.088867188 296.405273438 l 5,1,2
 484.275390625 278.424804688 484.275390625 278.424804688 498.997070312 184.306640625 c 132,-1,3
 513.71875 90.1884765625 513.71875 90.1884765625 464.587890625 42.1494140625 c 132,-1,4
 415.45703125 -5.8896484375 415.45703125 -5.8896484375 343.662109375 -0.232421875 c 4,5,6
 183.463867188 13.8046875 183.463867188 13.8046875 200.25 211.008789062 c 4,7,8
 221.62890625 466.758789062 221.62890625 466.758789062 493.293945312 630.275390625 c 4,9,10
 527.725585938 651.049804688 527.725585938 651.049804688 539 641.2421875 c 4,11,12
 545.021484375 636.00390625 545.021484375 636.00390625 547.141601562 633.666992188 c 4,13,14
 558.405273438 621.258789062 558.405273438 621.258789062 524.732421875 595.818359375 c 132,-1,15
 491.059570312 570.377929688 491.059570312 570.377929688 466.55859375 543.62109375 c 4,16,17
 341.04296875 406.549804688 341.04296875 406.549804688 351.693359375 300.504882812 c 5,0,-1
EndSplineSet
EndChar

StartChar: uni0615
Encoding: 1557 1557 3
Width: 0
VWidth: 3435
GlyphClass: 4
Flags: W
AnchorPoint: "Anchor-10" 702.381 1945.78 mark 0
AnchorPoint: "Anchor-9" 702.381 1945.78 mark 0
AnchorPoint: "Anchor-1" 554.381 2838.96 basemark 0
AnchorPoint: "Anchor-1" 702.381 1945.78 mark 0
LayerCount: 2
Fore
SplineSet
1069.64410407 2274.33450148 m 0,0,1
 1069.64410407 2358.37224681 1069.64410407 2358.37224681 995.67361221 2358.37224681 c 0,2,3
 874.215133003 2358.37224681 874.215133003 2358.37224681 675.7578125 2118.23925781 c 1,4,-1
 777.056640625 2118.23925781 l 1,5,-1
 777.653105311 2118.23907577 l 2,6,7
 972.449175304 2118.23907577 972.449175304 2118.23907577 1041.34375 2195.97753906 c 0,8,9
 1069.64410407 2227.16850914 1069.64410407 2227.16850914 1069.64410407 2274.33450148 c 0,0,1
727.256835938 2018.17675781 m 2,10,-1
 419.657226562 2017.98730469 l 1,11,-1
 367.364257812 2118.23925781 l 1,12,-1
 504.23828125 2118.23925781 l 1,13,-1
 504.23828125 2789.27636719 l 1,14,-1
 605.983398438 2789.27636719 l 1,15,-1
 605.983398438 2168.59765625 l 1,16,17
 817.569559779 2474.83049235 817.569559779 2474.83049235 997.74482056 2474.83049235 c 0,18,19
 1137.35934558 2474.83049235 1137.35934558 2474.83049235 1164.1484375 2341.31640625 c 0,20,21
 1170.13265857 2311.54283657 1170.13265857 2311.54283657 1170.13265857 2283.97792888 c 0,22,23
 1170.13265857 2181.55204015 1170.13265857 2181.55204015 1087.50717281 2109.62164407 c 0,24,25
 982.64547397 2018.3333029 982.64547397 2018.3333029 727.256835938 2018.17675781 c 2,10,-1
EndSplineSet
EndChar

StartChar: uni061B
Encoding: 1563 1563 4
Width: 748
VWidth: 3387
GlyphClass: 2
Flags: W
LayerCount: 2
Fore
SplineSet
214 158.837890625 m 128,-1,1
 214 215.537109375 214 215.537109375 254.5 256.037109375 c 128,-1,2
 295 296.537109375 295 296.537109375 351.700195312 296.537109375 c 128,-1,3
 408.400390625 296.537109375 408.400390625 296.537109375 449.912109375 257.049804688 c 0,4,5
 489.400390625 215.537109375 489.400390625 215.537109375 489.400390625 158.837890625 c 128,-1,6
 489.400390625 102.137695312 489.400390625 102.137695312 448.900390625 61.6376953125 c 128,-1,7
 408.400390625 21.1376953125 408.400390625 21.1376953125 351.700195312 21.1376953125 c 128,-1,8
 295 21.1376953125 295 21.1376953125 254.5 61.6376953125 c 128,-1,0
 214 102.137695312 214 102.137695312 214 158.837890625 c 128,-1,1
351.692382812 820.504882812 m 5,9,-1
 378.088867188 816.404296875 l 5,10,11
 484 798 484 798 498.99609375 704.306640625 c 4,12,13
 514 610 514 610 464.416015625 561.979492188 c 132,-1,14
 415 514 415 514 339.401367188 520.127929688 c 4,15,16
 183 533 183 533 200.25 731.008789062 c 4,17,18
 222 987 222 987 493.293945312 1150.27441406 c 4,19,20
 528 1171 528 1171 539 1161.2578125 c 4,21,22
 545 1156 545 1156 547.141601562 1153.66699219 c 4,23,24
 558 1141 558 1141 524.728515625 1115.81542969 c 4,25,26
 453 1062 453 1062 398.717773438 976.794921875 c 4,27,28
 345 892 345 892 351.692382812 820.504882812 c 5,9,-1
EndSplineSet
EndChar

StartChar: uni061F
Encoding: 1567 1567 5
Width: 914
VWidth: 3375
GlyphClass: 2
Flags: W
LayerCount: 2
Fore
SplineSet
383 158.837890625 m 128,-1,1
 383 215.537109375 383 215.537109375 423.5 256.037109375 c 128,-1,2
 464 296.537109375 464 296.537109375 520.700195312 296.537109375 c 128,-1,3
 577.400390625 296.537109375 577.400390625 296.537109375 618.912109375 257.049804688 c 0,4,5
 658.400390625 215.537109375 658.400390625 215.537109375 658.400390625 158.837890625 c 128,-1,6
 658.400390625 102.137695312 658.400390625 102.137695312 617.900390625 61.6376953125 c 128,-1,7
 577.400390625 21.1376953125 577.400390625 21.1376953125 520.700195312 21.1376953125 c 128,-1,8
 464 21.1376953125 464 21.1376953125 423.5 61.6376953125 c 128,-1,0
 383 102.137695312 383 102.137695312 383 158.837890625 c 128,-1,1
500.051757812 496.077148438 m 6,9,10
 473.529296875 496.077148438 473.529296875 496.077148438 473.529296875 523.2421875 c 6,11,-1
 473.529296875 543.87109375 l 6,12,13
 473.997764078 621.628874019 473.997764078 621.628874019 333.383789062 729.024414062 c 6,14,-1
 256.193359375 787.979492188 l 6,15,16
 102 906 102 906 100.665039062 1060.1796875 c 4,17,18
 100 1145 100 1145 131.15625 1213.17578125 c 4,19,20
 162 1281 162 1281 223.763671875 1332.72265625 c 4,21,22
 318 1411 318 1411 465.973632812 1411.18847656 c 4,23,24
 646 1411 646 1411 745.376953125 1272.05664062 c 4,25,26
 803 1191 803 1191 808.436523438 1061.76953125 c 4,27,28
 809 1047 809 1047 808.161132812 1032.50292969 c 4,29,30
 808 1018 808 1018 807.111328125 1004.93261719 c 5,31,-1
 729.184570312 1004.37109375 l 5,32,33
 688 1224 688 1224 477.547851562 1223.82714844 c 4,34,35
 353 1224 353 1224 300.168945312 1141.92773438 c 4,36,37
 276 1105 276 1105 275.96875 1051.19042969 c 4,38,39
 276 1005 276 1005 313.03515625 950.0078125 c 4,40,41
 329.58624392 924.634305315 329.58624392 924.634305315 413.865234375 846.099609375 c 6,42,-1
 455.946289062 806.88671875 l 6,43,44
 588.461914062 682.566653469 588.461914062 682.566653469 588.461914062 549.729492188 c 6,45,-1
 588.461914062 526.629882812 l 6,46,47
 588.001163437 496.077148438 588.001163437 496.077148438 560.461914062 496.077148438 c 6,48,-1
 500.051757812 496.077148438 l 6,9,10
EndSplineSet
EndChar

StartChar: uni0621
Encoding: 1569 1569 6
Width: 891
VWidth: 3739
GlyphClass: 2
Flags: W
AnchorPoint: "Anchor-7" 458.756 -88.488 basechar 0
AnchorPoint: "Anchor-10" 436.642 1114.47 basechar 0
LayerCount: 2
Fore
SplineSet
682.145507812 534.395507812 m 1,0,1
 564 575 564 575 496.331163138 575.330717311 c 0,2,3
 417 575 417 575 362.8515625 518.044921875 c 0,4,5
 316 469 316 469 315.726766185 447.734313463 c 0,6,7
 316 408 316 408 393.878838089 355.659898584 c 0,8,9
 468 306 468 306 481.899414062 303.730957031 c 0,10,11
 488 303 488 303 495 302.961079815 c 0,12,13
 525.247582328 303.000321198 525.247582328 303.000321198 627.692382812 329.021484375 c 2,14,-1
 728.904296875 354.729492188 l 2,15,16
 782 368 782 368 785.163574219 361.052246094 c 0,17,18
 788.349678761 355.377151637 788.349678761 355.377151637 783.5703125 316.017578125 c 2,19,-1
 767.729492188 185.563476562 l 1,20,21
 457 142 457 142 105.375976562 3.3291015625 c 1,22,-1
 106 176 l 1,23,-1
 274.09765625 235.237304688 l 1,24,25
 175 321 175 321 174.780257715 439.093171516 c 0,26,27
 175 491 175 491 194.079101562 549.317382812 c 0,28,29
 239 687 239 687 372.892578125 735.233398438 c 0,30,31
 428 755 428 755 484.190737351 754.845229559 c 0,32,33
 624 755 624 755 721.829101562 661.774414062 c 1,34,35
 717 639 717 639 682.145507812 534.395507812 c 1,0,1
EndSplineSet
EndChar

StartChar: uni0627
Encoding: 1575 1575 12
Width: 454
VWidth: 3705
GlyphClass: 2
Flags: W
AnchorPoint: "Anchor-10" 193.583 1563.65 basechar 0
AnchorPoint: "Anchor-7" 205.098 -224.043 basechar 0
LayerCount: 2
Fore
SplineSet
167.284179688 -13.3427734375 m 1,0,1
 158 1023 158 1023 110.795898438 1328.72265625 c 5,2,-1
 250 1416 l 6,3,4
 275 1432 275 1432 278 1388 c 4,5,6
 300 1033 300 1033 300.541015625 721.708984375 c 0,7,8
 300 86 300 86 291.44140625 66.7333984375 c 0,9,10
 255 -12 255 -12 167.284179688 -13.3427734375 c 1,0,1
EndSplineSet
Substitution2: "'fina' Terminal Forms in Arabic lookup 9 subtable" uniFE8E
EndChar

StartChar: uni062D
Encoding: 1581 1581 18
Width: 1296
VWidth: 3739
GlyphClass: 2
Flags: W
AnchorPoint: "Anchor-7" 562.136 -813.44 basechar 0
AnchorPoint: "Anchor-10" 590.972 1253.02 basechar 0
LayerCount: 2
Fore
SplineSet
123.260742188 -164.354492188 m 4,0,1
 123 233 123 233 469.01171875 446.65234375 c 4,2,3
 594 524 594 524 775.43359375 559.942382812 c 5,4,5
 658 582 658 582 589.021484375 597.971679688 c 4,6,7
 455 628 455 628 389.571289062 628.428710938 c 4,8,9
 283 629 283 629 184.560546875 509.346679688 c 5,10,11
 99 549 l 5,12,13
 169 718 169 718 255.556640625 778.467773438 c 4,14,15
 307 815 307 815 383.6796875 814.798828125 c 4,16,17
 454 815 454 815 529.143554688 793.106445312 c 4,18,19
 832 702 832 702 979.66796875 667.557617188 c 4,20,21
 1063 648 1063 648 1203.37109375 636.41796875 c 28,22,23
 1221.20507812 634.983398438 1221.20507812 634.983398438 1213.17089844 616 c 6,24,-1
 1144.33007812 453.348632812 l 5,25,26
 829 444 829 444 590.952148438 321.383789062 c 4,27,28
 270 156 270 156 269.989257812 -133.680664062 c 4,29,30
 270 -485 270 -485 785.594726562 -485.2265625 c 4,31,32
 966 -485 966 -485 1174.27148438 -456.337890625 c 4,33,34
 1184 -455 1184 -455 1182.87304688 -465.625 c 4,35,36
 1179 -506 1179 -506 1169 -536 c 4,37,38
 1140 -625 1140 -625 1042 -640.119140625 c 4,39,40
 941 -655 941 -655 808.768554688 -654.81640625 c 4,41,42
 632 -655 632 -655 480.94140625 -615.65625 c 4,43,44
 353 -582 353 -582 279.965820312 -517.939453125 c 4,45,46
 123 -381 123 -381 123.260742188 -164.354492188 c 4,0,1
EndSplineSet
Substitution2: "'fina' Terminal Forms in Arabic lookup 9 subtable" uniFEA2
Substitution2: "'medi' Medial Forms in Arabic lookup 11 subtable" uniFEA4
Substitution2: "'init' Initial Forms in Arabic lookup 13 subtable" uniFEA3
EndChar

StartChar: uni062F
Encoding: 1583 1583 20
Width: 1020
VWidth: 3737
GlyphClass: 2
Flags: W
AnchorPoint: "Anchor-10" 428.795 1206.18 basechar 0
AnchorPoint: "Anchor-7" 400.949 -226.827 basechar 0
LayerCount: 2
Fore
SplineSet
230.859375 325.612304688 m 1,0,1
 231 266 231 266 250.879882812 237.4453125 c 0,2,3
 286 184 286 184 417.994140625 183.999023438 c 0,4,5
 774 184 774 184 774.109081849 318.191303459 c 0,6,7
 774 352 774 352 751.274414062 398.422851562 c 0,8,9
 672 566 672 566 353.720703125 777.817382812 c 1,10,-1
 418 949 l 2,11,12
 428 976 428 976 470.560546875 943.236328125 c 0,13,14
 916 595 916 595 916.126953125 340.834960938 c 0,15,16
 916 271 916 271 890.487304688 218.8046875 c 0,17,18
 784 0 784 0 419.2734375 0 c 0,19,20
 104 0 104 0 105.714759837 230.303616449 c 0,21,22
 106 278 106 278 119.606445312 336.571289062 c 1,23,-1
 230.859375 325.612304688 l 1,0,1
EndSplineSet
PairPos2: "'kern' Horizontal Kerning lookup 15-7" uniFB90 dx=-120 dy=0 dh=-120 dv=0 dx=0 dy=0 dh=0 dv=0
PairPos2: "'kern' Horizontal Kerning lookup 15-7" uni06A9 dx=-120 dy=0 dh=-120 dv=0 dx=0 dy=0 dh=0 dv=0
PairPos2: "'kern' Horizontal Kerning lookup 15-7" uniFB94 dx=-120 dy=0 dh=-120 dv=0 dx=0 dy=0 dh=0 dv=0
PairPos2: "'kern' Horizontal Kerning lookup 15-7" afii57509 dx=-120 dy=0 dh=-120 dv=0 dx=0 dy=0 dh=0 dv=0
Substitution2: "'fina' Terminal Forms in Arabic lookup 9 subtable" uniFEAA
EndChar

StartChar: uni0631
Encoding: 1585 1585 22
Width: 708
VWidth: 3744
GlyphClass: 2
Flags: W
AnchorPoint: "Anchor-7" 330.313 -717.669 basechar 0
AnchorPoint: "Anchor-10" 399.411 1005.21 basechar 0
LayerCount: 2
Fore
SplineSet
429 -368 m 4,0,1
 361 -454 361 -454 290 -488 c 4,2,3
 241 -511 241 -511 177.845703125 -510.8984375 c 4,4,5
 109 -511 109 -511 51 -493 c 4,6,7
 -4 -476 -4 -476 -4.515625 -453.580078125 c 4,8,9
 -5 -439 -5 -439 66.7890625 -402.438476562 c 4,10,11
 334 -265 334 -265 451.204101562 -60 c 4,12,13
 490 8 490 8 489.838867188 87.6943359375 c 4,14,15
 490 133 490 133 475.954101562 166 c 4,16,17
 435 263 435 263 362 371 c 5,18,-1
 467.216796875 529 l 6,19,20
 480 548 480 548 505.0234375 507 c 4,21,22
 616 330 616 330 615.868164062 127.754882812 c 4,23,24
 616 -130 616 -130 429 -368 c 4,0,1
EndSplineSet
PairPos2: "'kern' Horizontal Kerning lookup 15-1" uniFEF3 dx=20 dy=0 dh=20 dv=0 dx=0 dy=0 dh=0 dv=0
PairPos2: "'kern' Horizontal Kerning lookup 15-1" uniFB58 dx=20 dy=0 dh=20 dv=0 dx=0 dy=0 dh=0 dv=0
PairPos2: "'kern' Horizontal Kerning lookup 15-1" uniFBFE dx=20 dy=0 dh=20 dv=0 dx=0 dy=0 dh=0 dv=0
PairPos2: "'kern' Horizontal Kerning lookup 15-4" uni0621 dx=-196 dy=0 dh=-196 dv=0 dx=0 dy=0 dh=0 dv=0
PairPos2: "'kern' Horizontal Kerning lookup 15-3" uni0648 dx=-43 dy=0 dh=-43 dv=0 dx=0 dy=0 dh=0 dv=0
PairPos2: "'kern' Horizontal Kerning lookup 15-1" uni0632 dx=-43 dy=0 dh=-43 dv=0 dx=0 dy=0 dh=0 dv=0
PairPos2: "'kern' Horizontal Kerning lookup 15-1" uni0631 dx=-43 dy=0 dh=-43 dv=0 dx=0 dy=0 dh=0 dv=0
PairPos2: "'kern' Horizontal Kerning lookup 15-1" uni06CC dx=-43 dy=0 dh=-43 dv=0 dx=0 dy=0 dh=0 dv=0
PairPos2: "'kern' Horizontal Kerning lookup 15-1" uniFEEB dx=-128 dy=0 dh=-128 dv=0 dx=0 dy=0 dh=0 dv=0
PairPos2: "'kern' Horizontal Kerning lookup 15-1" uniFB7C dx=-115 dy=0 dh=-115 dv=0 dx=0 dy=0 dh=0 dv=0
PairPos2: "'kern' Horizontal Kerning lookup 15-1" uniFEDF dx=-128 dy=0 dh=-128 dv=0 dx=0 dy=0 dh=0 dv=0
PairPos2: "'kern' Horizontal Kerning lookup 15-1" uniFB90 dx=-213 dy=0 dh=-213 dv=0 dx=0 dy=0 dh=0 dv=0
PairPos2: "'kern' Horizontal Kerning lookup 15-1" uni06A9 dx=-213 dy=0 dh=-213 dv=0 dx=0 dy=0 dh=0 dv=0
PairPos2: "'kern' Horizontal Kerning lookup 15-1" uni0649 dx=-43 dy=0 dh=-43 dv=0 dx=0 dy=0 dh=0 dv=0
PairPos2: "'kern' Horizontal Kerning lookup 15-1" uni0647 dx=-128 dy=0 dh=-128 dv=0 dx=0 dy=0 dh=0 dv=0
PairPos2: "'kern' Horizontal Kerning lookup 15-1" uniFEE7 dx=-128 dy=0 dh=-128 dv=0 dx=0 dy=0 dh=0 dv=0
PairPos2: "'kern' Horizontal Kerning lookup 15-1" uniFEE3 dx=-128 dy=0 dh=-128 dv=0 dx=0 dy=0 dh=0 dv=0
PairPos2: "'kern' Horizontal Kerning lookup 15-1" uni0645 dx=-128 dy=0 dh=-128 dv=0 dx=0 dy=0 dh=0 dv=0
PairPos2: "'kern' Horizontal Kerning lookup 15-1" uni0644 dx=-43 dy=0 dh=-43 dv=0 dx=0 dy=0 dh=0 dv=0
PairPos2: "'kern' Horizontal Kerning lookup 15-1" uniFEDB dx=-213 dy=0 dh=-213 dv=0 dx=0 dy=0 dh=0 dv=0
PairPos2: "'kern' Horizontal Kerning lookup 15-1" uniFED7 dx=-128 dy=0 dh=-128 dv=0 dx=0 dy=0 dh=0 dv=0
PairPos2: "'kern' Horizontal Kerning lookup 15-1" uni0642 dx=-43 dy=0 dh=-43 dv=0 dx=0 dy=0 dh=0 dv=0
PairPos2: "'kern' Horizontal Kerning lookup 15-1" uniFED3 dx=-128 dy=0 dh=-128 dv=0 dx=0 dy=0 dh=0 dv=0
PairPos2: "'kern' Horizontal Kerning lookup 15-1" uni0641 dx=-128 dy=0 dh=-128 dv=0 dx=0 dy=0 dh=0 dv=0
PairPos2: "'kern' Horizontal Kerning lookup 15-1" uniFECF dx=-128 dy=0 dh=-128 dv=0 dx=0 dy=0 dh=0 dv=0
PairPos2: "'kern' Horizontal Kerning lookup 15-1" uniFECB dx=-128 dy=0 dh=-128 dv=0 dx=0 dy=0 dh=0 dv=0
PairPos2: "'kern' Horizontal Kerning lookup 15-1" uniFEC7 dx=-128 dy=0 dh=-128 dv=0 dx=0 dy=0 dh=0 dv=0
PairPos2: "'kern' Horizontal Kerning lookup 15-1" uni0638 dx=-128 dy=0 dh=-128 dv=0 dx=0 dy=0 dh=0 dv=0
PairPos2: "'kern' Horizontal Kerning lookup 15-1" uniFEC3 dx=-128 dy=0 dh=-128 dv=0 dx=0 dy=0 dh=0 dv=0
PairPos2: "'kern' Horizontal Kerning lookup 15-1" uni0637 dx=-128 dy=0 dh=-128 dv=0 dx=0 dy=0 dh=0 dv=0
PairPos2: "'kern' Horizontal Kerning lookup 15-1" uniFEBF dx=-128 dy=0 dh=-128 dv=0 dx=0 dy=0 dh=0 dv=0
PairPos2: "'kern' Horizontal Kerning lookup 15-1" uni0636 dx=-128 dy=0 dh=-128 dv=0 dx=0 dy=0 dh=0 dv=0
PairPos2: "'kern' Horizontal Kerning lookup 15-1" uniFEBB dx=-128 dy=0 dh=-128 dv=0 dx=0 dy=0 dh=0 dv=0
PairPos2: "'kern' Horizontal Kerning lookup 15-1" uni0635 dx=-128 dy=0 dh=-128 dv=0 dx=0 dy=0 dh=0 dv=0
PairPos2: "'kern' Horizontal Kerning lookup 15-1" uniFEB7 dx=-128 dy=0 dh=-128 dv=0 dx=0 dy=0 dh=0 dv=0
PairPos2: "'kern' Horizontal Kerning lookup 15-1" uni0634 dx=-128 dy=0 dh=-128 dv=0 dx=0 dy=0 dh=0 dv=0
PairPos2: "'kern' Horizontal Kerning lookup 15-1" uniFEB3 dx=-128 dy=0 dh=-128 dv=0 dx=0 dy=0 dh=0 dv=0
PairPos2: "'kern' Horizontal Kerning lookup 15-1" uni0633 dx=-128 dy=0 dh=-128 dv=0 dx=0 dy=0 dh=0 dv=0
PairPos2: "'kern' Horizontal Kerning lookup 15-1" uni0630 dx=-128 dy=0 dh=-128 dv=0 dx=0 dy=0 dh=0 dv=0
PairPos2: "'kern' Horizontal Kerning lookup 15-1" uni062F dx=-128 dy=0 dh=-128 dv=0 dx=0 dy=0 dh=0 dv=0
PairPos2: "'kern' Horizontal Kerning lookup 15-1" uniFEA7 dx=-128 dy=0 dh=-128 dv=0 dx=0 dy=0 dh=0 dv=0
PairPos2: "'kern' Horizontal Kerning lookup 15-1" uniFEA3 dx=-128 dy=0 dh=-128 dv=0 dx=0 dy=0 dh=0 dv=0
PairPos2: "'kern' Horizontal Kerning lookup 15-1" uniFE9F dx=-128 dy=0 dh=-128 dv=0 dx=0 dy=0 dh=0 dv=0
PairPos2: "'kern' Horizontal Kerning lookup 15-1" uniFE9B dx=-128 dy=0 dh=-128 dv=0 dx=0 dy=0 dh=0 dv=0
PairPos2: "'kern' Horizontal Kerning lookup 15-1" uni062B dx=-128 dy=0 dh=-128 dv=0 dx=0 dy=0 dh=0 dv=0
PairPos2: "'kern' Horizontal Kerning lookup 15-1" uniFE97 dx=-128 dy=0 dh=-128 dv=0 dx=0 dy=0 dh=0 dv=0
PairPos2: "'kern' Horizontal Kerning lookup 15-1" uni062A dx=-128 dy=0 dh=-128 dv=0 dx=0 dy=0 dh=0 dv=0
PairPos2: "'kern' Horizontal Kerning lookup 15-1" uni0629 dx=-128 dy=0 dh=-128 dv=0 dx=0 dy=0 dh=0 dv=0
PairPos2: "'kern' Horizontal Kerning lookup 15-1" uniFE91 dx=-53 dy=0 dh=-53 dv=0 dx=0 dy=0 dh=0 dv=0
PairPos2: "'kern' Horizontal Kerning lookup 15-1" uni0628 dx=-128 dy=0 dh=-128 dv=0 dx=0 dy=0 dh=0 dv=0
PairPos2: "'kern' Horizontal Kerning lookup 15-1" uni0627 dx=-150 dy=0 dh=-150 dv=0 dx=0 dy=0 dh=0 dv=0
PairPos2: "'kern' Horizontal Kerning lookup 15-1" uni0622 dx=-150 dy=0 dh=-150 dv=0 dx=0 dy=0 dh=0 dv=0
PairPos2: "'kern' Horizontal Kerning lookup 15-1" uniFB94 dx=-235 dy=0 dh=-235 dv=0 dx=0 dy=0 dh=0 dv=0
PairPos2: "'kern' Horizontal Kerning lookup 15-1" afii57509 dx=-235 dy=0 dh=-235 dv=0 dx=0 dy=0 dh=0 dv=0
PairPos2: "'kern' Horizontal Kerning lookup 15-1" uniFB56 dx=-128 dy=0 dh=-128 dv=0 dx=0 dy=0 dh=0 dv=0
PairPos2: "'kern' Horizontal Kerning lookup 15-1" afii57506 dx=-128 dy=0 dh=-128 dv=0 dx=0 dy=0 dh=0 dv=0
Substitution2: "'fina' Terminal Forms in Arabic lookup 9 subtable" uniFEAE
EndChar

StartChar: uni0633
Encoding: 1587 1587 24
Width: 2349
VWidth: 3744
GlyphClass: 2
Flags: W
AnchorPoint: "Anchor-7" 635.746 -764.065 basechar 0
AnchorPoint: "Anchor-10" 1670.2 1041.76 basechar 0
LayerCount: 2
Fore
SplineSet
1257.33007812 279.373046875 m 0,0,1
 1313 185 1313 185 1462.6796875 184.962890625 c 0,2,3
 1596.8897723 184.999969547 1596.8897723 184.999969547 1613.50683594 327.958007812 c 6,4,-1
 1634.83105469 511.412109375 l 1,5,-1
 1748.29882812 511.412109375 l 1,6,-1
 1768.85449219 329.776367188 l 6,7,8
 1785 184 1785 184 1931.18261719 184.438476562 c 0,9,10
 2097 184 2097 184 2096.92871094 341.384765625 c 0,11,12
 2097 396 2097 396 2018.48828125 615.358398438 c 1,13,-1
 2127.21386719 741.091796875 l 2,14,15
 2144 761 2144 761 2165.21386719 718.091796875 c 0,16,17
 2249 546 2249 546 2248.55957031 386.078125 c 0,18,19
 2249 238 2249 238 2167.19238281 125.884765625 c 0,20,21
 2075 1 2075 1 1934.19726562 0.93359375 c 16,22,23
 1778 1 1778 1 1689.984375 129.227539062 c 1,24,25
 1595 2 1595 2 1473.74121094 1.98046875 c 0,26,27
 1342 2 1342 2 1298 48 c 1,28,29
 1298 -82 1298 -82 1261 -185.876840953 c 0,30,31
 1135 -539 1135 -539 666.965820312 -538.86328125 c 0,32,33
 454 -539 454 -539 308 -447.248046875 c 0,34,35
 108 -321 108 -321 107.665039062 -35.0888671875 c 0,36,37
 108 169 108 169 205.79296875 384.94140625 c 1,38,-1
 316.0546875 352.40234375 l 1,39,40
 259 165 259 165 258.880859375 13.18359375 c 0,41,42
 259 -359 259 -359 673.813476562 -359.276367188 c 0,43,44
 987 -359 987 -359 1109.19140625 -164.387695312 c 0,45,46
 1147 -104 1147 -104 1146.53173608 -15 c 0,47,48
 1146 97 1146 97 1023.66699219 328.455078125 c 1,49,-1
 1120.31640625 474.686523438 l 1,50,51
 1129 487 1129 487 1138.31347656 486.528320312 c 0,52,53
 1152 487 1152 487 1171.24511719 445.676757812 c 0,54,55
 1222 339 1222 339 1257.33007812 279.373046875 c 0,0,1
EndSplineSet
Substitution2: "'fina' Terminal Forms in Arabic lookup 9 subtable" uniFEB2
Substitution2: "'medi' Medial Forms in Arabic lookup 11 subtable" uniFEB4
Substitution2: "'init' Initial Forms in Arabic lookup 13 subtable" uniFEB3
EndChar

StartChar: uni0635
Encoding: 1589 1589 26
Width: 2603
VWidth: 3745
GlyphClass: 2
Flags: W
AnchorPoint: "Anchor-7" 635.746 -764.065 basechar 0
AnchorPoint: "Anchor-10" 2100.2 1161.76 basechar 0
LayerCount: 2
Fore
SplineSet
1602.11328125 184.791992188 m 5,0,-1
 1913.25390625 184.791992188 l 6,1,2
 2168 185 2168 185 2257.31933594 253.029296875 c 4,3,4
 2341 318 2341 318 2341.54003906 412.5390625 c 4,5,6
 2342 476 2342 476 2302.77148438 524.008789062 c 4,7,8
 2258 580 2258 580 2156.45703125 580.015625 c 4,9,10
 1928 580 1928 580 1602.11328125 184.791992188 c 5,0,-1
1298 48 m 5,11,12
 1298 -81 1298 -81 1261 -185.876840953 c 4,13,14
 1137 -539 1137 -539 666.965820312 -538.86328125 c 4,15,16
 454 -539 454 -539 308 -447.248046875 c 4,17,18
 108 -321 108 -321 107.665039062 -35.0888671875 c 4,19,20
 108 169 108 169 205.79296875 384.94140625 c 5,21,-1
 316.0546875 352.40234375 l 5,22,23
 259 165 259 165 258.880859375 13.18359375 c 4,24,25
 259 -359 259 -359 673.813476562 -359.276367188 c 4,26,27
 987 -359 987 -359 1109.19140625 -164.387695312 c 4,28,29
 1147 -104 1147 -104 1146.53173608 -15 c 4,30,31
 1146 97 1146 97 1023.66699219 328.455078125 c 5,32,-1
 1120.31640625 474.686523438 l 5,33,34
 1129 487 1129 487 1138.31347656 486.528320312 c 4,35,36
 1153 486 1153 486 1171.24511719 445.676757812 c 4,37,38
 1211.47917393 356.7561114 1211.47917393 356.7561114 1257.33007812 279.373046875 c 28,39,40
 1313 186 1313 186 1452.38574219 184.909179688 c 5,41,42
 1812 757 1812 757 2169.27148438 757.09375 c 4,43,44
 2334 757 2334 757 2424.31933594 649.978515625 c 4,45,46
 2502 557 2502 557 2502.23828125 423.375976562 c 4,47,48
 2502 233 2502 233 2340.62011719 118.11328125 c 4,49,50
 2176.13066385 0.09375 2176.13066385 0.09375 1821.76269531 0.09375 c 6,51,-1
 1586.95019531 0.09375 l 6,52,53
 1359.87890625 0.09375 1359.87890625 0.09375 1298 48 c 5,11,12
EndSplineSet
Substitution2: "'fina' Terminal Forms in Arabic lookup 9 subtable" uniFEBA
Substitution2: "'medi' Medial Forms in Arabic lookup 11 subtable" uniFEBC
Substitution2: "'init' Initial Forms in Arabic lookup 13 subtable" uniFEBB
EndChar

StartChar: uni0637
Encoding: 1591 1591 28
Width: 1570
VWidth: 3745
GlyphClass: 2
Flags: W
AnchorPoint: "Anchor-10" 485.708 1543.06 basechar 0
AnchorPoint: "Anchor-7" 712.507 -219.535 basechar 0
LayerCount: 2
Fore
SplineSet
569.793945312 184.791015625 m 5,0,-1
 880.934570312 184.791015625 l 6,1,2
 1134 185 1134 185 1225 255.028320312 c 4,3,4
 1309 320 1309 320 1309.22070312 414.538085938 c 4,5,6
 1309 478 1309 478 1270.45214844 526.0078125 c 4,7,8
 1226 582 1226 582 1124.13769531 582.014648438 c 4,9,10
 898 582 898 582 569.793945312 184.791015625 c 5,0,-1
260.19921875 0 m 5,11,12
 97 128 97 128 96.3173828125 167 c 4,13,14
 96.005859375 184.657226562 96.005859375 184.657226562 124.399414062 184.657226562 c 6,15,-1
 422.862304688 184.658203125 l 5,16,17
 460 241 460 241 497.7890625 296.39453125 c 5,18,19
 491 410 491 410 475.5078125 777.770507812 c 4,20,21
 456 1244 456 1244 434.522460938 1329.796875 c 5,22,-1
 579 1417 l 6,23,24
 604.188476562 1432.11328125 604.188476562 1432.11328125 604.880859375 1392.04882812 c 6,25,-1
 621.05859375 455.458984375 l 5,26,27
 880 759 880 759 1137 759 c 4,28,29
 1302 759 1302 759 1392 651.977539062 c 4,30,31
 1470 559 1470 559 1469.91894531 425.375 c 4,32,33
 1470 239 1470 239 1308.30078125 120.112304688 c 4,34,35
 1146 0 1146 0 789.443359375 0 c 6,36,-1
 260.19921875 0 l 5,11,12
EndSplineSet
Substitution2: "'fina' Terminal Forms in Arabic lookup 9 subtable" uniFEC2
Substitution2: "'medi' Medial Forms in Arabic lookup 11 subtable" uniFEC4
Substitution2: "'init' Initial Forms in Arabic lookup 13 subtable" uniFEC3
EndChar

StartChar: uni0639
Encoding: 1593 1593 30
Width: 1262
VWidth: 3739
GlyphClass: 2
Flags: W
AnchorPoint: "Anchor-7" 562.136 -813.44 basechar 0
AnchorPoint: "Anchor-10" 706.051 1329.67 basechar 0
LayerCount: 2
Fore
SplineSet
788.768554688 -654.81640625 m 0,0,1
 612 -655 612 -655 460.94140625 -615.65625 c 0,2,3
 333 -582 333 -582 259.965820312 -517.939453125 c 0,4,5
 104 -382 104 -382 103.260742188 -184.354492188 c 0,6,7
 102 172 102 172 460 360 c 1,8,9
 306 459 306 459 306.028320312 632.578125 c 0,10,11
 306 671 306 671 319.127929688 723.736328125 c 0,12,13
 352 855 352 855 461.2578125 934 c 0,14,15
 574 1016 574 1016 693.815429688 1016.01855469 c 0,16,17
 872 1016 872 1016 985.583984375 912.750976562 c 0,18,19
 993 906 993 906 1001.28808594 897.672851562 c 1,20,21
 997 878 997 878 954.852539062 768.501953125 c 1,22,23
 812 824 812 824 701.169921875 823.515625 c 0,24,25
 577 824 577 824 483.205078125 717.178710938 c 0,26,27
 449 678 449 678 448.647460938 647.791992188 c 0,28,29
 449 587 449 587 561.40625 500.189453125 c 0,30,31
 617 457 617 457 673.580078125 457.0859375 c 0,32,33
 697 457 697 457 928.5625 491.759765625 c 1,34,-1
 1067.60449219 509.389648438 l 2,35,36
 1101 514 1101 514 1090.60839844 477 c 0,37,38
 1079 435 1079 435 1032.72167969 294.971679688 c 1,39,40
 663 291 663 291 470.227539062 176.634765625 c 0,41,42
 249 46 249 46 249.989257812 -153.680664062 c 0,43,44
 250 -485 250 -485 765.594726562 -485.2265625 c 0,45,46
 946 -485 946 -485 1154.27148438 -456.337890625 c 0,47,48
 1164 -455 1164 -455 1162.87304688 -465.625 c 0,49,50
 1159 -506 1159 -506 1149 -536 c 0,51,52
 1120 -625 1120 -625 1022 -640.119140625 c 0,53,54
 921 -655 921 -655 788.768554688 -654.81640625 c 0,0,1
EndSplineSet
Substitution2: "'fina' Terminal Forms in Arabic lookup 9 subtable" uniFECA
Substitution2: "'medi' Medial Forms in Arabic lookup 11 subtable" uniFECC
Substitution2: "'init' Initial Forms in Arabic lookup 13 subtable" uniFECB
EndChar

StartChar: afii57440
Encoding: 1600 1600 32
Width: 245
VWidth: 3772
GlyphClass: 2
Flags: W
AnchorPoint: "Anchor-10" 128.034 870.08 basechar 0
AnchorPoint: "Anchor-7" 124.768 -197.603 basechar 0
LayerCount: 2
Fore
SplineSet
-60.3662109375 77 m 2,0,-1
 -60.3662109375 102 l 2,1,2
 -60.0000043613 183.999023438 -60.0000043613 183.999023438 -5 183.999023438 c 6,3,-1
 250 183.999023438 l 6,4,5
 275.340820312 184.000013313 275.340820312 184.000013313 275.340820312 102 c 2,6,-1
 275.340820312 77 l 2,7,8
 275 0 275 0 250 0 c 2,9,-1
 -5 0 l 2,10,11
 -60 0 -60 0 -60.3662109375 77 c 2,0,-1
EndSplineSet
EndChar

StartChar: uni0643
Encoding: 1603 1603 35
Width: 1878
VWidth: 3705
GlyphClass: 2
Flags: W
AnchorPoint: "Anchor-10" 916.253 1515.45 basechar 0
AnchorPoint: "Anchor-7" 832.494 -204.19 basechar 0
LayerCount: 2
Fore
SplineSet
808.87890625 2 m 0,0,1
 477 2 477 2 305.037109375 98.587890625 c 0,2,3
 104 210 104 210 104.243164062 454.830078125 c 0,4,5
 104 625 104 625 174.85546875 766.762695312 c 1,6,-1
 276.431640625 732.233398438 l 1,7,8
 244 613 244 613 243.690429688 523.778320312 c 0,9,10
 244 424 244 424 284.80859375 362.3515625 c 0,11,12
 402 184 402 184 825.046875 184.487304688 c 0,13,14
 1117 185 1117 185 1305.89550781 225.599609375 c 0,15,16
 1480 263 1480 263 1543.30078125 300.086914062 c 0,17,18
 1587 325 1587 325 1586 574 c 0,19,20
 1585 845 1585 845 1574.0234375 996.764648438 c 0,21,22
 1569 1067 1569 1067 1543.86523438 1319.42089844 c 1,23,-1
 1685.09472656 1432.51171875 l 2,24,25
 1721.9848609 1461.98790346 1721.9848609 1461.98790346 1721.89941406 1409.92382812 c 2,26,-1
 1720.89941406 800.608398438 l 2,27,28
 1720 250 1720 250 1601.63085938 162.662109375 c 0,29,30
 1382 2 1382 2 808.87890625 2 c 0,0,1
849.633789062 1127.10546875 m 0,31,32
 849 1082 849 1082 985.580078125 1057.65234375 c 0,33,34
 1123 1033 1123 1033 1153.32421875 940.416015625 c 0,35,36
 1189 832 1189 832 1127.52832031 745.630859375 c 0,37,38
 1054 644 1054 644 863.654296875 650.818359375 c 0,39,40
 769 654 769 654 670.5234375 685.338867188 c 1,41,-1
 684.244140625 825.8828125 l 1,42,43
 846 769 846 769 987.969726562 797.603515625 c 0,44,45
 1069 814 1069 814 1075.86621094 859.4765625 c 0,46,47
 1083 907 1083 907 940.265625 938 c 0,48,49
 767 975 767 975 771.475585938 1143.74121094 c 0,50,51
 777 1323 777 1323 1089.30761719 1366.13964844 c 0,52,53
 1147.258781 1374.1503596 1147.258781 1374.1503596 1132.29296875 1331.31835938 c 2,54,-1
 1095.76660156 1226.78027344 l 1,55,56
 851 1202 851 1202 849.633789062 1127.10546875 c 0,31,32
EndSplineSet
Substitution2: "'fina' Terminal Forms in Arabic lookup 9 subtable" uniFEDA
Substitution2: "'medi' Medial Forms in Arabic lookup 11 subtable" uniFEDC
Substitution2: "'init' Initial Forms in Arabic lookup 13 subtable" uniFEDB
EndChar

StartChar: uni0644
Encoding: 1604 1604 36
Width: 1345
VWidth: 3705
GlyphClass: 2
Flags: W
AnchorPoint: "Anchor-10" 570.799 1009.28 basechar 0
AnchorPoint: "Anchor-7" 656.152 -732.482 basechar 0
LayerCount: 2
Fore
SplineSet
1195.76660156 88.3427734375 m 2,0,1
 1209.99948096 -535.000003759 1209.99948096 -535.000003759 666.619140625 -538.935546875 c 0,2,3
 381 -541 381 -541 237.024414062 -386.934570312 c 0,4,5
 107 -246 107 -246 106.561523438 -25.052734375 c 0,6,7
 107 164 107 164 209.770507812 384.857421875 c 1,8,-1
 320.032226562 352.3203125 l 1,9,10
 260 159 260 159 260.487304688 18.580078125 c 0,11,12
 260 -360 260 -360 664.125 -359.364257812 c 0,13,14
 1038 -359 1038 -359 1055.62597656 -32 c 0,15,16
 1059 30 1059 30 1055.85449219 114 c 0,17,18
 1011 1251 1011 1251 998.236328125 1322.83886719 c 5,19,-1
 1137 1410 l 6,20,21
 1165.17543152 1428.11277741 1165.17543152 1428.11277741 1166 1392 c 6,22,-1
 1195.76660156 88.3427734375 l 2,0,1
EndSplineSet
Substitution2: "'fina' Terminal Forms in Arabic lookup 9 subtable" uniFEDE
Substitution2: "'medi' Medial Forms in Arabic lookup 11 subtable" uniFEE0
Substitution2: "'init' Initial Forms in Arabic lookup 13 subtable" uniFEDF
EndChar

StartChar: uni0645
Encoding: 1605 1605 37
Width: 1110
VWidth: 3775
GlyphClass: 2
Flags: W
AnchorPoint: "Anchor-10" 609.394 1157.86 basechar 0
AnchorPoint: "Anchor-7" 206.665 -888.897 basechar 0
LayerCount: 2
Fore
SplineSet
667.024414062 68.6806640625 m 0,0,1
 518 95 518 95 397.07471309 94.8019547315 c 0,2,3
 282 95 282 95 250.184570312 76.5595703125 c 1,4,-1
 263.3984375 -517.263671875 l 2,5,6
 265 -607 265 -607 177.186523438 -696.890625 c 0,7,8
 151 -724 151 -724 136.416537297 -723.880475809 c 0,9,10
 121.114579372 -723.999111668 121.114579372 -723.999111668 120.072265625 -692.62890625 c 2,11,-1
 106.69140625 -289.909179688 l 2,12,13
 105 -239 105 -239 105.164023793 -198.184048972 c 0,14,15
 105 -23 105 -23 130.040039062 75.455078125 c 0,16,17
 171 234 171 234 290.078125 276.318359375 c 1,18,19
 363 549 363 549 456.986328125 660.043945312 c 4,20,21
 525 741 525 741 618.967773438 741.624023438 c 4,22,23
 706 742 706 742 779.755859375 690.823242188 c 4,24,25
 959 567 959 567 1005.14550781 345.657226562 c 0,26,27
 1010 322 1010 322 1009.68157901 297.968098052 c 0,28,29
 1010 187 1010 187 909.490234375 90.28125 c 0,30,31
 864 46 864 46 828.694697229 41.2309357318 c 0,32,33
 827 41 827 41 667.024414062 68.6806640625 c 0,0,1
412.135742188 283.193359375 m 1,34,35
 584.8203125 273.713867188 584.8203125 273.713867188 685.897460938 254.643554688 c 128,-1,36
 786.974609375 235.573242188 786.974609375 235.573242188 821.884277344 235.573242188 c 128,-1,37
 856.793945312 235.573242188 856.793945312 235.573242188 856.793945312 258.25390625 c 0,38,39
 856.793945312 318.256992612 856.793945312 318.256992612 823.18359375 381.678710938 c 0,40,41
 753 513 753 513 645.223632812 544.03515625 c 0,42,43
 630.70703125 547.81640625 630.70703125 547.81640625 612.718261719 547.81640625 c 128,-1,44
 594.729492188 547.81640625 594.729492188 547.81640625 572.344726562 540.4921875 c 0,45,46
 527.6497944 525.867520548 527.6497944 525.867520548 492.280951888 470.798506368 c 128,-1,47
 456.912109375 415.729492188 456.912109375 415.729492188 412.135742188 283.193359375 c 1,34,35
EndSplineSet
Substitution2: "'init' Initial Forms in Arabic lookup 13 subtable" uniFEE3
Substitution2: "'medi' Medial Forms in Arabic lookup 11 subtable" uniFEE4
Substitution2: "'fina' Terminal Forms in Arabic lookup 9 subtable" uniFEE2
EndChar

StartChar: uni0647
Encoding: 1607 1607 39
Width: 877
VWidth: 3738
GlyphClass: 2
Flags: W
AnchorPoint: "Anchor-10" 377.369 1133.95 basechar 0
AnchorPoint: "Anchor-7" 420.886 -224.499 basechar 0
LayerCount: 2
Fore
SplineSet
368.119140625 596.525390625 m 1,0,1
 243.869339088 429.479902572 243.869339088 429.479902572 243.869339088 311.183792575 c 0,2,3
 243.869339088 185.999348856 243.869339088 185.999348856 447.697265625 185.846679688 c 4,4,5
 645.57729103 186.021743442 645.57729103 186.021743442 645.57729103 320.011920166 c 0,6,7
 645.57729103 437.712653791 645.57729103 437.712653791 436.822265625 559.926757812 c 0,8,9
 382 592 382 592 368.119140625 596.525390625 c 1,0,1
312.573242188 775.623046875 m 0,10,11
 332 802 332 802 348.365554853 802.034179688 c 0,12,13
 365 802 365 802 375.379882812 798.002929688 c 0,14,15
 777.102454999 645.581707502 777.102454999 645.581707502 776.360351562 332.854492188 c 0,16,17
 776 181 776 181 683.640136719 93.4733303695 c 0,18,19
 591 6 591 6 431.374023438 6.345703125 c 0,20,21
 266 6 266 6 173.868164062 108.68359375 c 0,22,23
 109 181 109 181 109.25 296.484375 c 0,24,25
 109 499 109 499 312.573242188 775.623046875 c 0,10,11
EndSplineSet
Substitution2: "'fina' Terminal Forms in Arabic lookup 9 subtable" uniFEEA
Substitution2: "'medi' Medial Forms in Arabic lookup 11 subtable" uniFEEC
Substitution2: "'init' Initial Forms in Arabic lookup 13 subtable" uniFEEB
EndChar

StartChar: uni0648
Encoding: 1608 1608 40
Width: 798
VWidth: 3773
GlyphClass: 2
Flags: W
AnchorPoint: "Anchor-7" 356.313 -677.669 basechar 0
AnchorPoint: "Anchor-10" 373.254 1139.8 basechar 0
LayerCount: 2
Fore
SplineSet
647.97265625 480.303710938 m 0,0,1
 703 360 703 360 702.692376674 167 c 0,2,3
 702 -128 702 -128 512 -368 c 0,4,5
 444 -454 444 -454 373 -488 c 0,6,7
 324 -511 324 -511 260.845703125 -510.8984375 c 0,8,9
 192 -511 192 -511 134 -493 c 0,10,11
 79 -476 79 -476 78.484375 -453.580078125 c 0,12,13
 78.0032623448 -439.098199209 78.0032623448 -439.098199209 149.7890625 -402.438476562 c 4,14,15
 414 -267 414 -267 534.204101562 -60 c 0,16,17
 553.831132775 -25.9330815367 553.831132775 -25.9330815367 560.234375 5.3994140625 c 5,18,-1
 490.193359375 -2 l 2,19,20
 259 -26 259 -26 163.512695312 69.6064453125 c 0,21,22
 96 137 96 137 103.560546875 261.30078125 c 0,23,24
 112 401 112 401 172 515.98046875 c 0,25,26
 250 668 250 668 400.532226562 667.788085938 c 0,27,28
 563 668 563 668 647.97265625 480.303710938 c 0,0,1
561.814453125 189.555664062 m 1,29,30
 549 351 549 351 495.333007812 428 c 0,31,32
 452 491 452 491 391.065429688 490.7421875 c 0,33,34
 297 491 297 491 260.943359375 383.198242188 c 0,35,36
 241 322 241 322 241.311523438 278.197265625 c 0,37,38
 241 213 241 213 305.215820312 190.265625 c 0,39,40
 352 174 352 174 424 173.234375 c 0,41,42
 493 173 493 173 561.814453125 189.555664062 c 1,29,30
EndSplineSet
Substitution2: "'fina' Terminal Forms in Arabic lookup 9 subtable" uniFEEE
EndChar

StartChar: uni0649
Encoding: 1609 1609 41
Width: 1474
VWidth: 3745
GlyphClass: 2
Flags: W
AnchorPoint: "Anchor-10" 612.513 958.08 basechar 0
AnchorPoint: "Anchor-7" 618.071 -676.887 basechar 0
LayerCount: 2
Fore
SplineSet
677.813476562 -309.276367188 m 0,0,1
 991 -309 991 -309 1148.43554688 -130.353515625 c 0,2,3
 1191 -82 1191 -82 1191.02269753 -55.1702648796 c 0,4,5
 1191 -32 1191 -32 1157.15625 -26.005859375 c 0,6,-1
 913 17 l 0,7,8
 790 38 790 38 766.2890625 100.896484375 c 0,9,10
 759 121 759 121 758.57049056 151.654016345 c 0,11,12
 759 214 759 214 789.98046875 320.5 c 0,13,14
 875 609 875 609 1104.56054688 702.146484375 c 0,15,16
 1179 732 1179 732 1256.30972958 732.346456662 c 0,17,18
 1320 732 1320 732 1385.69921875 712.220703125 c 1,19,20
 1380 651 1380 651 1347.77441406 516.538085938 c 1,21,22
 1284 520 1284 520 1267.49007766 519.613722885 c 0,23,24
 1102 520 1102 520 1018.12109375 436.591796875 c 0,25,26
 931 350 931 350 899.73046875 208.78125 c 1,27,-1
 1162 158.534179688 l 2,28,29
 1314 129 1314 129 1314.23045267 4.94321804852 c 0,30,31
 1314 -138 1314 -138 1227.57226562 -250 c 0,32,33
 1044 -487 1044 -487 668.483398438 -488.856445312 c 8,34,35
 456 -490 456 -490 308 -394.66796875 c 0,36,37
 107 -266 107 -266 106.9296875 15.4951171875 c 0,38,39
 107 209 107 209 209.79296875 434.94140625 c 1,40,-1
 320.0546875 402.40234375 l 1,41,42
 263 215 263 215 262.880859375 63.18359375 c 0,43,44
 263 -310 263 -310 677.813476562 -309.276367188 c 0,0,1
EndSplineSet
Substitution2: "'fina' Terminal Forms in Arabic lookup 9 subtable" uniFEF0
Substitution2: "'medi' Medial Forms in Arabic lookup 11 subtable" uniFBE9
Substitution2: "'init' Initial Forms in Arabic lookup 13 subtable" uniFBE8
EndChar

StartChar: uni064B
Encoding: 1611 1611 43
Width: -25
VWidth: 2402
GlyphClass: 4
Flags: W
AnchorPoint: "Anchor-10" 637 1173.3 mark 0
AnchorPoint: "Anchor-9" 637 1173.3 mark 0
AnchorPoint: "Anchor-1" 595.196 1707 basemark 0
AnchorPoint: "Anchor-1" 637 1173.3 mark 0
LayerCount: 2
Fore
SplineSet
382 1153 m 1,0,-1
 382 1254.09277344 l 1,1,-1
 777 1420.09179688 l 1,2,-1
 777 1319 l 1,3,-1
 382 1153 l 1,0,-1
382 1403 m 1,4,-1
 382 1504.09277344 l 1,5,-1
 777 1670.09179688 l 1,6,-1
 777 1569 l 1,7,-1
 382 1403 l 1,4,-1
EndSplineSet
EndChar

StartChar: uni064C
Encoding: 1612 1612 44
Width: -25
VWidth: 2402
GlyphClass: 4
Flags: W
AnchorPoint: "Anchor-10" 706.932 1262.33 mark 0
AnchorPoint: "Anchor-9" 706.932 1262.33 mark 0
AnchorPoint: "Anchor-1" 593.593 1985.74 basemark 0
AnchorPoint: "Anchor-1" 706.932 1262.33 mark 0
LayerCount: 2
Fore
SplineSet
682.081054688 1807.66210938 m 0,0,1
 635.4140625 1807.66210938 635.4140625 1807.66210938 612.619140625 1787.10839844 c 128,-1,2
 589.82421875 1766.5546875 589.82421875 1766.5546875 589.82421875 1724.77636719 c 0,3,4
 589.82421875 1662.24414062 589.82421875 1662.24414062 671.62109375 1632.5 c 0,5,6
 691.80078125 1625.15917969 691.80078125 1625.15917969 734.59765625 1611.84960938 c 1,7,-1
 750.127929688 1648.07714844 l 2,8,9
 753.275390625 1655.41894531 753.275390625 1655.41894531 755.631835938 1662.59375 c 128,-1,10
 757.989257812 1669.76953125 757.989257812 1669.76953125 759.5546875 1676.76660156 c 128,-1,11
 761.119140625 1683.76367188 761.119140625 1683.76367188 761.899414062 1690.58398438 c 128,-1,12
 762.6796875 1697.40429688 762.6796875 1697.40429688 762.6796875 1704.06542969 c 0,13,14
 762.6796875 1730.89160156 762.6796875 1730.89160156 755.590820312 1751.54394531 c 0,15,16
 745.873046875 1779.85546875 745.873046875 1779.85546875 727.615234375 1793.75878906 c 128,-1,17
 709.357421875 1807.66210938 709.357421875 1807.66210938 682.081054688 1807.66210938 c 0,0,1
331.27734375 1567.06640625 m 2,18,19
 337.979492188 1470.17773438 337.979492188 1470.17773438 347.932617188 1437.5625 c 0,20,21
 380.119140625 1332.10449219 380.119140625 1332.10449219 461.352539062 1334.04101562 c 0,22,23
 502.084960938 1335.01171875 502.084960938 1335.01171875 542.538085938 1354.87304688 c 128,-1,24
 582.9921875 1374.73339844 582.9921875 1374.73339844 623.202148438 1413.64648438 c 0,25,26
 669.795898438 1458.98242188 669.795898438 1458.98242188 696.400390625 1512.19335938 c 2,27,-1
 710.188476562 1539.77441406 l 1,28,-1
 680.01953125 1546.17675781 l 2,29,30
 553.680664062 1572.95605469 553.680664062 1572.95605469 512.194335938 1674.70019531 c 0,31,32
 505.251953125 1691.72070312 505.251953125 1691.72070312 505.251953125 1724.09570312 c 0,33,34
 505.251953125 1756.26171875 505.251953125 1756.26171875 514.016601562 1782.41113281 c 0,35,36
 550.029296875 1889.87402344 550.029296875 1889.87402344 671.806640625 1889.87402344 c 128,-1,37
 793.41796875 1889.87402344 793.41796875 1889.87402344 832.646484375 1785.16113281 c 0,38,39
 844.892578125 1752.47265625 844.892578125 1752.47265625 844.892578125 1710.29882812 c 128,-1,40
 844.892578125 1668.29785156 844.892578125 1668.29785156 831.830078125 1626.85449219 c 2,41,-1
 822.553710938 1597.48730469 l 1,42,-1
 853.311523438 1595.87207031 l 2,43,44
 873.525390625 1594.80566406 873.525390625 1594.80566406 911.638671875 1593.8515625 c 2,45,-1
 914.563476562 1593.77832031 l 1,46,-1
 914.563476562 1511.375 l 1,47,-1
 911.51171875 1511.42773438 l 2,48,49
 876.284179688 1512.04101562 876.284179688 1512.04101562 861.571289062 1513.51855469 c 2,50,-1
 782.775390625 1521.09179688 l 1,51,52
 721.950195312 1383.44628906 721.950195312 1383.44628906 600.155273438 1297.7421875 c 0,53,54
 538.19140625 1254.13867188 538.19140625 1254.13867188 470.0390625 1253.82128906 c 0,55,56
 279.547851562 1252.93457031 279.547851562 1252.93457031 272.821289062 1566.79492188 c 2,57,-1
 272.754882812 1569.859375 l 1,58,-1
 331.083984375 1569.859375 l 1,59,-1
 331.27734375 1567.06640625 l 2,18,19
EndSplineSet
EndChar

StartChar: uni064D
Encoding: 1613 1613 45
Width: -24
VWidth: 2231
GlyphClass: 4
Flags: W
AnchorPoint: "Anchor-7" 519.761 8.6797 mark 0
AnchorPoint: "Anchor-6" 519.761 8.6797 mark 0
AnchorPoint: "Anchor-0" 614.975 -455.578 basemark 0
AnchorPoint: "Anchor-0" 519.761 8.6797 mark 0
LayerCount: 2
Fore
SplineSet
329 -488 m 5,0,-1
 329 -386.907226562 l 5,1,-1
 724 -220.908203125 l 5,2,-1
 724 -322 l 5,3,-1
 329 -488 l 5,0,-1
329 -238 m 5,4,-1
 329 -136.907226562 l 5,5,-1
 724 29.091796875 l 5,6,-1
 724 -72 l 5,7,-1
 329 -238 l 5,4,-1
EndSplineSet
EndChar

StartChar: uni064E
Encoding: 1614 1614 46
Width: -24
VWidth: 2231
GlyphClass: 4
Flags: W
AnchorPoint: "Anchor-10" 541.027 1314.54 mark 0
AnchorPoint: "Anchor-9" 541.027 1314.54 mark 0
AnchorPoint: "Anchor-1" 520.452 1629.02 basemark 0
AnchorPoint: "Anchor-1" 541.027 1314.54 mark 0
LayerCount: 2
Fore
SplineSet
303 1306 m 5,0,-1
 303 1407.09277344 l 5,1,-1
 698 1573.09179688 l 5,2,-1
 698 1472 l 5,3,-1
 303 1306 l 5,0,-1
EndSplineSet
EndChar

StartChar: uni064F
Encoding: 1615 1615 47
Width: -24
VWidth: 2231
GlyphClass: 4
Flags: W
AnchorPoint: "Anchor-10" 597.961 1261.64 mark 0
AnchorPoint: "Anchor-9" 597.961 1261.64 mark 0
AnchorPoint: "Anchor-1" 528.853 1858.42 basemark 0
AnchorPoint: "Anchor-1" 597.961 1261.64 mark 0
LayerCount: 2
Fore
SplineSet
791.53125 1418.96386719 m 1,0,1
 737.403118743 1420.05195662 737.403118743 1420.05195662 666.219726562 1427.66113281 c 1,2,3
 613.530911695 1353.51764752 613.530911695 1353.51764752 523.468092566 1297.92483938 c 128,-1,4
 433.388997783 1242.32198483 433.388997783 1242.32198483 305.546875 1235.00097656 c 1,5,-1
 305.546875 1311.64160156 l 1,6,7
 459.386702053 1319.56060433 459.386702053 1319.56060433 554.650390625 1423.61230469 c 1,8,-1
 581.120117188 1451.4921875 l 1,9,10
 482.564496235 1478.18002467 482.564496235 1478.18002467 444 1526 c 4,11,12
 412 1565 412 1565 412.155761719 1623.29785156 c 0,13,14
 412 1699 412 1699 470 1743 c 0,15,16
 533 1791 533 1791 609.870117188 1769.41308594 c 0,17,18
 648.516601562 1758.59375 648.516601562 1758.59375 677.844726562 1729.57128906 c 0,19,20
 726.754969688 1681.17079907 726.754969688 1681.17079907 727.021484375 1603.67773438 c 0,21,22
 726.756835938 1571.12988281 726.756835938 1571.12988281 712.696289062 1525.93945312 c 2,23,-1
 704.4375 1499.3984375 l 1,24,-1
 732.193359375 1497.75878906 l 2,25,26
 763.574501539 1495.91399151 763.574501539 1495.91399151 791.53125 1495.62890625 c 1,27,-1
 791.53125 1418.96386719 l 1,0,1
624.38671875 1512.61425781 m 1,28,29
 649.851791442 1573.25598795 649.851791442 1573.25598795 648.895719723 1614 c 0,30,31
 647.485729449 1674.0882336 647.485729449 1674.0882336 604 1688.80306403 c 0,32,33
 565 1702 565 1702 536 1688 c 0,34,35
 501 1670 501 1670 492.629882812 1633.48925781 c 0,36,37
 476.825808147 1559.57427236 476.825808147 1559.57427236 600.418945312 1520.04785156 c 0,38,39
 611.1174251 1516.62503855 611.1174251 1516.62503855 624.38671875 1512.61425781 c 1,28,29
EndSplineSet
EndChar

StartChar: uni0650
Encoding: 1616 1616 48
Width: -24
VWidth: 2231
GlyphClass: 4
Flags: W
AnchorPoint: "Anchor-7" 549.05 -78.2773 mark 0
AnchorPoint: "Anchor-6" 549.05 -78.2773 mark 0
AnchorPoint: "Anchor-0" 583.143 -285.976 basemark 0
AnchorPoint: "Anchor-0" 549.05 -78.2773 mark 0
LayerCount: 2
Fore
SplineSet
351 -322 m 1,0,-1
 351 -220.907226562 l 1,1,-1
 746 -54.908203125 l 1,2,-1
 746 -156 l 1,3,-1
 351 -322 l 1,0,-1
EndSplineSet
EndChar

StartChar: uni0651
Encoding: 1617 1617 49
Width: -24
VWidth: 2231
GlyphClass: 4
Flags: W
AnchorPoint: "Anchor-10" 589.815 1342.68 mark 0
AnchorPoint: "Anchor-9" 589.815 1342.68 mark 0
AnchorPoint: "Anchor-1" 560.134 1778.24 basemark 0
AnchorPoint: "Anchor-1" 589.815 1342.68 mark 0
LayerCount: 2
Fore
SplineSet
589.624023438 1609.57910156 m 0,0,1
 589.001953125 1501.4296875 589.001953125 1501.4296875 693.940429688 1501.37597656 c 0,2,3
 734.927734375 1501.40332031 734.927734375 1501.40332031 755.041992188 1522.78125 c 128,-1,4
 775.155273438 1544.16015625 775.155273438 1544.16015625 775.155273438 1587.88769531 c 0,5,6
 775.155273438 1677.109375 775.155273438 1677.109375 768.518554688 1719.46484375 c 2,7,-1
 768.274414062 1721.01953125 l 1,8,-1
 769.415039062 1722.10351562 l 2,9,10
 805.2890625 1756.20898438 805.2890625 1756.20898438 846.075195312 1722.88671875 c 2,11,-1
 846.989257812 1722.140625 l 1,12,-1
 847.149414062 1720.97070312 l 2,13,14
 857.791015625 1643.27148438 857.791015625 1643.27148438 857.391601562 1583.41015625 c 0,15,16
 857.592773438 1483.8359375 857.592773438 1483.8359375 818.15234375 1433.35351562 c 128,-1,17
 778.712890625 1382.87207031 778.712890625 1382.87207031 699.985351562 1382.79101562 c 0,18,19
 605.83984375 1382.9453125 605.83984375 1382.9453125 566.563476562 1453.55566406 c 1,20,21
 530.669921875 1312.39160156 530.669921875 1312.39160156 412.158203125 1312.39160156 c 0,22,23
 406.493164062 1312.39160156 406.493164062 1312.39160156 401.021484375 1312.62402344 c 128,-1,24
 395.549804688 1312.85644531 395.549804688 1312.85644531 390.272460938 1313.32128906 c 0,25,26
 230.986328125 1327.36425781 230.986328125 1327.36425781 251.323242188 1550.8203125 c 0,27,28
 252.833984375 1567.01464844 252.833984375 1567.01464844 255.591796875 1587.50878906 c 128,-1,29
 258.349609375 1608.00195312 258.349609375 1608.00195312 262.356445312 1632.82421875 c 2,30,-1
 262.515625 1633.80957031 l 1,31,-1
 263.233398438 1634.50390625 l 2,32,33
 302.798828125 1672.72265625 302.798828125 1672.72265625 336.203125 1633.71777344 c 2,34,-1
 337.091796875 1632.68066406 l 1,35,-1
 336.892578125 1631.33007812 l 2,36,37
 330.797851562 1589.92285156 330.797851562 1589.92285156 327.86328125 1562.61914062 c 128,-1,38
 324.9296875 1535.31640625 324.9296875 1535.31640625 325.171875 1522.50195312 c 0,39,40
 324.924804688 1473.40332031 324.924804688 1473.40332031 348.555664062 1449.36523438 c 128,-1,41
 372.186523438 1425.32714844 372.186523438 1425.32714844 420.577148438 1425.38183594 c 0,42,43
 464.064453125 1425.32714844 464.064453125 1425.32714844 487.010742188 1456.87109375 c 128,-1,44
 509.958007812 1488.4140625 509.958007812 1488.4140625 512.455078125 1552.94238281 c 0,45,46
 514.1796875 1598.54785156 514.1796875 1598.54785156 513.706054688 1686.78710938 c 2,47,-1
 513.69921875 1688.17871094 l 1,48,-1
 514.756835938 1689.08300781 l 2,49,50
 553.583007812 1722.28125 553.583007812 1722.28125 586.87890625 1688.79394531 c 2,51,-1
 587.708007812 1687.95996094 l 1,52,-1
 587.749023438 1686.78417969 l 2,53,54
 589.006835938 1650.92871094 589.006835938 1650.92871094 589.624023438 1609.57910156 c 0,0,1
EndSplineSet
EndChar

StartChar: uni0652
Encoding: 1618 1618 50
Width: -31
VWidth: 2789
GlyphClass: 4
Flags: W
AnchorPoint: "Anchor-10" 731.878 1488.92 mark 0
AnchorPoint: "Anchor-9" 731.878 1488.92 mark 0
AnchorPoint: "Anchor-1" 714.956 2018.45 basemark 0
AnchorPoint: "Anchor-1" 731.878 1488.92 mark 0
LayerCount: 2
Fore
SplineSet
720.7421875 1631.81347656 m 0,0,1
 747.363081253 1631.81347656 747.363081253 1631.81347656 769.587359599 1640.85230221 c 128,-1,2
 791.811637945 1649.89112786 791.811637945 1649.89112786 810.010501757 1668.09328831 c 128,-1,3
 828.217605351 1686.29897864 828.217605351 1686.29897864 837.253333926 1708.33818456 c 128,-1,4
 846.2890625 1730.37739049 846.2890625 1730.37739049 846.2890625 1756.6171875 c 0,5,6
 846.2890625 1769.74664425 846.2890625 1769.74664425 844.034257195 1781.80248371 c 128,-1,7
 841.779451891 1793.85832317 841.779451891 1793.85832317 837.249269275 1804.90638027 c 128,-1,8
 832.719086659 1815.95443736 832.719086659 1815.95443736 825.918393824 1825.99660381 c 128,-1,9
 819.11770099 1836.03877026 819.11770099 1836.03877026 810.011295355 1845.1451759 c 0,10,11
 791.810357452 1863.34658474 791.810357452 1863.34658474 769.584654362 1872.38520643 c 128,-1,12
 747.358951272 1881.42382812 747.358951272 1881.42382812 720.73828125 1881.42382812 c 0,13,14
 707.41302264 1881.42382812 707.41302264 1881.42382812 695.233900348 1879.18928914 c 128,-1,15
 683.054778056 1876.95475016 683.054778056 1876.95475016 671.962288601 1872.46794674 c 128,-1,16
 660.869799145 1867.98114331 660.869799145 1867.98114331 650.858924251 1861.25318597 c 128,-1,17
 640.848049358 1854.52522864 640.848049358 1854.52522864 631.843104897 1845.5191074 c 0,18,19
 613.832351415 1827.50882458 613.832351415 1827.50882458 604.884925708 1805.37704382 c 128,-1,20
 595.9375 1783.24526307 595.9375 1783.24526307 595.9375 1756.61914062 c 128,-1,21
 595.9375 1729.99247545 595.9375 1729.99247545 604.884760501 1707.86039004 c 128,-1,22
 613.832021002 1685.72830462 613.832021002 1685.72830462 631.842220728 1667.7181049 c 0,23,24
 643.850922685 1655.70908911 643.850922685 1655.70908911 657.66454688 1647.74164308 c 128,-1,25
 671.478171074 1639.77419704 671.478171074 1639.77419704 687.228259153 1635.7938368 c 128,-1,26
 702.978347231 1631.81347656 702.978347231 1631.81347656 720.7421875 1631.81347656 c 0,0,1
925.496180948 1757.11039035 m 0,27,28
 924.987862551 1670.92740767 924.987862551 1670.92740767 866.309991262 1611.81908984 c 0,29,30
 807.078687999 1551.99289971 807.078687999 1551.99289971 721.462898188 1552.28415073 c 0,31,32
 635.923130738 1551.99289956 635.923130738 1551.99289956 576.636329149 1611.80132409 c 0,33,34
 516.989316232 1670.92664593 516.989316232 1670.92664593 517.430598349 1757.09323326 c 0,35,36
 517.210714313 1799.93347424 517.210714313 1799.93347424 532.045470368 1836.27558539 c 128,-1,37
 546.880226423 1872.61769654 546.880226423 1872.61769654 576.604084034 1901.99250793 c 0,38,39
 635.933360303 1960.99639877 635.933360303 1960.99639877 721.471541333 1961.14452377 c 0,40,41
 738.538811314 1961.11499493 738.538811314 1961.11499493 754.596952325 1958.72592362 c 128,-1,42
 770.655093337 1956.33685231 770.655093337 1956.33685231 785.681467498 1951.59006314 c 128,-1,43
 800.70784166 1946.84327397 800.70784166 1946.84327397 814.684862726 1939.74968877 c 128,-1,44
 828.661883791 1932.65610356 828.661883791 1932.65610356 841.58442479 1923.20717319 c 128,-1,45
 854.506965789 1913.75824282 854.506965789 1913.75824282 866.339929565 1901.97526284 c 0,46,47
 885.846520142 1882.38541892 885.846520142 1882.38541892 898.947214564 1859.69292463 c 128,-1,48
 912.047908986 1837.00043033 912.047908986 1837.00043033 918.687603268 1811.33453487 c 128,-1,49
 925.32729755 1785.66863942 925.32729755 1785.66863942 925.496180948 1757.11039035 c 0,27,28
EndSplineSet
EndChar

StartChar: uni0653
Encoding: 1619 1619 51
Width: -3
VWidth: 2759
GlyphClass: 4
Flags: W
AnchorPoint: "Anchor-10" 485.314 1565.6 mark 0
AnchorPoint: "Anchor-9" 485.314 1565.6 mark 0
AnchorPoint: "Anchor-1" 455.074 2023.52 basemark 0
AnchorPoint: "Anchor-1" 485.314 1565.6 mark 0
LayerCount: 2
Fore
SplineSet
362.12890625 1670.21582031 m 1,0,1
 268 1662 268 1662 177.368164062 1582.37890625 c 1,2,3
 150 1600 150 1600 134.283203125 1620.86230469 c 1,4,5
 215 1831 215 1831 314.73828125 1831.14941406 c 4,6,7
 384 1831 384 1831 465.94140625 1820.47558594 c 132,-1,8
 548 1810 548 1810 582.85546875 1809.96875 c 4,9,10
 708 1810 708 1810 757.977539062 1822.60351562 c 4,11,12
 811 1836 811 1836 820.592773438 1829.48730469 c 5,13,14
 833 1816 833 1816 801.384765625 1769.48925781 c 4,15,16
 776 1733 776 1733 728.657226562 1698.57617188 c 0,17,18
 653 1645 653 1645 362.12890625 1670.21582031 c 1,0,1
EndSplineSet
EndChar

StartChar: uni0657
Encoding: 1623 1623 54
Width: -34
VWidth: 3005
GlyphClass: 4
Flags: W
AnchorPoint: "Anchor-10" 743.995 1752.27 mark 0
AnchorPoint: "Anchor-9" 743.995 1752.27 mark 0
AnchorPoint: "Anchor-1" 743.995 2711.73 basemark 0
AnchorPoint: "Anchor-1" 743.995 1752.27 mark 0
LayerCount: 2
Fore
SplineSet
346.939453125 2337.88791595 m 1,0,1
 417.403375079 2335.96334391 417.403375079 2335.96334391 513.786977564 2326.01391817 c 1,2,3
 596.644642021 2449.75296673 596.644642021 2449.75296673 711.51958869 2521.26743707 c 0,4,5
 871.884004803 2620.16984344 871.884004803 2620.16984344 1014.69238281 2633.57649374 c 1,6,-1
 1014.69238281 2539.58189734 l 1,7,8
 895.963038063 2530.16866458 895.963038063 2530.16866458 724.589569309 2399.0105334 c 0,9,10
 688.65353045 2370.90141887 688.65353045 2370.90141887 658.857611413 2339.53569478 c 2,11,-1
 617.522009126 2296.02409756 l 1,12,-1
 676.403024639 2282.92686625 l 2,13,14
 686.237733178 2280.75670371 686.237733178 2280.75670371 733.408748699 2256.07347266 c 0,15,16
 830.209071663 2204.53763515 830.209071663 2204.53763515 848.677334118 2108.90087834 c 128,-1,17
 867.145596573 2013.26412154 867.145596573 2013.26412154 810.16577341 1943.09467376 c 128,-1,18
 753.185950247 1872.92522599 753.185950247 1872.92522599 653.797822658 1873.45370496 c 128,-1,19
 554.409695068 1873.98218393 554.409695068 1873.98218393 494.203509735 1932.07586924 c 128,-1,20
 433.997324401 1990.16955456 433.997324401 1990.16955456 434.028319766 2093.24464192 c 0,21,22
 433.997294914 2135.23096282 433.997294914 2135.23096282 453.159700588 2196.82184085 c 2,23,-1
 466.05073013 2238.25410581 l 1,24,-1
 422.730291066 2240.81188851 l 2,25,26
 386.110891581 2242.99392773 386.110891581 2242.99392773 346.939453125 2243.61609684 c 1,27,-1
 346.939453125 2337.88791595 l 1,0,1
627.271484375 1967.77539062 m 0,28,29
 752.862304688 1967.77539062 752.862304688 1967.77539062 752.862304688 2075.53710938 c 0,30,31
 752.862304688 2153.13917103 752.862304688 2153.13917103 665.095793259 2188.2493423 c 0,32,33
 634.607589685 2200.45363058 634.607589685 2200.45363058 565.395678366 2221.77574768 c 1,34,-1
 544.508414709 2173.05059243 l 2,35,36
 528.478515625 2135.65078296 528.478515625 2135.65078296 528.478515625 2093.93759995 c 0,37,38
 528.478515625 2052.22441695 528.478515625 2052.22441695 545.744264664 2022.14173716 c 0,39,40
 576.947458757 1967.77539062 576.947458757 1967.77539062 627.271484375 1967.77539062 c 0,28,29
EndSplineSet
EndChar

StartChar: uni065A
Encoding: 1626 1626 55
Width: 1473
VWidth: 3008
GlyphClass: 4
Flags: W
AnchorPoint: "Anchor-10" 743.995 1755.27 mark 0
AnchorPoint: "Anchor-9" 743.995 1755.27 mark 0
AnchorPoint: "Anchor-1" 741.044 2419.52 basemark 0
AnchorPoint: "Anchor-1" 743.995 1755.27 mark 0
LayerCount: 2
Fore
SplineSet
652.322265625 1877.75097656 m 1,0,-1
 401.5234375 2297.03613281 l 1,1,-1
 535.5390625 2297.03613281 l 1,2,-1
 743.995117188 1984.34179688 l 1,3,-1
 952.453125 2297.03613281 l 1,4,-1
 1086.47070312 2297.03613281 l 1,5,-1
 835.666992188 1877.75097656 l 1,6,-1
 652.322265625 1877.75097656 l 1,0,-1
EndSplineSet
EndChar

StartChar: afii57392
Encoding: 1632 1632 56
Width: 897
VWidth: 3201
GlyphClass: 2
Flags: W
LayerCount: 2
Fore
SplineSet
451.256835938 818.629882812 m 5,0,-1
 664.725585938 605.161132812 l 5,1,-1
 445.84765625 386.283203125 l 5,2,-1
 232.37890625 599.752929688 l 5,3,-1
 451.256835938 818.629882812 l 5,0,-1
EndSplineSet
EndChar

StartChar: afii57393
Encoding: 1633 1633 57
Width: 731
VWidth: 3192
GlyphClass: 2
Flags: W
LayerCount: 2
Fore
SplineSet
447.7734375 858.020507812 m 4,0,1
 505 586 505 586 506.737304688 159.875 c 4,2,3
 507 74 507 74 496.20703125 53.439453125 c 4,4,5
 491 43 491 43 393.61328125 17.548828125 c 5,6,7
 392 669 392 669 145.161132812 1231.36523438 c 5,8,-1
 255 1367 l 6,9,10
 280 1398 280 1398 300 1350 c 4,11,12
 391 1129 391 1129 447.7734375 858.020507812 c 4,0,1
EndSplineSet
EndChar

StartChar: afii57394
Encoding: 1634 1634 58
Width: 1095
VWidth: 3192
GlyphClass: 2
Flags: W
LayerCount: 2
Fore
SplineSet
457.7734375 818.020507812 m 5,0,1
 506 589 506 589 506.737304688 159.875 c 4,2,3
 507 74 507 74 496.20703125 53.439453125 c 4,4,5
 491 43 491 43 393.61328125 17.548828125 c 5,6,7
 393 668 393 668 145.827148438 1232.97460938 c 5,8,-1
 252 1365 l 6,9,10
 280 1400 280 1400 297 1355 c 4,11,12
 321 1290 321 1290 366.79296875 1174.97558594 c 4,13,14
 433 1007 433 1007 601.317382812 1007.43457031 c 4,15,16
 821.955078125 1007 821.955078125 1007 854.557617188 1323.85839844 c 6,17,-1
 859.456054688 1371.46484375 l 5,18,-1
 981.645507812 1354.99316406 l 5,19,-1
 979.405273438 1300.97363281 l 6,20,21
 959 803 959 803 579.541015625 804.7734375 c 4,22,23
 514 805 514 805 457.7734375 818.020507812 c 5,0,1
EndSplineSet
EndChar

StartChar: afii57395
Encoding: 1635 1635 59
Width: 1295
VWidth: 3192
GlyphClass: 2
Flags: W
LayerCount: 2
Fore
SplineSet
366.79296875 1174.97558594 m 4,0,1
 434 1007 434 1007 544.548828125 1007.44433594 c 4,2,3
 688 1008 688 1008 697.673828125 1205.43945312 c 6,4,-1
 703.778320312 1332.18359375 l 5,5,-1
 826.91796875 1329.74707031 l 5,6,-1
 831.6328125 1189.51074219 l 6,7,8
 838.138671875 995.999023438 838.138671875 995.999023438 938.743164062 995.64453125 c 4,9,10
 1082 996 1082 996 1082.55371094 1307.04199219 c 6,11,-1
 1082.67675781 1356.07910156 l 5,12,-1
 1204.74707031 1350.83496094 l 5,13,-1
 1204.61523438 1278.93945312 l 6,14,15
 1203.76855469 817 1203.76855469 817 923.176757812 816.4140625 c 4,16,17
 795 816 795 816 727.791992188 925.0078125 c 5,18,19
 655 810 655 810 516.26953125 813.486328125 c 4,20,21
 486 814 486 814 457.7734375 818.020507812 c 5,22,23
 506 589 506 589 506.737304688 159.875 c 4,24,25
 507 74 507 74 496.20703125 53.439453125 c 4,26,27
 491 43 491 43 393.61328125 17.548828125 c 5,28,29
 393 668 393 668 145.827148438 1232.97460938 c 5,30,-1
 252 1365 l 6,31,32
 280 1400 280 1400 297 1355 c 4,33,34
 321 1290 321 1290 366.79296875 1174.97558594 c 4,0,1
EndSplineSet
EndChar

StartChar: afii57396
Encoding: 1636 1636 60
Width: 991
VWidth: 3198
GlyphClass: 2
Flags: W
LayerCount: 2
Fore
SplineSet
285.868164062 317.783203125 m 5,0,1
 503.928710938 228.483398438 503.928710938 228.483398438 853.866210938 240.00390625 c 5,2,-1
 849.522460938 60.3984375 l 6,3,4
 848.447265625 4.6884765625 848.447265625 4.6884765625 804.1875 6.896484375 c 4,5,6
 440.52734375 23.830078125 440.52734375 23.830078125 190.844726562 188.487304688 c 4,7,8
 117.262695312 237.404296875 117.262695312 237.404296875 152.114257812 298.624023438 c 4,9,10
 270.2265625 509.081054688 270.2265625 509.081054688 498.111328125 633.904296875 c 5,11,12
 284.126953125 726.407226562 284.126953125 726.407226562 195.875 829.651367188 c 4,13,14
 130.708007812 904.71484375 130.708007812 904.71484375 146.05078125 949.676757812 c 4,15,16
 210.32421875 1148.58203125 210.32421875 1148.58203125 696.075195312 1357.875 c 4,17,18
 731.268554688 1373.0078125 731.268554688 1373.0078125 734.65625 1359.72949219 c 4,19,20
 737.184570312 1349.80957031 737.184570312 1349.80957031 731.428710938 1322.83105469 c 6,21,-1
 709.149414062 1218.37304688 l 6,22,23
 695.290039062 1153.38574219 695.290039062 1153.38574219 681.697265625 1089.32421875 c 5,24,25
 444.337890625 1076.28417969 444.337890625 1076.28417969 278.137695312 1007.65722656 c 5,26,27
 463.8828125 851.575195312 463.8828125 851.575195312 741.173828125 729.940429688 c 5,28,-1
 741.169921875 728.014648438 l 6,29,30
 741.083007812 688.778320312 741.083007812 688.778320312 740.05078125 645.622070312 c 5,31,32
 420.963867188 507.657226562 420.963867188 507.657226562 285.868164062 317.783203125 c 5,0,1
EndSplineSet
EndChar

StartChar: afii57397
Encoding: 1637 1637 61
Width: 1155
VWidth: 3521
GlyphClass: 2
Flags: W
LayerCount: 2
Fore
SplineSet
575.083984375 1005.37695312 m 5,0,1
 260.649414062 645.939453125 260.649414062 645.939453125 260.649414062 449.29296875 c 4,2,3
 260.649414062 216.416992188 260.649414062 216.416992188 559.005859375 216.416992188 c 4,4,5
 912.870117188 216.416992188 912.870117188 216.416992188 912.870117188 446.188476562 c 4,6,7
 912.870117188 696.848632812 912.870117188 696.848632812 575.083984375 1005.37695312 c 5,0,1
168.6171875 192.970703125 m 4,8,9
 120.8671875 273.374023438 120.8671875 273.374023438 120.8671875 377.942382812 c 4,10,11
 120.8671875 485.7890625 120.8671875 485.7890625 171.657226562 619.337890625 c 4,12,13
 252.619140625 832.22265625 252.619140625 832.22265625 446.086914062 1058.11523438 c 6,14,-1
 472.235351562 1088.64550781 l 5,15,-1
 393.828125 1147.45214844 l 5,16,-1
 518.092773438 1360.69238281 l 5,17,18
 1034.23535156 879.264648438 1034.23535156 879.264648438 1034.23535156 434.078125 c 4,19,20
 1034.23535156 212.92578125 1034.23535156 212.92578125 886.911132812 95.6064453125 c 4,21,22
 778.083984375 9.13671875 778.083984375 9.13671875 569.436523438 9.13671875 c 4,23,24
 277.909179688 9.13671875 277.909179688 9.13671875 168.6171875 192.970703125 c 4,8,9
EndSplineSet
EndChar

StartChar: afii57398
Encoding: 1638 1638 62
Width: 1228
VWidth: 3201
GlyphClass: 2
Flags: W
LayerCount: 2
Fore
SplineSet
900.790039062 1326.5625 m 5,0,1
 920 362 920 362 1108.42871094 162.818359375 c 5,2,-1
 982.625976562 15.7109375 l 5,3,4
 887 112 887 112 831.220703125 330.23828125 c 4,5,6
 775 549 775 549 766.083984375 1126.27929688 c 5,7,8
 317 1089 317 1089 191.764648438 1161.45800781 c 4,9,10
 150 1186 150 1186 147.368164062 1351.57324219 c 4,11,12
 147 1384 147 1384 172.750976562 1374.79003906 c 4,13,14
 455 1268 455 1268 900.790039062 1326.5625 c 5,0,1
EndSplineSet
EndChar

StartChar: afii57399
Encoding: 1639 1639 63
Width: 1203
VWidth: 3202
GlyphClass: 2
Flags: W
LayerCount: 2
Fore
SplineSet
1102.85058594 1220.16992188 m 5,0,1
 801 691 801 691 667.041992188 19.7314453125 c 5,2,-1
 556.290039062 19.7314453125 l 5,3,4
 438 641 438 641 100.879882812 1221.49804688 c 5,5,-1
 198.580078125 1385.19824219 l 6,6,7
 206.227539062 1398.64257812 206.227539062 1398.64257812 218.03515625 1379.60546875 c 4,8,9
 519 875 519 875 611.544921875 373.686523438 c 5,10,11
 741.8125 983.16015625 741.8125 983.16015625 964.40625 1374.61132812 c 4,12,13
 976 1395 976 1395 986.2578125 1383.78027344 c 5,14,-1
 1102.85058594 1220.16992188 l 5,0,1
EndSplineSet
EndChar

StartChar: afii57400
Encoding: 1640 1640 64
Width: 1203
VWidth: 3202
GlyphClass: 2
Flags: W
LayerCount: 2
Fore
SplineSet
1102.85058594 174.759765625 m 5,0,1
 986.2578125 11.1494140625 l 5,2,3
 976 -0.0703125 976 -0.0703125 964.40625 20.318359375 c 4,4,5
 741.8125 411.76953125 741.8125 411.76953125 611.544921875 1021.24316406 c 5,6,7
 519 519.9296875 519 519.9296875 218.03515625 15.32421875 c 4,8,9
 206.227539062 -3.712890625 206.227539062 -3.712890625 198.580078125 9.7314453125 c 6,10,-1
 100.879882812 173.431640625 l 5,11,12
 438 753.9296875 438 753.9296875 556.290039062 1375.19824219 c 5,13,-1
 667.041992188 1375.19824219 l 5,14,15
 801 703.9296875 801 703.9296875 1102.85058594 174.759765625 c 5,0,1
EndSplineSet
EndChar

StartChar: afii57401
Encoding: 1641 1641 65
Width: 1079
VWidth: 3202
GlyphClass: 2
Flags: W
LayerCount: 2
Fore
SplineSet
658.711914062 659.280273438 m 5,0,1
 555 643 555 643 472.115234375 642.609375 c 4,2,3
 137 643 137 643 135.8671875 924.969726562 c 28,4,5
 135 1130 135 1130 232.135742188 1267.31933594 c 4,6,7
 319 1390 319 1390 448.413085938 1390.1484375 c 4,8,9
 571 1390 571 1390 654.024414062 1295.21191406 c 4,10,11
 766 1168 766 1168 778.05859375 876.52734375 c 4,12,13
 802 309 802 309 959.734375 162.061523438 c 5,14,-1
 835.612304688 15.9990234375 l 5,15,16
 773 70 773 70 733.923828125 168.674804688 c 4,17,18
 670 329 670 329 658.711914062 659.280273438 c 5,0,1
329.877929688 864.94140625 m 4,19,20
 379 843 379 843 454.59765625 843.33203125 c 4,21,22
 533 843 533 843 638.646484375 866.412109375 c 5,23,-1
 632.950195312 925.599609375 l 6,24,25
 608 1185 608 1185 440.46484375 1184.91699219 c 4,26,27
 372 1185 372 1185 329.006835938 1120.77636719 c 4,28,29
 284 1053 284 1053 284 962 c 4,30,31
 284 885 284 885 329.877929688 864.94140625 c 4,19,20
EndSplineSet
EndChar

StartChar: afii57381
Encoding: 1642 1642 66
Width: 1154
VWidth: 3432
GlyphClass: 2
Flags: W
LayerCount: 2
Fore
SplineSet
693.860351562 299.670898438 m 4,0,1
 693.860351562 363.270507812 693.860351562 363.270507812 738.379882812 408.850585938 c 4,2,3
 785.020507812 454.430664062 785.020507812 454.430664062 848.620117188 454.430664062 c 4,4,5
 891.020507812 454.430664062 891.020507812 454.430664062 926 433.23046875 c 4,6,7
 962.040039062 412.030273438 962.040039062 412.030273438 982.180664062 377.05078125 c 4,8,9
 1003.37988281 342.0703125 1003.37988281 342.0703125 1003.37988281 299.670898438 c 4,10,11
 1003.37988281 236.0703125 1003.37988281 236.0703125 957.799804688 189.430664062 c 4,12,13
 912.220703125 144.911132812 912.220703125 144.911132812 848.620117188 144.911132812 c 4,14,15
 806.220703125 144.911132812 806.220703125 144.911132812 770.180664062 165.05078125 c 4,16,17
 734.140625 186.250976562 734.140625 186.250976562 714 221.23046875 c 4,18,19
 693.860351562 257.270507812 693.860351562 257.270507812 693.860351562 299.670898438 c 4,0,1
150.024414062 1126.92871094 m 4,20,21
 150 1191 150 1191 194.543945312 1236.10839844 c 4,22,23
 241 1282 241 1282 304.784179688 1281.68847656 c 4,24,25
 347 1282 347 1282 382.1640625 1260.48828125 c 4,26,27
 418 1239 418 1239 438.344726562 1204.30859375 c 4,28,29
 460 1169 460 1169 459.543945312 1126.92871094 c 4,30,31
 460 1063 460 1063 413.963867188 1016.68847656 c 4,32,33
 368 972 368 972 304.784179688 972.168945312 c 4,34,35
 262 972 262 972 226.344726562 992.30859375 c 4,36,37
 190 1014 190 1014 170.1640625 1048.48828125 c 4,38,39
 150 1085 150 1085 150.024414062 1126.92871094 c 4,20,21
823 1381.96875 m 5,40,-1
 967.3828125 1307.58300781 l 5,41,-1
 304.471679688 25.5849609375 l 5,42,-1
 160.638671875 104.627929688 l 5,43,-1
 823 1381.96875 l 5,40,-1
EndSplineSet
EndChar

StartChar: uni066B
Encoding: 1643 1643 67
Width: 908
VWidth: 3435
GlyphClass: 2
Flags: W
LayerCount: 2
Fore
SplineSet
638.796875 639.668945312 m 5,0,-1
 758.693359375 565.4609375 l 5,1,-1
 185.013671875 -390.555664062 l 5,2,-1
 63.0546875 -309.609375 l 5,3,-1
 638.796875 639.668945312 l 5,0,-1
EndSplineSet
EndChar

StartChar: uni066C
Encoding: 1644 1644 68
Width: 559
VWidth: 3387
GlyphClass: 2
Flags: W
LayerCount: 2
Fore
SplineSet
264.901367188 272.616210938 m 4,0,1
 424 274 424 274 413.06640625 69.00390625 c 4,2,3
 400 -180 400 -180 146.916015625 -330.280273438 c 4,4,5
 95 -361 95 -361 75.146484375 -332.004882812 c 4,6,7
 66 -318 66 -318 87.6611328125 -301.541992188 c 4,8,9
 167 -244 167 -244 220.873046875 -158.330078125 c 4,10,11
 275 -73 275 -73 268.471679688 -0.5205078125 c 5,12,-1
 242.151367188 3.568359375 l 5,13,14
 174 8 174 8 141.080078125 52.23046875 c 4,15,16
 110 94 110 94 121.057617188 153.57421875 c 4,17,18
 143 272 143 272 264.901367188 272.616210938 c 4,0,1
EndSplineSet
EndChar

StartChar: afii63167
Encoding: 1645 1645 69
Width: 1734
VWidth: 3186
GlyphClass: 2
Flags: W
LayerCount: 2
Fore
SplineSet
218.536132812 1158.84375 m 1,0,-1
 714.16015625 1158.84375 l 1,1,-1
 868.931640625 1630.06054688 l 1,2,-1
 1023.70019531 1158.84375 l 1,3,-1
 1519.328125 1158.84375 l 1,4,-1
 1118.91503906 866.131835938 l 1,5,-1
 1272.1015625 395.526367188 l 1,6,-1
 868.931640625 686.861328125 l 1,7,-1
 465.758789062 395.526367188 l 1,8,-1
 618.944335938 866.131835938 l 1,9,-1
 218.536132812 1158.84375 l 1,0,-1
EndSplineSet
EndChar

StartChar: uni066E
Encoding: 1646 1646 70
Width: 1788
VWidth: 3745
GlyphClass: 2
Flags: W
AnchorPoint: "Anchor-10" 777.906 1271.55 basechar 0
AnchorPoint: "Anchor-7" 635.812 -212.49 basechar 0
LayerCount: 2
Fore
SplineSet
276.423828125 732.236328125 m 1,0,1
 243 608 243 608 243 516.235351562 c 0,2,3
 243 425 243 425 289.510742188 355.677734375 c 0,4,5
 407 184 407 184 834.504882812 183.982421875 c 0,6,7
 1360 184 1360 184 1516.56835938 311.3046875 c 0,8,9
 1536 327 1536 327 1536.00390625 375.926757812 c 0,10,11
 1536 430 1536 430 1465 639 c 5,12,-1
 1574.24121094 767.98046875 l 6,13,14
 1591 788 1591 788 1613.24121094 744.98046875 c 4,15,16
 1687 604 1687 604 1687.26367188 450.703125 c 0,17,18
 1687 337 1687 337 1644.35449219 247.594726562 c 0,19,20
 1526 2 1526 2 834.224609375 2 c 0,21,22
 486 2 486 2 307.02734375 100.59375 c 0,23,24
 104 213 104 213 104.250976562 457.258789062 c 0,25,26
 104 626 104 626 174.85546875 766.762695312 c 1,27,-1
 276.423828125 732.236328125 l 1,0,1
EndSplineSet
Substitution2: "'init' Initial Forms in Arabic lookup 13 subtable" uni066E.init
Substitution2: "'medi' Medial Forms in Arabic lookup 11 subtable" uni066E.medi
Substitution2: "'fina' Terminal Forms in Arabic lookup 9 subtable" uni066E.fina
EndChar

StartChar: uni066F
Encoding: 1647 1647 71
Width: 1390
VWidth: 3773
GlyphClass: 2
Flags: W
AnchorPoint: "Anchor-10" 537.298 1166.3 basechar 0
AnchorPoint: "Anchor-7" 557.936 -696.213 basechar 0
LayerCount: 2
Fore
SplineSet
971.793945312 563.5078125 m 4,0,1
 856.849609375 563.091796875 856.849609375 563.091796875 821.94140625 424.169921875 c 4,2,3
 814.849609375 396.091796875 814.849609375 396.091796875 815.095703125 372.4453125 c 4,4,5
 814.849609375 296.091796875 814.849609375 296.091796875 889.177734375 276.470703125 c 4,6,7
 927.849609375 266.091796875 927.849609375 266.091796875 974.926757812 266.247070312 c 4,8,9
 1012.84960938 266.091796875 1012.84960938 266.091796875 1055.14453125 272.752929688 c 4,10,11
 1115.84960938 282.091796875 1115.84960938 282.091796875 1149.3125 297.861328125 c 5,12,13
 1138.84960938 437.091796875 1138.84960938 437.091796875 1091.97070312 498.970703125 c 4,14,15
 1043.84960938 563.091796875 1043.84960938 563.091796875 971.793945312 563.5078125 c 4,0,1
660.970703125 -437.53125 m 4,16,17
 448 -438 448 -438 302.004882812 -345.916015625 c 4,18,19
 102 -219 102 -219 101.669921875 66.2431640625 c 4,20,21
 102 270 102 270 199.797851562 486.2734375 c 5,22,-1
 310.059570312 453.734375 l 5,23,24
 253 266 253 266 252.885742188 114.515625 c 4,25,26
 253 -258 253 -258 667.818359375 -257.944335938 c 4,27,28
 991 -258 991 -258 1113.20117188 -58.7724609375 c 4,29,30
 1146 -5 1146 -5 1150.0390625 103.715820312 c 5,31,32
 941 59 941 59 812.21484375 112.594726562 c 4,33,34
 684 166 684 166 684.176757812 317.1328125 c 4,35,36
 685 430 685 430 719.049804688 521.091796875 c 4,37,38
 806 752 806 752 979.713867188 752.084960938 c 4,39,40
 1095 752 1095 752 1168 667.349609375 c 4,41,42
 1290 526 1290 526 1290 190 c 12,43,44
 1290 -108 1290 -108 1177.30566406 -240.540039062 c 4,45,46
 1011 -436 1011 -436 660.970703125 -437.53125 c 4,16,17
EndSplineSet
Substitution2: "'init' Initial Forms in Arabic lookup 13 subtable" uni066F.init
Substitution2: "'medi' Medial Forms in Arabic lookup 11 subtable" uni066F.medi
Substitution2: "'fina' Terminal Forms in Arabic lookup 9 subtable" uni066F.fina
EndChar

StartChar: uni0670
Encoding: 1648 1648 72
Width: 0
VWidth: 2975
GlyphClass: 4
Flags: W
AnchorPoint: "Anchor-10" 756.062 1750.01 mark 0
AnchorPoint: "Anchor-9" 756.062 1750.01 mark 0
AnchorPoint: "Anchor-1" 744.304 2347.37 basemark 0
AnchorPoint: "Anchor-1" 756.062 1750.01 mark 0
LayerCount: 2
Fore
SplineSet
738.67578125 1809.56933594 m 1,0,-1
 684.276367188 2193.83203125 l 5,1,-1
 804.50390625 2264.63378906 l 5,2,-1
 804.50390625 1831.46679688 l 1,3,-1
 738.67578125 1809.56933594 l 1,0,-1
EndSplineSet
EndChar

StartChar: uni0674
Encoding: 1652 1652 73
Width: 802
VWidth: 2756
GlyphClass: 2
Flags: W
LayerCount: 2
Fore
SplineSet
200 1791 m 1,0,-1
 221.146484375 1925.98632812 l 1,1,2
 269 1947 269 1947 316.619140625 1968.37402344 c 1,3,4
 210.905273438 1989.77929688 210.905273438 1989.77929688 210.905273438 2098.83886719 c 0,5,6
 210.905273438 2115.24707031 210.905273438 2115.24707031 213.297851562 2133.63964844 c 0,7,8
 241.799804688 2345.50976562 241.799804688 2345.50976562 413.3359375 2345.50976562 c 0,9,10
 414.54296875 2345.50976562 414.54296875 2345.50976562 415.756835938 2345.49902344 c 0,11,12
 491 2345 491 2345 565.873046875 2272.95019531 c 1,13,-1
 530.676757812 2192.19726562 l 1,14,15
 465.807617188 2212.1796875 465.807617188 2212.1796875 417.979492188 2212.1796875 c 0,16,17
 346.602539062 2212.1796875 346.602539062 2212.1796875 313.178710938 2167.67675781 c 0,18,19
 297 2146 297 2146 309.153320312 2117.02734375 c 0,20,21
 339.397460938 2045.9609375 339.397460938 2045.9609375 433.291992188 2045.9609375 c 0,22,23
 475.51953125 2045.9609375 475.51953125 2045.9609375 530.62109375 2060.33496094 c 0,24,25
 586.041992188 2075.01074219 586.041992188 2075.01074219 586 2057 c 2,26,-1
 585.750976562 1950.01269531 l 1,27,28
 470 1920 470 1920 200 1791 c 1,0,-1
EndSplineSet
EndChar

StartChar: uni06A1
Encoding: 1697 1697 77
Width: 1728
VWidth: 3773
GlyphClass: 2
Flags: W
AnchorPoint: "Anchor-10" 739.706 1448.19 basechar 0
AnchorPoint: "Anchor-7" 613.293 -197.962 basechar 0
LayerCount: 2
Fore
SplineSet
1303.828125 835.401367188 m 0,0,1
 1188.88378906 834.985351562 1188.88378906 834.985351562 1153.97558594 696.063476562 c 0,2,3
 1146.88378906 667.985351562 1146.88378906 667.985351562 1147.12988281 644.338867188 c 0,4,5
 1146.88378906 567.985351562 1146.88378906 567.985351562 1221.21191406 548.364257812 c 0,6,7
 1259.88378906 537.985351562 1259.88378906 537.985351562 1306.9609375 538.140625 c 0,8,9
 1344.88378906 537.985351562 1344.88378906 537.985351562 1387.17871094 544.646484375 c 0,10,11
 1447.88378906 553.985351562 1447.88378906 553.985351562 1481.34667969 569.754882812 c 1,12,13
 1470.88378906 708.985351562 1470.88378906 708.985351562 1424.00488281 770.864257812 c 0,14,15
 1375.88378906 834.985351562 1375.88378906 834.985351562 1303.828125 835.401367188 c 0,0,1
1079.34570312 1.9853515625 m 2,16,17
 815.678710938 2 l 0,18,19
 477 2 477 2 305.037109375 98.587890625 c 0,20,21
 104 212 104 212 104.243164062 454.830078125 c 0,22,23
 104 625 104 625 174.85546875 766.762695312 c 1,24,-1
 276.431640625 732.233398438 l 1,25,26
 244 613 244 613 243.690429688 523.778320312 c 0,27,28
 244 424 244 424 284.80859375 362.3515625 c 0,29,30
 403 183 403 183 818.309570312 184.650390625 c 0,31,32
 966 185 966 185 1074.890625 185.984375 c 4,33,34
 1484.84987948 185.99999428 1484.84987948 185.99999428 1482.16113281 379.291015625 c 2,35,36
 1482.07324219 385.609375 l 1,37,38
 1384 365 1384 365 1312.02539062 365.303710938 c 0,39,40
 1217 365 1217 365 1144.24902344 394.48828125 c 0,41,42
 1016 448 1016 448 1016.20996094 588.258789062 c 0,43,44
 1016 700 1016 700 1051.08398438 792.985351562 c 0,45,46
 1139 1024 1139 1024 1311.74804688 1023.97851562 c 0,47,48
 1428 1024 1428 1024 1497.04394531 937.787109375 c 0,49,50
 1627 776 1627 776 1626.42773438 484.728515625 c 0,51,52
 1626 304 1626 304 1577.88378906 211.7734375 c 0,53,54
 1469 2 1469 2 1079.34570312 1.9853515625 c 2,16,17
EndSplineSet
Substitution2: "'init' Initial Forms in Arabic lookup 13 subtable" uni06A1.init
Substitution2: "'medi' Medial Forms in Arabic lookup 11 subtable" uni06A1.medi
Substitution2: "'fina' Terminal Forms in Arabic lookup 9 subtable" uni06A1.fina
EndChar

StartChar: uni06A9
Encoding: 1705 1705 78
Width: 1892
VWidth: 3745
GlyphClass: 2
Flags: W
AnchorPoint: "Anchor-7" 798.705 -205.915 basechar 0
AnchorPoint: "Anchor-10" 1045.48 1390.04 basechar 0
LayerCount: 2
Fore
SplineSet
1625.22460938 413.499023438 m 24,0,1
 1626 382 1626 382 1619.92675781 355.356445312 c 0,2,3
 1568 123 1568 123 1175.22167969 37.54296875 c 0,4,5
 1012 2 1012 2 808.87890625 2 c 0,6,7
 477 2 477 2 305.037109375 98.587890625 c 0,8,9
 104 210 104 210 104.243164062 454.830078125 c 0,10,11
 104 625 104 625 174.85546875 766.762695312 c 1,12,-1
 276.431640625 732.233398438 l 1,13,14
 244 613 244 613 243.690429688 523.778320312 c 0,15,16
 244 424 244 424 284.80859375 362.3515625 c 0,17,18
 402 185 402 185 825.046875 184.487304688 c 0,19,20
 1229 184 1229 184 1419.8984375 320.056640625 c 0,21,22
 1484 366 1484 366 1484.43847656 405.203125 c 0,23,24
 1484 511 1484 511 955.662109375 955.13671875 c 1,25,-1
 992.662109375 1143.13671875 l 1,26,-1
 1797.38769531 1436.50878906 l 2,27,28
 1838.63940084 1451.86575803 1838.63940084 1451.86575803 1831.7734375 1408.34667969 c 2,29,-1
 1809 1264 l 1,30,-1
 1136 1033 l 1,31,32
 1620 600 1620 600 1625.22460938 413.499023438 c 24,0,1
EndSplineSet
Substitution2: "'init' Initial Forms in Arabic lookup 13 subtable" uniFB90
Substitution2: "'medi' Medial Forms in Arabic lookup 11 subtable" uniFB91
Substitution2: "'fina' Terminal Forms in Arabic lookup 9 subtable" uniFB8F
EndChar

StartChar: afii57509
Encoding: 1711 1711 79
Width: 1904
VWidth: 3749
GlyphClass: 2
Flags: W
AnchorPoint: "Anchor-7" 798.705 -205.915 basechar 0
AnchorPoint: "Anchor-10" 1014.82 1535.24 basechar 0
LayerCount: 2
Fore
SplineSet
1430.1171875 434 m 4,0,1
 1374 549 1374 549 958.662109375 895.13671875 c 5,2,-1
 995.662109375 1083.13671875 l 5,3,-1
 1800.38769531 1376.50878906 l 6,4,5
 1841.63940084 1391.86575803 1841.63940084 1391.86575803 1834.7734375 1348.34667969 c 6,6,-1
 1812 1204 l 5,7,-1
 1139 973 l 5,8,9
 1578 596 1578 596 1577.85253906 405.530273438 c 4,10,11
 1578 261 1578 261 1412.97949219 152.033203125 c 4,12,13
 1184 2 1184 2 825.678710938 2 c 4,14,15
 477 2 477 2 305.037109375 98.587890625 c 4,16,17
 104 211 104 211 104.250976562 457.248046875 c 4,18,19
 104 626 104 626 174.85546875 766.762695312 c 5,20,-1
 276.431640625 732.233398438 l 5,21,22
 244 613 244 613 243.690429688 523.778320312 c 4,23,24
 244 424 244 424 284.80859375 362.3515625 c 4,25,26
 402 183 402 183 816.842773438 183.408203125 c 4,27,28
 1138 183 1138 183 1352.39257812 310.252929688 c 4,29,30
 1396 336 1396 336 1429.25 379 c 4,31,32
 1446 401 1446 401 1430.1171875 434 c 4,0,1
EndSplineSet
Refer: 270 -1 N 1.1342 0 0 1.1342 962.298 -757.187 2
Substitution2: "'init' Initial Forms in Arabic lookup 13 subtable" uniFB94
Substitution2: "'medi' Medial Forms in Arabic lookup 11 subtable" uniFB95
Substitution2: "'fina' Terminal Forms in Arabic lookup 9 subtable" uniFB93
EndChar

StartChar: afii57514
Encoding: 1722 1722 80
Width: 1395
VWidth: 3745
GlyphClass: 2
Flags: W
LayerCount: 2
Fore
SplineSet
1271 -42.876953125 m 0,0,1
 1148 -399 1148 -399 666.965820312 -398.86328125 c 0,2,3
 453.891304348 -398.931691518 453.891304348 -398.931691518 308 -307.248046875 c 0,4,5
 108 -181 108 -181 107.665039062 104.911132812 c 0,6,7
 108 309 108 309 205.79296875 524.94140625 c 1,8,-1
 316.0546875 492.40234375 l 1,9,10
 259 305 259 305 258.880859375 153.18359375 c 0,11,12
 259 -219 259 -219 673.813476562 -219.276367188 c 0,13,14
 987 -219 987 -219 1109.19140625 -24.3876953125 c 0,15,16
 1146.53699038 35.260483372 1146.53699038 35.260483372 1146.53699038 122.824476667 c 0,17,18
 1146.53699038 235.984009688 1146.53699038 235.984009688 1023.66699219 468.455078125 c 1,19,-1
 1120.31640625 614.686523438 l 1,20,21
 1129 627 1129 627 1138.31347656 626.528320312 c 4,22,23
 1149 627 1149 627 1171.24511719 585.676757812 c 0,24,25
 1300.55930939 341.050219696 1300.55930939 341.050219696 1300.55930939 139.729362926 c 0,26,27
 1300.55930939 43.4766861687 1300.55930939 43.4766861687 1271 -42.876953125 c 0,0,1
EndSplineSet
Substitution2: "'init' Initial Forms in Arabic lookup 13 subtable" uni06BA.init
Substitution2: "'medi' Medial Forms in Arabic lookup 11 subtable" uni06BA.medi
Substitution2: "'fina' Terminal Forms in Arabic lookup 9 subtable" uniFB9F
EndChar

StartChar: uni06F4
Encoding: 1780 1780 87
Width: 1190
VWidth: 2927
GlyphClass: 2
Flags: W
LayerCount: 2
Fore
SplineSet
366.79296875 1174.97558594 m 2,0,1
 417.473188644 1044.25071416 417.473188644 1044.25071416 539.344726562 986.250976562 c 5,2,3
 502 1110 502 1110 542.553710938 1213.13378906 c 0,4,5
 608 1377 608 1377 800.041992188 1375.86035156 c 0,6,7
 930 1375 930 1375 1026.4140625 1259.35058594 c 1,8,-1
 987.004882812 1184.83886719 l 5,9,10
 784 1262 784 1262 692.620117188 1154.87109375 c 4,11,12
 649 1103 649 1103 649.21875 1025.10644531 c 4,13,14
 650 948 650 948 718.311523438 928.014648438 c 4,15,16
 855 889 855 889 1042.62695312 948.721679688 c 5,17,-1
 1066.95507812 801.215820312 l 5,18,19
 939 740 939 740 791.049804688 742.102539062 c 4,20,21
 577 745 577 745 453.870117188 844.592773438 c 5,22,23
 506 597 506 597 506.737304688 159.875 c 0,24,25
 507 74 507 74 496.20703125 53.439453125 c 0,26,27
 491 43 491 43 393.61328125 17.548828125 c 1,28,29
 393 668 393 668 145.827148438 1232.97460938 c 1,30,-1
 252 1365 l 2,31,32
 280 1400 280 1400 297 1355 c 0,33,34
 366 1176 366 1176 366.79296875 1174.97558594 c 2,0,1
EndSplineSet
PairPos2: "'kern' Horizontal Kerning lookup 15-5" uni06F8 dx=-70 dy=0 dh=-70 dv=0 dx=0 dy=0 dh=0 dv=0
PairPos2: "'kern' Horizontal Kerning lookup 15-5" uni06F5 dx=-70 dy=0 dh=-70 dv=0 dx=0 dy=0 dh=0 dv=0
EndChar

StartChar: uni06F5
Encoding: 1781 1781 88
Width: 1232
VWidth: 3002
GlyphClass: 2
Flags: W
LayerCount: 2
Fore
SplineSet
655.6015625 465.672851562 m 5,0,1
 686 335 686 335 737.65234375 272.287109375 c 4,2,3
 789 209 789 209 855.6640625 209.883789062 c 4,4,5
 1057 211 1057 211 931.78125 547.450195312 c 4,6,7
 844 784 844 784 585.158203125 1051.31445312 c 5,8,9
 456 856 456 856 412.131835938 773.2734375 c 4,10,11
 209 386 209 386 267.619140625 264.333007812 c 4,12,13
 294 209 294 209 372.471679688 209.78125 c 4,14,15
 523 211 523 211 586.21875 466.798828125 c 5,16,-1
 655.6015625 465.672851562 l 5,0,1
622.801757812 215.260742188 m 5,17,18
 553 25 553 25 372.241210938 25.244140625 c 4,19,20
 127 25 127 25 124.090820312 310.327148438 c 4,21,22
 120 632 120 632 477.743164062 1171.65917969 c 5,23,-1
 432.880859375 1212.0234375 l 5,24,-1
 520.795898438 1367.62109375 l 6,25,26
 537 1396 537 1396 564.090820312 1369.24511719 c 4,27,28
 1111 828 1111 828 1111.59277344 339.73828125 c 4,29,30
 1112 25 1112 25 863.1796875 25.646484375 c 4,31,32
 701 26 701 26 622.801757812 215.260742188 c 5,17,18
EndSplineSet
PairPos2: "'kern' Horizontal Kerning lookup 15-5" uni06F0 dx=-30 dy=0 dh=-30 dv=0 dx=0 dy=0 dh=0 dv=0
PairPos2: "'kern' Horizontal Kerning lookup 15-5" uni06F7 dx=-70 dy=0 dh=-70 dv=0 dx=0 dy=0 dh=0 dv=0
PairPos2: "'kern' Horizontal Kerning lookup 15-5" uni06F6 dx=-70 dy=0 dh=-70 dv=0 dx=0 dy=0 dh=0 dv=0
PairPos2: "'kern' Horizontal Kerning lookup 15-5" uni06F4 dx=-70 dy=0 dh=-70 dv=0 dx=0 dy=0 dh=0 dv=0
PairPos2: "'kern' Horizontal Kerning lookup 15-5" uni06F3 dx=-100 dy=0 dh=-100 dv=0 dx=0 dy=0 dh=0 dv=0
PairPos2: "'kern' Horizontal Kerning lookup 15-5" uni06F2 dx=-100 dy=0 dh=-100 dv=0 dx=0 dy=0 dh=0 dv=0
EndChar

StartChar: uni06F6
Encoding: 1782 1782 89
Width: 1041
VWidth: 3202
GlyphClass: 2
Flags: W
LayerCount: 2
Fore
SplineSet
744.625976562 1139.0390625 m 5,0,1
 610 1174 610 1174 541.01953125 1173.80664062 c 4,2,3
 401 1174 401 1174 322.94921875 1075.84863281 c 4,4,5
 254 989 254 989 290.095703125 935.822265625 c 4,6,7
 372 813 372 813 635.96484375 810.333007812 c 4,8,9
 664 810 664 810 712.595703125 843.334960938 c 4,10,11
 862 944 862 944 906 946 c 4,12,13
 932.635742188 946.986328125 932.635742188 946.986328125 925.780273438 917.415039062 c 6,14,-1
 883.491210938 734.998046875 l 5,15,16
 568 601 568 601 206.235351562 -7.7802734375 c 5,17,-1
 132.798828125 81.7099609375 l 5,18,19
 293 422 293 422 454.2421875 635.724609375 c 5,20,21
 136 703 136 703 134.372070312 939 c 4,22,23
 134 1013 134 1013 176.423828125 1111.20703125 c 4,24,25
 287 1367 287 1367 532.040039062 1366.44433594 c 4,26,27
 677 1366 677 1366 793.365234375 1262.99707031 c 5,28,-1
 744.625976562 1139.0390625 l 5,0,1
EndSplineSet
EndChar

StartChar: uniFB8F
Encoding: 64399 64399 104
Width: 2123
VWidth: 3745
GlyphClass: 2
Flags: W
AnchorPoint: "Anchor-7" 798.705 -205.915 basechar 0
AnchorPoint: "Anchor-10" 975.484 1391.04 basechar 0
LayerCount: 2
Fore
SplineSet
1656 496 m 4,0,1
 1922.00083526 184.999023438 1922.00083526 184.999023438 2115.71289062 184.999023438 c 2,2,-1
 2128 184.999023438 l 2,3,4
 2153.34082031 185.000013313 2153.34082031 185.000013313 2153.34082031 102 c 2,5,-1
 2153.34082031 77 l 2,6,7
 2153 0 2153 0 2128 0 c 2,8,-1
 2116.13769531 0 l 2,9,10
 1863 0 1863 0 1610 320.702148438 c 1,11,12
 1538 116 1538 116 1175.22167969 37.54296875 c 0,13,14
 1012 2 1012 2 808.87890625 2 c 0,15,16
 477 2 477 2 305.037109375 98.587890625 c 0,17,18
 104 210 104 210 104.243164062 454.830078125 c 0,19,20
 104 625 104 625 174.85546875 766.762695312 c 1,21,-1
 276.431640625 732.233398438 l 1,22,23
 244 613 244 613 243.690429688 523.778320312 c 0,24,25
 244 424 244 424 284.80859375 362.3515625 c 0,26,27
 401 185 401 185 825.046875 184.487304688 c 0,28,29
 1228 184 1228 184 1419.8984375 320.056640625 c 0,30,31
 1484 366 1484 366 1484.43847656 405.203125 c 0,32,33
 1484 511 1484 511 955.662109375 955.13671875 c 1,34,-1
 992.662109375 1143.13671875 l 1,35,-1
 1797.38769531 1436.50878906 l 2,36,37
 1838.63940084 1451.86575803 1838.63940084 1451.86575803 1831.7734375 1408.34667969 c 2,38,-1
 1809 1264 l 1,39,-1
 1136 1033 l 1,40,41
 1387 810 1387 810 1656 496 c 4,0,1
EndSplineSet
EndChar

StartChar: uniFB93
Encoding: 64403 64403 108
Width: 2064
VWidth: 3749
GlyphClass: 2
Flags: W
AnchorPoint: "Anchor-7" 798.705 -205.915 basechar 0
AnchorPoint: "Anchor-10" 1012.82 1505.24 basechar 0
LayerCount: 2
Fore
SplineSet
1620 482.262114694 m 4,0,1
 1875.61473188 184.008501812 1875.61473188 184.008501812 2053.82617188 184.065429688 c 6,2,-1
 2069 184.036132812 l 2,3,4
 2093.95214844 184.00006916 2093.95214844 184.00006916 2093.95214844 102 c 2,5,-1
 2093.95214844 77 l 2,6,7
 2094 0 2094 0 2069 0 c 2,8,-1
 2056.37109375 0 l 2,9,10
 1821 0 1821 0 1568.28808594 310 c 1,11,12
 1531 223 1531 223 1422.97949219 152.033203125 c 0,13,14
 1194 2 1194 2 825.678710938 2 c 0,15,16
 477 2 477 2 305.037109375 98.587890625 c 0,17,18
 104 211 104 211 104.250976562 457.248046875 c 0,19,20
 104 626 104 626 174.85546875 766.762695312 c 1,21,-1
 276.431640625 732.233398438 l 1,22,23
 244 613 244 613 243.690429688 523.778320312 c 0,24,25
 244 184 244 184 796.842773438 183.408203125 c 0,26,27
 1148 183 1148 183 1362.39257812 310.252929688 c 0,28,29
 1406 336 1406 336 1439.25 379 c 0,30,31
 1456 401 1456 401 1440.1171875 434 c 0,32,33
 1384 549 1384 549 968.662109375 895.13671875 c 1,34,-1
 1005.66210938 1083.13671875 l 1,35,-1
 1810.38769531 1376.50878906 l 2,36,37
 1851.63940084 1391.86575803 1851.63940084 1391.86575803 1844.7734375 1348.34667969 c 2,38,-1
 1822 1204 l 1,39,-1
 1149 973 l 5,40,41
 1335.70130152 813.984442815 1335.70130152 813.984442815 1620 482.262114694 c 4,0,1
EndSplineSet
Refer: 270 -1 N 1.1342 0 0 1.1342 972.298 -757.187 2
EndChar

StartChar: uniFB94
Encoding: 64404 64404 109
Width: 974
VWidth: 3749
GlyphClass: 2
Flags: W
AnchorPoint: "Anchor-10" 280.398 1605.11 basechar 0
AnchorPoint: "Anchor-7" 334.15 -239.938 basechar 0
LayerCount: 2
Fore
SplineSet
38.662109375 895.13671875 m 5,0,-1
 75.662109375 1083.13671875 l 5,1,-1
 880.387695312 1376.50878906 l 6,2,3
 921.639400838 1391.86575803 921.639400838 1391.86575803 914.7734375 1348.34667969 c 6,4,-1
 892 1204 l 5,5,-1
 219 973 l 5,6,7
 668 597 668 597 667.879916039 402.224418951 c 0,8,9
 668 268 668 268 577.831054688 175.669921875 c 0,10,11
 406 0 406 0 28.2861328125 0 c 2,12,-1
 -5 0 l 2,13,14
 -60.3662109375 0 -60.3662109375 0 -60.3662109375 77 c 2,15,-1
 -60.3662109375 102 l 2,16,17
 -60.0000115632 183.997410819 -60.0000115632 183.997410819 -5 183.999023438 c 2,18,-1
 28.306640625 184 l 2,19,20
 345 184 345 184 475.739257812 304.487304688 c 0,21,22
 524 349 524 349 524.442769605 387.675711949 c 0,23,24
 524 492 524 492 38.662109375 895.13671875 c 5,0,-1
EndSplineSet
Refer: 270 -1 S 1.1342 0 0 1.1342 42.298 -757.187 2
EndChar

StartChar: uniFB95
Encoding: 64405 64405 110
Width: 1135
VWidth: 3749
GlyphClass: 2
Flags: W
AnchorPoint: "Anchor-10" 264.398 1613.11 basechar 0
AnchorPoint: "Anchor-7" 319.424 -241.288 basechar 0
LayerCount: 2
Fore
SplineSet
1122.82617188 184.065429688 m 6,0,-1
 1140 184 l 2,1,2
 1165 184 1165 184 1165 102 c 2,3,-1
 1165 77 l 2,4,5
 1165 0 1165 0 1140 0 c 2,6,-1
 1114.38378906 0 l 2,7,8
 899 0 899 0 653.334960938 301 c 1,9,10
 632 231 632 231 577.831054688 175.669921875 c 0,11,12
 406 0 406 0 28.2861328125 0 c 2,13,-1
 -5 0 l 2,14,15
 -60.3662109375 0 -60.3662109375 0 -60.3662109375 77 c 2,16,-1
 -60.3662109375 102 l 2,17,18
 -60.0000115632 183.997410819 -60.0000115632 183.997410819 -5 183.999023438 c 2,19,-1
 28.306640625 184 l 2,20,21
 345 184 345 184 475.739257812 304.487304688 c 0,22,23
 524 349 524 349 524.442769605 387.675711949 c 0,24,25
 524 492 524 492 38.662109375 895.13671875 c 1,26,-1
 75.662109375 1083.13671875 l 1,27,-1
 880.387695312 1376.50878906 l 2,28,29
 921.639400838 1391.86575803 921.639400838 1391.86575803 914.7734375 1348.34667969 c 2,30,-1
 892 1204 l 1,31,-1
 218 973 l 5,32,33
 404.701171875 813.984375 404.701171875 813.984375 689 482.26171875 c 4,34,35
 945 185 945 185 1122.82617188 184.065429688 c 6,0,-1
EndSplineSet
Refer: 270 -1 N 1.1342 0 0 1.1342 42.298 -757.187 2
EndChar

StartChar: uniFB9F
Encoding: 64415 64415 112
Width: 1453
VWidth: 3744
GlyphClass: 2
Flags: W
AnchorPoint: "Anchor-10" 576.655 1006.5 basechar 0
AnchorPoint: "Anchor-7" 451.87 -1007.65 basechar 0
LayerCount: 2
Fore
SplineSet
1458.19824219 184.999023438 m 6,0,1
 1483 184.999023438 1483 184.999023438 1483 102 c 6,2,-1
 1483 77 l 6,3,4
 1483 0 1483 0 1458 0 c 6,5,-1
 1436.578125 0 l 6,6,7
 1339 0 1339 0 1298 48 c 5,8,9
 1298 -76 1298 -76 1261 -185.876840953 c 0,10,11
 1135.37166591 -538.985253998 1135.37166591 -538.985253998 666.965820312 -538.86328125 c 0,12,13
 454 -539 454 -539 308 -447.248046875 c 0,14,15
 108 -321 108 -321 107.665039062 -35.0888671875 c 0,16,17
 108 169 108 169 205.79296875 384.94140625 c 1,18,-1
 316.0546875 352.40234375 l 1,19,20
 259 165 259 165 258.880859375 13.18359375 c 0,21,22
 259 -359 259 -359 673.813476562 -359.276367188 c 0,23,24
 987 -359 987 -359 1109.19140625 -164.387695312 c 0,25,26
 1147 -104 1147 -104 1146.53173608 -15 c 0,27,28
 1146 97 1146 97 1023.66699219 328.455078125 c 5,29,-1
 1120.31640625 474.686523438 l 5,30,31
 1129 487 1129 487 1138.31347656 486.528320312 c 4,32,33
 1152 487 1152 487 1171.24511719 445.676757812 c 4,34,35
 1222 339 1222 339 1257.33007812 279.373046875 c 4,36,37
 1314.00058641 184.999023438 1314.00058641 184.999023438 1426.828125 184.999023438 c 6,38,-1
 1458.19824219 184.999023438 l 6,0,1
EndSplineSet
EndChar

StartChar: uniFBE8
Encoding: 64488 64488 115
Width: 626
VWidth: 3744
GlyphClass: 2
Flags: W
AnchorPoint: "Anchor-10" 323.261 1301.53 basechar 0
AnchorPoint: "Anchor-7" 350.876 -259.541 basechar 0
LayerCount: 2
Fore
SplineSet
-5 183.999023438 m 6,0,-1
 97.8056640625 183.999023438 l 6,1,2
 374 184 374 184 373.414330488 346.75148935 c 4,3,4
 373 435 373 435 301 636 c 5,5,-1
 412.000976562 763.575195312 l 6,6,7
 427 781 427 781 447.000976562 738.575195312 c 4,8,9
 525 578 525 578 525.099087467 393.558831594 c 4,10,11
 525 237 525 237 443.703125 137.951171875 c 4,12,13
 330 0 330 0 100.708007812 0 c 6,14,-1
 -5 0 l 6,15,16
 -60.3662109375 0 -60.3662109375 0 -60.3662109375 77 c 6,17,-1
 -60.3662109375 102 l 6,18,19
 -60 184 -60 184 -5 183.999023438 c 6,0,-1
EndSplineSet
EndChar

StartChar: uniFBE9
Encoding: 64489 64489 116
Width: 728
VWidth: 3744
GlyphClass: 2
Flags: W
AnchorPoint: "Anchor-10" 391.618 1159.37 basechar 0
AnchorPoint: "Anchor-7" 371.317 -218.507 basechar 0
LayerCount: 2
Fore
SplineSet
-5 183.999023438 m 2,0,-1
 125.18359375 183.999023438 l 2,1,2
 326.284372622 184.000001383 326.284372622 184.000001383 344.15625 334.38671875 c 6,3,-1
 367.440429688 530.31640625 l 5,4,-1
 481.720703125 530.369140625 l 5,5,-1
 505.733398438 333.099609375 l 6,6,7
 524.001236602 183.989906337 524.001236602 183.989906337 713.682617188 183.999023438 c 6,8,-1
 734 184 l 6,9,10
 758 184 758 184 758 102 c 6,11,-1
 758 77 l 6,12,13
 758 0 758 0 734 0 c 6,14,-1
 715.583007812 0 l 6,15,16
 506 0 506 0 424.059570312 130.338867188 c 5,17,18
 330 0 330 0 129.834960938 0 c 2,19,-1
 -5 0 l 2,20,21
 -60.3662109375 0 -60.3662109375 0 -60.3662109375 77 c 2,22,-1
 -60.3662109375 102 l 2,23,24
 -60 184 -60 184 -5 183.999023438 c 2,0,-1
EndSplineSet
EndChar

StartChar: uniFE73
Encoding: 65139 65139 124
Width: 785
VWidth: 3435
GlyphClass: 2
Flags: W
AnchorPoint: "Anchor-10" 369.315 1241.89 basechar 0
AnchorPoint: "Anchor-7" 377.315 -188.464 basechar 0
LayerCount: 2
Fore
SplineSet
309.139648438 464.073242188 m 2,0,1
 309.139648438 180.26953125 309.139648438 180.26953125 698.9453125 180.26953125 c 2,2,-1
 790.182617188 180.26953125 l 1,3,-1
 790.182617188 2.6162109375 l 1,4,-1
 686.444335938 2.6162109375 l 2,5,6
 101.489257812 3.35604798321 101.489257812 3.35604798321 101.489257812 443.893554688 c 2,7,-1
 101.489257812 481.309570312 l 1,8,-1
 309.139648438 481.309570312 l 1,9,-1
 309.139648438 464.073242188 l 2,0,1
EndSplineSet
EndChar

StartChar: uniFE8E
Encoding: 65166 65166 150
Width: 511
VWidth: 3705
GlyphClass: 2
Flags: W
AnchorPoint: "Anchor-10" 155.896 1584.31 basechar 0
AnchorPoint: "Anchor-7" 240.473 -229.464 basechar 0
LayerCount: 2
Fore
SplineSet
517 0 m 6,0,-1
 482.934570312 0 l 6,1,2
 165 0 165 0 147.728515625 350 c 4,3,4
 142 465 142 465 139.518554688 764.955078125 c 4,5,6
 137 1059 137 1059 109.987304688 1329.0390625 c 5,7,-1
 236 1416 l 6,8,9
 263 1435 263 1435 266 1387 c 4,10,11
 285 1145 285 1145 280.779296875 572.400390625 c 4,12,13
 279 298 279 298 325.942382812 237.354492188 c 4,14,15
 366.003802546 183.994935223 366.003802546 183.994935223 487.885742188 183.999023438 c 6,16,-1
 517 184 l 6,17,18
 541 184 541 184 541 102 c 6,19,-1
 541 77 l 6,20,21
 541 0 541 0 517 0 c 6,0,-1
EndSplineSet
EndChar

StartChar: uniFEA2
Encoding: 65186 65186 170
Width: 1319
VWidth: 3739
GlyphClass: 2
Flags: W
AnchorPoint: "Anchor-7" 562.136 -813.44 basechar 0
AnchorPoint: "Anchor-10" 589.972 1252.02 basechar 0
LayerCount: 2
Fore
SplineSet
1144.33007812 453.348632812 m 5,0,1
 1052 442 1052 442 997.987304688 435.309570312 c 5,2,3
 1016 184 1016 184 1304.82714844 184 c 2,4,-1
 1325 184 l 2,5,6
 1349 184 1349 184 1349 102 c 2,7,-1
 1349 77 l 2,8,9
 1349 0 1349 0 1325 0 c 2,10,-1
 1302.97949219 0 l 2,11,12
 900.656990264 5.68434188608e-13 900.656990264 5.68434188608e-13 867.879882812 373.126953125 c 6,13,-1
 864.426757812 412.436523438 l 5,14,15
 723 387 723 387 589.952148438 321.383789062 c 28,16,17
 269 164 269 164 269.989257812 -133.680664062 c 4,18,19
 270 -485 270 -485 784.594726562 -485.2265625 c 4,20,21
 965 -485 965 -485 1173.27148438 -456.337890625 c 4,22,23
 1183 -455 1183 -455 1181.87304688 -465.625 c 4,24,25
 1178 -506 1178 -506 1168 -536 c 4,26,27
 1139 -625 1139 -625 1041 -640.119140625 c 4,28,29
 940 -655 940 -655 807.768554688 -654.81640625 c 4,30,31
 632 -655 632 -655 480.94140625 -615.65625 c 4,32,33
 353 -582 353 -582 279.965820312 -517.939453125 c 4,34,35
 123 -381 123 -381 123.260742188 -164.354492188 c 4,36,37
 122 240 122 240 468.01171875 446.65234375 c 28,38,39
 594 522 594 522 775.43359375 559.942382812 c 5,40,41
 658 582 658 582 589.021484375 597.971679688 c 4,42,43
 455 628 455 628 389.571289062 628.428710938 c 4,44,45
 283 629 283 629 184.560546875 509.346679688 c 5,46,-1
 99 549 l 5,47,48
 169 718 169 718 255.556640625 778.467773438 c 4,49,50
 307 815 307 815 383.6796875 814.798828125 c 4,51,52
 454 815 454 815 529.143554688 793.106445312 c 4,53,54
 832 702 832 702 979.66796875 667.557617188 c 4,55,56
 1063 648 1063 648 1203.37109375 636.41796875 c 28,57,58
 1221.20549269 634.983471339 1221.20549269 634.983471339 1213.17089844 616 c 6,59,-1
 1144.33007812 453.348632812 l 5,0,1
363.6796875 814.798828125 m 1028,60,61
EndSplineSet
EndChar

StartChar: uniFEA3
Encoding: 65187 65187 171
Width: 1320
VWidth: 3745
GlyphClass: 2
Flags: W
AnchorPoint: "Anchor-10" 527.25 1134.14 basechar 0
AnchorPoint: "Anchor-7" 501.367 -226.896 basechar 0
LayerCount: 2
Fore
SplineSet
729.602539062 675.375 m 4,0,1
 1048 527 1048 527 1243.32226562 526.163085938 c 4,2,3
 1270.95490665 526.000265704 1270.95490665 526.000265704 1261.95605469 495.549804688 c 6,4,-1
 1217.49609375 345.10546875 l 5,5,6
 1059 341 1059 341 737.485351562 158.393554688 c 4,7,8
 458 0 458 0 162.451171875 0 c 6,9,-1
 -5 0 l 6,10,11
 -60.3662109375 0 -60.3662109375 0 -60.3662109375 77 c 6,12,-1
 -60.3662109375 102 l 6,13,14
 -60.0000043613 183.999023438 -60.0000043613 183.999023438 -5 183.999023438 c 6,15,-1
 195.760742188 183.999023438 l 6,16,17
 452.764726638 183.999999107 452.764726638 183.999999107 728.838867188 327.538085938 c 6,18,-1
 918.53125 426.1640625 l 5,19,20
 862 438 862 438 645 524.5 c 4,21,22
 506 580 506 580 420 580 c 4,23,24
 311 580 311 580 201 446 c 5,25,-1
 116.233398438 486.286132812 l 5,26,-1
 124.211914062 505.868164062 l 6,27,28
 231 769 231 769 448.768554688 767.661132812 c 4,29,30
 533 767 533 767 729.602539062 675.375 c 4,0,1
EndSplineSet
EndChar

StartChar: uniFEA4
Encoding: 65188 65188 172
Width: 1346
VWidth: 3745
GlyphClass: 2
Flags: W
AnchorPoint: "Anchor-10" 531.542 1136.28 basechar 0
AnchorPoint: "Anchor-7" 535.822 -223.531 basechar 0
LayerCount: 2
Fore
SplineSet
737.485351562 158.393554688 m 28,0,1
 458 0 458 0 162.451171875 0 c 6,2,-1
 -5 0 l 6,3,4
 -60.3662109375 0 -60.3662109375 0 -60.3662109375 77 c 6,5,-1
 -60.3662109375 102 l 6,6,7
 -60.0000043613 183.999023438 -60.0000043613 183.999023438 -5 183.999023438 c 6,8,-1
 195.760742188 183.999023438 l 6,9,10
 452.764726638 183.999999107 452.764726638 183.999999107 728.838867188 327.538085938 c 6,11,-1
 918.53125 426.1640625 l 5,12,13
 841 446 841 446 645 524.5 c 4,14,15
 506 580 506 580 420 580 c 4,16,17
 311 580 311 580 201 446 c 5,18,-1
 116.233398438 486.286132812 l 5,19,-1
 124.211914062 505.868164062 l 6,20,21
 231 769 231 769 448.768554688 767.661132812 c 4,22,23
 533 767 533 767 729.602539062 675.375 c 4,24,25
 1046 527 1046 527 1243.32226562 526.163085938 c 4,26,27
 1270.95490665 526.000265704 1270.95490665 526.000265704 1261.95605469 495.549804688 c 6,28,-1
 1217.49609375 345.10546875 l 5,29,30
 1115 343 1115 343 989 285.483398438 c 5,31,32
 989 183.9983646 989 183.9983646 1135.23828125 183.999023438 c 6,33,-1
 1352 184 l 6,34,35
 1376 184 1376 184 1376 102 c 6,36,-1
 1376 77 l 6,37,38
 1376 0 1376 0 1352 0 c 6,39,-1
 1139.60742188 0 l 6,40,41
 894 0 894 0 879 233 c 5,42,43
 839 216 839 216 737.485351562 158.393554688 c 28,0,1
EndSplineSet
EndChar

StartChar: uniFEAA
Encoding: 65194 65194 178
Width: 1122
VWidth: 3737
GlyphClass: 2
Flags: W
AnchorPoint: "Anchor-10" 641.162 1232.67 basechar 0
AnchorPoint: "Anchor-7" 440.118 -231.355 basechar 0
LayerCount: 2
Fore
SplineSet
416.994140625 183.999023438 m 0,0,1
 590.316482106 183.999985111 590.316482106 183.999985111 672.318359375 232.181640625 c 0,2,3
 749.706425884 277.826843457 749.706425884 277.826843457 735.09765625 353.327148438 c 0,4,5
 734 360 734 360 727.0234375 382.133789062 c 2,6,-1
 585 845 l 5,7,-1
 683.70703125 961.016601562 l 6,8,9
 713.952099039 996.943101009 713.952099039 996.943101009 727.70703125 949.016601562 c 6,10,-1
 877.681640625 426.458007812 l 2,11,12
 947.267224799 184 947.267224799 184 1115.69726562 184 c 2,13,-1
 1128 184 l 2,14,15
 1152 184 1152 184 1152 102 c 2,16,-1
 1152 77 l 2,17,18
 1152 0 1152 0 1128 0 c 2,19,-1
 1111.90039062 0 l 2,20,21
 915 0 915 0 820.291992188 191.197265625 c 1,22,23
 693 1 693 1 418.2734375 0 c 0,24,25
 103 -1 103 -1 104.71484375 230.303710938 c 0,26,27
 105 278 105 278 118.606445312 336.571289062 c 1,28,-1
 229.859375 325.612304688 l 1,29,30
 230 266 230 266 249.879882812 237.4453125 c 0,31,32
 285 184 285 184 416.994140625 183.999023438 c 0,0,1
EndSplineSet
PairPos2: "'kern' Horizontal Kerning lookup 15-7" uniFB90 dx=-120 dy=0 dh=-120 dv=0 dx=0 dy=0 dh=0 dv=0
PairPos2: "'kern' Horizontal Kerning lookup 15-7" uni06A9 dx=-120 dy=0 dh=-120 dv=0 dx=0 dy=0 dh=0 dv=0
PairPos2: "'kern' Horizontal Kerning lookup 15-7" uniFB94 dx=-120 dy=0 dh=-120 dv=0 dx=0 dy=0 dh=0 dv=0
PairPos2: "'kern' Horizontal Kerning lookup 15-7" afii57509 dx=-120 dy=0 dh=-120 dv=0 dx=0 dy=0 dh=0 dv=0
EndChar

StartChar: uniFEAE
Encoding: 65198 65198 182
Width: 793
VWidth: 3744
GlyphClass: 2
Flags: W
AnchorPoint: "Anchor-7" 310.313 -717.669 basechar 0
AnchorPoint: "Anchor-10" 423.778 922.68 basechar 0
LayerCount: 2
Fore
SplineSet
612 49.8779296875 m 5,0,1
 585 -169 585 -169 429 -368 c 4,2,3
 361 -454 361 -454 290 -488 c 4,4,5
 241 -511 241 -511 177.845703125 -510.8984375 c 4,6,7
 109 -511 109 -511 51 -493 c 4,8,9
 -4 -476 -4 -476 -4.515625 -453.580078125 c 4,10,11
 -5 -439 -5 -439 66.7890625 -402.438476562 c 4,12,13
 333 -267 333 -267 451.204101562 -60 c 4,14,15
 490 8 490 8 489.838867188 87.6943359375 c 4,16,17
 490 133 490 133 475.954101562 166 c 4,18,19
 470 180 470 180 446.456054688 227 c 4,20,21
 406 307 406 307 388 332 c 5,22,-1
 484.6484375 477 l 6,23,24
 509 513 509 513 533.887695312 459 c 4,25,26
 575 372 575 372 615.290039062 286.109375 c 4,27,28
 664.001953125 183.99609375 664.001953125 183.99609375 768.29296875 183.999023438 c 6,29,-1
 799 184 l 6,30,31
 823 184 823 184 823 102 c 6,32,-1
 823 77 l 6,33,34
 823 0 823 0 799 0 c 6,35,-1
 773.346679688 0 l 6,36,37
 684 0 684 0 612 49.8779296875 c 5,0,1
EndSplineSet
PairPos2: "'kern' Horizontal Kerning lookup 15-1" uniFEF3 dx=20 dy=0 dh=20 dv=0 dx=0 dy=0 dh=0 dv=0
PairPos2: "'kern' Horizontal Kerning lookup 15-1" uniFB58 dx=20 dy=0 dh=20 dv=0 dx=0 dy=0 dh=0 dv=0
PairPos2: "'kern' Horizontal Kerning lookup 15-1" uniFBFE dx=20 dy=0 dh=20 dv=0 dx=0 dy=0 dh=0 dv=0
PairPos2: "'kern' Horizontal Kerning lookup 15-4" uni0621 dx=-196 dy=0 dh=-196 dv=0 dx=0 dy=0 dh=0 dv=0
PairPos2: "'kern' Horizontal Kerning lookup 15-3" uni0648 dx=-43 dy=0 dh=-43 dv=0 dx=0 dy=0 dh=0 dv=0
PairPos2: "'kern' Horizontal Kerning lookup 15-1" uni0644 dx=-43 dy=0 dh=-43 dv=0 dx=0 dy=0 dh=0 dv=0
PairPos2: "'kern' Horizontal Kerning lookup 15-1" uni0642 dx=-43 dy=0 dh=-43 dv=0 dx=0 dy=0 dh=0 dv=0
PairPos2: "'kern' Horizontal Kerning lookup 15-1" uni0632 dx=-43 dy=0 dh=-43 dv=0 dx=0 dy=0 dh=0 dv=0
PairPos2: "'kern' Horizontal Kerning lookup 15-1" uni0631 dx=-43 dy=0 dh=-43 dv=0 dx=0 dy=0 dh=0 dv=0
PairPos2: "'kern' Horizontal Kerning lookup 15-1" uniFB8A dx=-43 dy=0 dh=-43 dv=0 dx=0 dy=0 dh=0 dv=0
PairPos2: "'kern' Horizontal Kerning lookup 15-1" afii57508 dx=-43 dy=0 dh=-43 dv=0 dx=0 dy=0 dh=0 dv=0
PairPos2: "'kern' Horizontal Kerning lookup 15-1" uniFB7C dx=-128 dy=0 dh=-128 dv=0 dx=0 dy=0 dh=0 dv=0
PairPos2: "'kern' Horizontal Kerning lookup 15-1" uni06CC dx=-43 dy=0 dh=-43 dv=0 dx=0 dy=0 dh=0 dv=0
PairPos2: "'kern' Horizontal Kerning lookup 15-1" uniFEEB dx=-128 dy=0 dh=-128 dv=0 dx=0 dy=0 dh=0 dv=0
PairPos2: "'kern' Horizontal Kerning lookup 15-1" uniFEDF dx=-128 dy=0 dh=-128 dv=0 dx=0 dy=0 dh=0 dv=0
PairPos2: "'kern' Horizontal Kerning lookup 15-1" uniFB90 dx=-213 dy=0 dh=-213 dv=0 dx=0 dy=0 dh=0 dv=0
PairPos2: "'kern' Horizontal Kerning lookup 15-1" uni06A9 dx=-213 dy=0 dh=-213 dv=0 dx=0 dy=0 dh=0 dv=0
PairPos2: "'kern' Horizontal Kerning lookup 15-1" uni0649 dx=-43 dy=0 dh=-43 dv=0 dx=0 dy=0 dh=0 dv=0
PairPos2: "'kern' Horizontal Kerning lookup 15-1" uni0647 dx=-128 dy=0 dh=-128 dv=0 dx=0 dy=0 dh=0 dv=0
PairPos2: "'kern' Horizontal Kerning lookup 15-1" uniFEE7 dx=-128 dy=0 dh=-128 dv=0 dx=0 dy=0 dh=0 dv=0
PairPos2: "'kern' Horizontal Kerning lookup 15-1" uniFEE3 dx=-128 dy=0 dh=-128 dv=0 dx=0 dy=0 dh=0 dv=0
PairPos2: "'kern' Horizontal Kerning lookup 15-1" uni0645 dx=-128 dy=0 dh=-128 dv=0 dx=0 dy=0 dh=0 dv=0
PairPos2: "'kern' Horizontal Kerning lookup 15-1" uniFEDB dx=-213 dy=0 dh=-213 dv=0 dx=0 dy=0 dh=0 dv=0
PairPos2: "'kern' Horizontal Kerning lookup 15-1" uniFED7 dx=-128 dy=0 dh=-128 dv=0 dx=0 dy=0 dh=0 dv=0
PairPos2: "'kern' Horizontal Kerning lookup 15-1" uniFED3 dx=-128 dy=0 dh=-128 dv=0 dx=0 dy=0 dh=0 dv=0
PairPos2: "'kern' Horizontal Kerning lookup 15-1" uni0641 dx=-128 dy=0 dh=-128 dv=0 dx=0 dy=0 dh=0 dv=0
PairPos2: "'kern' Horizontal Kerning lookup 15-1" uniFECF dx=-128 dy=0 dh=-128 dv=0 dx=0 dy=0 dh=0 dv=0
PairPos2: "'kern' Horizontal Kerning lookup 15-1" uniFECB dx=-128 dy=0 dh=-128 dv=0 dx=0 dy=0 dh=0 dv=0
PairPos2: "'kern' Horizontal Kerning lookup 15-1" uniFEC7 dx=-128 dy=0 dh=-128 dv=0 dx=0 dy=0 dh=0 dv=0
PairPos2: "'kern' Horizontal Kerning lookup 15-1" uni0638 dx=-128 dy=0 dh=-128 dv=0 dx=0 dy=0 dh=0 dv=0
PairPos2: "'kern' Horizontal Kerning lookup 15-1" uniFEC3 dx=-128 dy=0 dh=-128 dv=0 dx=0 dy=0 dh=0 dv=0
PairPos2: "'kern' Horizontal Kerning lookup 15-1" uni0637 dx=-128 dy=0 dh=-128 dv=0 dx=0 dy=0 dh=0 dv=0
PairPos2: "'kern' Horizontal Kerning lookup 15-1" uniFEBF dx=-128 dy=0 dh=-128 dv=0 dx=0 dy=0 dh=0 dv=0
PairPos2: "'kern' Horizontal Kerning lookup 15-1" uni0636 dx=-128 dy=0 dh=-128 dv=0 dx=0 dy=0 dh=0 dv=0
PairPos2: "'kern' Horizontal Kerning lookup 15-1" uniFEBB dx=-128 dy=0 dh=-128 dv=0 dx=0 dy=0 dh=0 dv=0
PairPos2: "'kern' Horizontal Kerning lookup 15-1" uni0635 dx=-128 dy=0 dh=-128 dv=0 dx=0 dy=0 dh=0 dv=0
PairPos2: "'kern' Horizontal Kerning lookup 15-1" uniFEB7 dx=-128 dy=0 dh=-128 dv=0 dx=0 dy=0 dh=0 dv=0
PairPos2: "'kern' Horizontal Kerning lookup 15-1" uni0634 dx=-128 dy=0 dh=-128 dv=0 dx=0 dy=0 dh=0 dv=0
PairPos2: "'kern' Horizontal Kerning lookup 15-1" uniFEB3 dx=-128 dy=0 dh=-128 dv=0 dx=0 dy=0 dh=0 dv=0
PairPos2: "'kern' Horizontal Kerning lookup 15-1" uni0633 dx=-128 dy=0 dh=-128 dv=0 dx=0 dy=0 dh=0 dv=0
PairPos2: "'kern' Horizontal Kerning lookup 15-1" uni0630 dx=-128 dy=0 dh=-128 dv=0 dx=0 dy=0 dh=0 dv=0
PairPos2: "'kern' Horizontal Kerning lookup 15-1" uni062F dx=-128 dy=0 dh=-128 dv=0 dx=0 dy=0 dh=0 dv=0
PairPos2: "'kern' Horizontal Kerning lookup 15-1" uniFEA7 dx=-128 dy=0 dh=-128 dv=0 dx=0 dy=0 dh=0 dv=0
PairPos2: "'kern' Horizontal Kerning lookup 15-1" uniFEA3 dx=-128 dy=0 dh=-128 dv=0 dx=0 dy=0 dh=0 dv=0
PairPos2: "'kern' Horizontal Kerning lookup 15-1" uniFE9F dx=-128 dy=0 dh=-128 dv=0 dx=0 dy=0 dh=0 dv=0
PairPos2: "'kern' Horizontal Kerning lookup 15-1" uniFE9B dx=-128 dy=0 dh=-128 dv=0 dx=0 dy=0 dh=0 dv=0
PairPos2: "'kern' Horizontal Kerning lookup 15-1" uni062B dx=-128 dy=0 dh=-128 dv=0 dx=0 dy=0 dh=0 dv=0
PairPos2: "'kern' Horizontal Kerning lookup 15-1" uniFE97 dx=-128 dy=0 dh=-128 dv=0 dx=0 dy=0 dh=0 dv=0
PairPos2: "'kern' Horizontal Kerning lookup 15-1" uni062A dx=-128 dy=0 dh=-128 dv=0 dx=0 dy=0 dh=0 dv=0
PairPos2: "'kern' Horizontal Kerning lookup 15-1" uni0629 dx=-128 dy=0 dh=-128 dv=0 dx=0 dy=0 dh=0 dv=0
PairPos2: "'kern' Horizontal Kerning lookup 15-1" uni0628 dx=-128 dy=0 dh=-128 dv=0 dx=0 dy=0 dh=0 dv=0
PairPos2: "'kern' Horizontal Kerning lookup 15-1" uni0627 dx=-150 dy=0 dh=-150 dv=0 dx=0 dy=0 dh=0 dv=0
PairPos2: "'kern' Horizontal Kerning lookup 15-1" uni0622 dx=-150 dy=0 dh=-150 dv=0 dx=0 dy=0 dh=0 dv=0
PairPos2: "'kern' Horizontal Kerning lookup 15-1" uniFB94 dx=-235 dy=0 dh=-235 dv=0 dx=0 dy=0 dh=0 dv=0
PairPos2: "'kern' Horizontal Kerning lookup 15-1" afii57509 dx=-235 dy=0 dh=-235 dv=0 dx=0 dy=0 dh=0 dv=0
PairPos2: "'kern' Horizontal Kerning lookup 15-1" uniFB56 dx=-128 dy=0 dh=-128 dv=0 dx=0 dy=0 dh=0 dv=0
PairPos2: "'kern' Horizontal Kerning lookup 15-1" afii57506 dx=-128 dy=0 dh=-128 dv=0 dx=0 dy=0 dh=0 dv=0
EndChar

StartChar: uniFEB2
Encoding: 65202 65202 186
Width: 2463
VWidth: 3744
GlyphClass: 2
Flags: W
AnchorPoint: "Anchor-10" 1664.2 1101.76 basechar 0
AnchorPoint: "Anchor-7" 635.746 -764.065 basechar 0
LayerCount: 2
Fore
SplineSet
1257.33007812 279.373046875 m 8,0,1
 1312 187 1312 187 1453 184 c 0,2,3
 1596.02291709 180.999519222 1596.02291709 180.999519222 1613.88183594 331.986328125 c 6,4,-1
 1635.18945312 512.129882812 l 1,5,-1
 1748.69628906 512.129882812 l 1,6,-1
 1769.23535156 331.802734375 l 6,7,8
 1786 184 1786 184 1941.90234375 184.348632812 c 0,9,10
 2073.24112043 185.001198022 2073.24112043 185.001198022 2086.96386719 335.2421875 c 6,11,-1
 2104.72558594 529.703125 l 1,12,-1
 2222.88574219 529.703125 l 1,13,-1
 2242.66210938 335.331054688 l 6,14,15
 2258 184 2258 184 2449.63769531 184 c 2,16,-1
 2469.67480469 184 l 2,17,18
 2493.67480469 184 2493.67480469 184 2493.67480469 102 c 2,19,-1
 2493.67480469 77 l 2,20,21
 2494 0 2494 0 2469.67480469 0 c 2,22,-1
 2448.86425781 0 l 2,23,24
 2226 0 2226 0 2166.12890625 136.162109375 c 1,25,26
 2102 0 2102 0 1938.70507812 -0.0048828125 c 0,27,28
 1763 0 1763 0 1691.61035156 128.845703125 c 1,29,30
 1595 0 1595 0 1459.89257812 0 c 0,31,32
 1341 0 1341 0 1298 48 c 1,33,34
 1298 -82 1298 -82 1261 -185.876840953 c 0,35,36
 1135 -539 1135 -539 666.965820312 -538.86328125 c 0,37,38
 454 -539 454 -539 308 -447.248046875 c 0,39,40
 108 -321 108 -321 107.665039062 -35.0888671875 c 0,41,42
 108 169 108 169 205.79296875 384.94140625 c 1,43,-1
 316.0546875 352.40234375 l 1,44,45
 259 165 259 165 258.880859375 13.18359375 c 0,46,47
 259 -359 259 -359 673.813476562 -359.276367188 c 0,48,49
 987 -359 987 -359 1109.19140625 -164.387695312 c 0,50,51
 1147 -104 1147 -104 1146.53173608 -15 c 0,52,53
 1146 97 1146 97 1023.66699219 328.455078125 c 1,54,-1
 1120.31640625 474.686523438 l 1,55,56
 1129 487 1129 487 1138.31347656 486.528320312 c 0,57,58
 1152 487 1152 487 1171.24511719 445.676757812 c 0,59,60
 1222 339 1222 339 1257.33007812 279.373046875 c 8,0,1
EndSplineSet
EndChar

StartChar: uniFEB3
Encoding: 65203 65203 187
Width: 1532
VWidth: 3744
GlyphClass: 2
Flags: W
AnchorPoint: "Anchor-10" 845.148 1020.27 basechar 0
AnchorPoint: "Anchor-7" 815.32 -263.321 basechar 0
LayerCount: 2
Fore
SplineSet
-5 183.999023438 m 6,0,-1
 76.6552734375 183.999023438 l 6,1,2
 289.13568828 184.000000624 289.13568828 184.000000624 306.140625 330.081054688 c 6,3,-1
 327.41796875 512.864257812 l 5,4,-1
 440.999023438 512.864257812 l 5,5,-1
 461.504882812 333.895507812 l 6,6,7
 479 184 479 184 624.266601562 183.971679688 c 4,8,9
 773.82303683 183.999966529 773.82303683 183.999966529 791.208984375 331.399414062 c 6,10,-1
 812.526367188 512.129882812 l 5,11,-1
 926.010742188 512.129882812 l 5,12,-1
 946.55859375 330.216796875 l 6,13,14
 963 184 963 184 1114.70996094 184.348632812 c 4,15,16
 1279 185 1279 185 1279.71972656 338.900390625 c 4,17,18
 1280 395 1280 395 1201.27441406 613.266601562 c 5,19,-1
 1310 739 l 6,20,21
 1327 759 1327 759 1348 716 c 4,22,23
 1431 536 1431 536 1431.27441406 374.629882812 c 28,24,25
 1431 235 1431 235 1349.97851562 123.79296875 c 4,26,27
 1260 0 1260 0 1123.05273438 -0.2197265625 c 4,28,29
 940 0 940 0 868.935546875 128.845703125 c 5,30,31
 772 0 772 0 619.217773438 0 c 4,32,33
 449 0 449 0 378.49609375 128.840820312 c 5,34,35
 294 0 294 0 72.4453125 0 c 6,36,-1
 -5 0 l 6,37,38
 -60.3662109375 0 -60.3662109375 0 -60.3662109375 77 c 6,39,-1
 -60.3662109375 102 l 6,40,41
 -60 184 -60 184 -5 183.999023438 c 6,0,-1
EndSplineSet
EndChar

StartChar: uniFEB4
Encoding: 65204 65204 188
Width: 1641
VWidth: 3744
GlyphClass: 2
Flags: W
AnchorPoint: "Anchor-10" 845.148 1020.27 basechar 0
AnchorPoint: "Anchor-7" 864.254 -267.588 basechar 0
LayerCount: 2
Fore
SplineSet
1116.03027344 -0.0048828125 m 0,0,1
 940 0 940 0 868.935546875 128.845703125 c 1,2,3
 772 0 772 0 619.217773438 0 c 0,4,5
 449 0 449 0 378.49609375 128.840820312 c 1,6,7
 294 0 294 0 72.4453125 0 c 2,8,-1
 -5 0 l 2,9,10
 -60.3662109375 0 -60.3662109375 0 -60.3662109375 77 c 2,11,-1
 -60.3662109375 102 l 2,12,13
 -60.0000043613 183.999023438 -60.0000043613 183.999023438 -5 183.999023438 c 2,14,-1
 76.6552734375 183.999023438 l 2,15,16
 288.800889648 183.999999084 288.800889648 183.999999084 306.147460938 331.06640625 c 6,17,-1
 327.46484375 511.797851562 l 1,18,-1
 440.950195312 511.797851562 l 1,19,-1
 461.498046875 334.87890625 l 6,20,21
 479 184 479 184 624.794921875 183.998046875 c 0,22,23
 773.486362958 184.00000641 773.486362958 184.00000641 791.20703125 332.986328125 c 6,24,-1
 812.514648438 512.129882812 l 1,25,-1
 926.021484375 512.129882812 l 1,26,-1
 946.560546875 331.802734375 l 6,27,28
 963 184 963 184 1119.22753906 184.348632812 c 0,29,30
 1250.56601037 184.997854737 1250.56601037 184.997854737 1264.2890625 335.2421875 c 6,31,-1
 1282.05078125 529.703125 l 1,32,-1
 1400.2109375 529.703125 l 1,33,-1
 1419.98730469 335.331054688 l 6,34,35
 1435 184 1435 184 1626.96289062 184 c 2,36,-1
 1647 184 l 2,37,38
 1671 184 1671 184 1671 102 c 2,39,-1
 1671 77 l 2,40,41
 1671 0 1671 0 1647 0 c 2,42,-1
 1626.18945312 0 l 2,43,44
 1403 0 1403 0 1343.45410156 136.162109375 c 1,45,46
 1279 0 1279 0 1116.03027344 -0.0048828125 c 0,0,1
EndSplineSet
EndChar

StartChar: uniFEBA
Encoding: 65210 65210 194
Width: 2641
VWidth: 3745
GlyphClass: 2
Flags: W
AnchorPoint: "Anchor-10" 2100.2 1169.65 basechar 0
AnchorPoint: "Anchor-7" 627.217 -757.813 basechar 0
LayerCount: 2
Fore
SplineSet
1602.11328125 184.791992188 m 1,0,-1
 1913.25390625 184.791992188 l 2,1,2
 2168 185 2168 185 2257.31933594 253.029296875 c 0,3,4
 2341 318 2341 318 2341.54003906 412.5390625 c 0,5,6
 2342 476 2342 476 2302.77148438 524.008789062 c 0,7,8
 2258 580 2258 580 2156.45703125 580.015625 c 0,9,10
 1928 580 1928 580 1602.11328125 184.791992188 c 1,0,-1
1257.33007812 279.373046875 m 24,11,12
 1313 186 1313 186 1452.38574219 184.909179688 c 1,13,14
 1812 757 1812 757 2169.27148438 757.09375 c 0,15,16
 2334 757 2334 757 2424.31933594 649.978515625 c 0,17,18
 2502 557 2502 557 2502.23828125 423.375976562 c 0,19,20
 2502 286 2502 286 2401.73632812 184 c 5,21,-1
 2647 184 l 6,22,23
 2671 184 2671 184 2671 102 c 6,24,-1
 2671 77 l 6,25,26
 2671 0 2671 0 2647 0 c 6,27,-1
 2597.39257812 0 l 6,28,29
 2389 0 2389 0 2255 70 c 5,30,31
 2104 0 2104 0 1821.76269531 0 c 2,32,-1
 1586.95019531 0 l 2,33,34
 1362 0 1362 0 1298 48 c 1,35,36
 1298 -82 1298 -82 1261 -185.876840953 c 0,37,38
 1135 -539 1135 -539 666.965820312 -538.86328125 c 0,39,40
 454 -539 454 -539 308 -447.248046875 c 0,41,42
 108 -321 108 -321 107.665039062 -35.0888671875 c 0,43,44
 108 169 108 169 205.79296875 384.94140625 c 1,45,-1
 316.0546875 352.40234375 l 1,46,47
 259 165 259 165 258.880859375 13.18359375 c 0,48,49
 259 -359 259 -359 673.813476562 -359.276367188 c 0,50,51
 987 -359 987 -359 1109.19140625 -164.387695312 c 0,52,53
 1147 -104 1147 -104 1146.53173608 -15 c 0,54,55
 1146 97 1146 97 1023.66699219 328.455078125 c 1,56,-1
 1120.31640625 474.686523438 l 1,57,58
 1129 487 1129 487 1138.31347656 486.528320312 c 0,59,60
 1152 487 1152 487 1171.24511719 445.676757812 c 0,61,62
 1222 339 1222 339 1257.33007812 279.373046875 c 24,11,12
EndSplineSet
EndChar

StartChar: uniFEBB
Encoding: 65211 65211 195
Width: 1685
VWidth: 3745
GlyphClass: 2
Flags: W
AnchorPoint: "Anchor-10" 1132.96 1207.91 basechar 0
AnchorPoint: "Anchor-7" 627.342 -247.568 basechar 0
LayerCount: 2
Fore
SplineSet
684.841796875 184 m 5,0,-1
 995.982421875 184 l 6,1,2
 1242 184 1242 184 1340.04785156 250.935546875 c 4,3,4
 1423.98828125 311.815429688 1423.98828125 311.815429688 1424.26855469 410.4453125 c 4,5,6
 1424 473 1424 473 1385.5 521.915039062 c 4,7,8
 1341 578 1341 578 1239.18554688 577.921875 c 4,9,10
 1010 578 1010 578 684.841796875 184 c 5,0,-1
234.15625 334.38671875 m 6,11,12
 257.440429688 530.31640625 l 5,13,-1
 371.720703125 530.369140625 l 5,14,-1
 395.733398438 333.099609375 l 6,15,16
 412 200 412 200 535.114257812 184.815429688 c 5,17,18
 893 755 893 755 1252 755 c 4,19,20
 1417 755 1417 755 1507.04785156 647.884765625 c 4,21,22
 1585 555 1585 555 1584.96679688 421.282226562 c 4,23,24
 1585 231 1585 231 1423.34863281 116.01953125 c 4,25,26
 1261 0 1261 0 904.491210938 0 c 6,27,-1
 669.678710938 0 l 6,28,29
 414 0 414 0 314.329101562 128.564453125 c 5,30,31
 229 0 229 0 28.1640625 0 c 6,32,-1
 -5 0 l 6,33,34
 -60.3662109375 0 -60.3662109375 0 -60.3662109375 77 c 6,35,-1
 -60.3662109375 102 l 6,36,37
 -59.9997394129 184.058349282 -59.9997394129 184.058349282 -5 183.999023438 c 6,38,-1
 29.4033203125 183.961914062 l 6,39,40
 216 184 216 184 234.15625 334.38671875 c 6,11,12
EndSplineSet
EndChar

StartChar: uniFEBC
Encoding: 65212 65212 196
Width: 1720
VWidth: 3745
GlyphClass: 2
Flags: W
AnchorPoint: "Anchor-10" 1142.96 1217.91 basechar 0
AnchorPoint: "Anchor-7" 643.137 -236.413 basechar 0
LayerCount: 2
Fore
SplineSet
535.114257812 184.815429688 m 5,0,1
 892 755 892 755 1252 755 c 4,2,3
 1417 755 1417 755 1507.04785156 647.884765625 c 4,4,5
 1584 556 1584 556 1583.96679688 430.282226562 c 4,6,7
 1584 285 1584 285 1487.36132812 184 c 5,8,-1
 1726 184 l 6,9,10
 1750 184 1750 184 1750 102 c 6,11,-1
 1750 77 l 6,12,13
 1750 -0.0445380912799 1750 -0.0445380912799 1726 0 c 6,14,-1
 1675.48144531 0.09375 l 6,15,16
 1468 0 1468 0 1338 68 c 5,17,18
 1192 0 1192 0 904.491210938 0 c 6,19,-1
 669.678710938 0 l 6,20,21
 414 0 414 0 314.329101562 128.564453125 c 5,22,23
 229 0 229 0 28.1640625 0 c 6,24,-1
 -5 0 l 6,25,26
 -60.3662109375 0 -60.3662109375 0 -60.3662109375 77 c 6,27,-1
 -60.3662109375 102 l 6,28,29
 -59.9997394129 184.058349281 -59.9997394129 184.058349281 -5 183.999023438 c 6,30,-1
 29.4033203125 183.961914062 l 6,31,32
 216.284379355 184.000058044 216.284379355 184.000058044 234.15625 334.38671875 c 6,33,-1
 257.440429688 530.31640625 l 5,34,-1
 371.720703125 530.369140625 l 5,35,-1
 395.733398438 333.099609375 l 6,36,37
 412 200 412 200 535.114257812 184.815429688 c 5,0,1
684.841796875 184 m 5,38,-1
 995.982421875 184 l 6,39,40
 1252 184 1252 184 1340.04785156 250.935546875 c 4,41,42
 1424 316 1424 316 1424.26855469 410.4453125 c 4,43,44
 1424 473 1424 473 1385.5 521.915039062 c 4,45,46
 1341 578 1341 578 1239.18554688 577.921875 c 4,47,48
 1010 578 1010 578 684.841796875 184 c 5,38,-1
EndSplineSet
EndChar

StartChar: uniFEC2
Encoding: 65218 65218 202
Width: 1602
VWidth: 3745
GlyphClass: 2
Flags: W
AnchorPoint: "Anchor-10" 489.975 1532.06 basechar 0
AnchorPoint: "Anchor-7" 787.173 -236.469 basechar 0
LayerCount: 2
Fore
SplineSet
1365.16796875 184 m 5,0,-1
 1608.51171875 184 l 6,1,2
 1632.51171875 184 1632.51171875 184 1632.51171875 102.610351562 c 6,3,-1
 1632.51171875 77.6103515625 l 6,4,5
 1633.00292969 0.6103515625 1633.00292969 0.6103515625 1608.51171875 0.6103515625 c 6,6,-1
 1568.90429688 0.6103515625 l 6,7,8
 1368 1 1368 1 1228 71 c 5,9,10
 1078 0 1078 0 789.443359375 0 c 6,11,-1
 260.19921875 0 l 5,12,13
 97 128 97 128 96.3173828125 167 c 4,14,15
 96.005859375 184.657226562 96.005859375 184.657226562 124.399414062 184.657226562 c 6,16,-1
 422.862304688 184.658203125 l 5,17,18
 460 241 460 241 497.7890625 296.39453125 c 5,19,20
 491 410 491 410 475.5078125 777.770507812 c 4,21,22
 456 1244 456 1244 434.522460938 1329.796875 c 5,23,-1
 579 1417 l 6,24,25
 604.188476562 1432.11328125 604.188476562 1432.11328125 604.880859375 1392.04882812 c 6,26,-1
 621.05859375 455.458984375 l 5,27,28
 880 759 880 759 1137 759 c 4,29,30
 1302 759 1302 759 1392 651.977539062 c 4,31,32
 1470 559 1470 559 1469.91894531 425.375 c 4,33,34
 1470 290 1470 290 1365.16796875 184 c 5,0,-1
569.793945312 184.791015625 m 5,35,-1
 880.934570312 184.791015625 l 6,36,37
 1134 185 1134 185 1225 255.028320312 c 4,38,39
 1309 320 1309 320 1309.22070312 414.538085938 c 4,40,41
 1309 478 1309 478 1270.45214844 526.0078125 c 4,42,43
 1226 582 1226 582 1124.13769531 582.014648438 c 4,44,45
 898 582 898 582 569.793945312 184.791015625 c 5,35,-1
EndSplineSet
EndChar

StartChar: uniFEC3
Encoding: 65219 65219 203
Width: 1296
VWidth: 3745
GlyphClass: 2
Flags: W
AnchorPoint: "Anchor-7" 482.774 -230.068 basechar 0
AnchorPoint: "Anchor-10" 211.176 1521.33 basechar 0
LayerCount: 2
Fore
SplineSet
295.725585938 184.438476562 m 5,0,-1
 606.866210938 184.438476562 l 6,1,2
 858.567609233 184.004196791 858.567609233 184.004196791 950.931640625 254.67578125 c 4,3,4
 1035 319 1035 319 1035.15234375 414.185546875 c 4,5,6
 1035 478 1035 478 996.383789062 525.655273438 c 4,7,8
 952 582 952 582 850.069335938 581.662109375 c 4,9,10
 624 582 624 582 295.725585938 184.438476562 c 5,0,-1
515.375 0 m 6,11,-1
 -5 0 l 6,12,13
 -60.3662109375 0 -60.3662109375 0 -60.3662109375 77 c 6,14,-1
 -60.3662109375 102 l 6,15,16
 -60.0004941114 183.889361216 -60.0004941114 183.889361216 -5 183.999023438 c 6,17,-1
 148.793945312 184.305664062 l 5,18,19
 186 240 186 240 223.720703125 296.041992188 c 5,20,21
 216 435 216 435 201.439453125 777.41796875 c 4,22,23
 182 1244 182 1244 160.454101562 1329.44433594 c 5,24,-1
 304.931640625 1416.64746094 l 6,25,26
 330.115115481 1432.07049982 330.115115481 1432.07049982 330.8125 1391.69628906 c 6,27,-1
 346.990234375 455.106445312 l 5,28,29
 606 759 606 759 862.931640625 758.647460938 c 4,30,31
 1028 759 1028 759 1117.93164062 651.625 c 4,32,33
 1196 559 1196 559 1195.85058594 425.022460938 c 4,34,35
 1196 239 1196 239 1034.23242188 119.759765625 c 4,36,37
 873 0 873 0 515.375 0 c 6,11,-1
EndSplineSet
EndChar

StartChar: uniFEC4
Encoding: 65220 65220 204
Width: 1328
VWidth: 3745
GlyphClass: 2
Flags: W
AnchorPoint: "Anchor-7" 476.374 -224.802 basechar 0
AnchorPoint: "Anchor-10" 204.776 1532 basechar 0
LayerCount: 2
Fore
SplineSet
515.380859375 0.6484375 m 6,0,-1
 -5 0 l 6,1,2
 -60.3662109375 -0 -60.3662109375 -0 -60.3662109375 77 c 6,3,-1
 -60.3662109375 102 l 6,4,5
 -60.0020927989 183.531391623 -60.0020927989 183.531391623 -5 183.999023438 c 6,6,-1
 148.799804688 185.306640625 l 5,7,8
 186 241 186 241 223.7265625 297.04296875 c 5,9,10
 216 432 216 432 201.4453125 778.418945312 c 4,11,12
 182 1245 182 1245 160.459960938 1330.4453125 c 5,13,-1
 304.9375 1417.6484375 l 6,14,15
 330.120929998 1433.07407339 330.120929998 1433.07407339 330.818359375 1392.69726562 c 6,16,-1
 346.99609375 456.107421875 l 5,17,18
 606 760 606 760 862.9375 759.6484375 c 4,19,20
 1028 760 1028 760 1117.9375 652.625976562 c 4,21,22
 1196 560 1196 560 1195.85644531 426.0234375 c 4,23,24
 1196 291 1196 291 1091.10546875 184.6484375 c 5,25,-1
 1334.44921875 184.6484375 l 6,26,27
 1358.44921875 185.00670587 1358.44921875 185.00670587 1358.44921875 103.258789062 c 6,28,-1
 1358.44921875 78.2587890625 l 6,29,30
 1358.00150472 1.2587890625 1358.00150472 1.2587890625 1334.44921875 1.2587890625 c 6,31,-1
 1294.84179688 1.2587890625 l 6,32,33
 1090 1 1090 1 953.9375 71.6484375 c 5,34,35
 804 1 804 1 515.380859375 0.6484375 c 6,0,-1
295.731445312 185.439453125 m 5,36,-1
 606.872070312 185.439453125 l 6,37,38
 860 185 860 185 950.9375 255.676757812 c 4,39,40
 1035 321 1035 321 1035.15820312 415.186523438 c 4,41,42
 1035 479 1035 479 996.389648438 526.65625 c 4,43,44
 952 583 952 583 850.075195312 582.663085938 c 4,45,46
 624 583 624 583 295.731445312 185.439453125 c 5,36,-1
EndSplineSet
EndChar

StartChar: uniFECA
Encoding: 65226 65226 210
Width: 1263
VWidth: 3739
GlyphClass: 2
Flags: W
AnchorPoint: "Anchor-7" 562.136 -813.44 basechar 0
AnchorPoint: "Anchor-10" 644.396 1193.45 basechar 0
LayerCount: 2
Fore
SplineSet
787.768554688 -654.81640625 m 0,0,1
 612 -655 612 -655 460.94140625 -615.65625 c 0,2,3
 333 -582 333 -582 259.965820312 -517.939453125 c 0,4,5
 105 -383 105 -383 103.260742188 -164.354492188 c 0,6,7
 102 23 102 23 178.540039062 162 c 0,8,9
 284 354 284 354 497 469.383789062 c 0,10,11
 570 509 570 509 649.94921875 537.368164062 c 1,12,13
 602.933166323 632.13471137 602.933166323 632.13471137 343.096679688 633.58203125 c 2,14,-1
 340.116210938 633.598632812 l 1,15,-1
 339.991210938 760.005859375 l 1,16,17
 444 826 444 826 739.80859375 823.9375 c 0,18,19
 1038 822 1038 822 1038.52636719 679.6796875 c 0,20,21
 1039 541 1039 541 826.918945312 427.856445312 c 1,22,23
 886.959204429 186.164222678 886.959204429 186.164222678 1228.66113281 184.228515625 c 6,24,-1
 1269 184 l 6,25,26
 1293 184 1293 184 1293 102 c 6,27,-1
 1293 77 l 6,28,29
 1293 0 1293 0 1269 0 c 6,30,-1
 1232.81933594 0 l 6,31,32
 764 0 764 0 716.598632812 380.681640625 c 1,33,34
 663 368 663 368 569.0078125 320.376953125 c 0,35,36
 248 158 248 158 249.989257812 -133.680664062 c 24,37,38
 252 -485 252 -485 764.594726562 -485.2265625 c 0,39,40
 945 -485 945 -485 1153.27148438 -456.337890625 c 0,41,42
 1163 -455 1163 -455 1161.87304688 -465.625 c 0,43,44
 1158 -506 1158 -506 1148 -536 c 0,45,46
 1119 -625 1119 -625 1021 -640.119140625 c 0,47,48
 920 -655 920 -655 787.768554688 -654.81640625 c 0,0,1
EndSplineSet
EndChar

StartChar: uniFECB
Encoding: 65227 65227 211
Width: 1003
VWidth: 3739
GlyphClass: 2
Flags: W
AnchorPoint: "Anchor-10" 465.836 1172.17 basechar 0
AnchorPoint: "Anchor-7" 448.066 -231.427 basechar 0
LayerCount: 2
Fore
SplineSet
-5 183.999023438 m 2,0,-1
 266.38671875 183.999023438 l 1,1,2
 125 291 125 291 124.620117188 430.444335938 c 0,3,4
 125 586 125 586 216 698 c 0,5,6
 333 841 333 841 517.108398438 841.420898438 c 0,7,8
 685 841 685 841 810.186523438 719.42578125 c 1,9,-1
 763.728515625 598.19140625 l 1,10,11
 614 656 614 656 534.655273438 656.245117188 c 0,12,13
 399 656 399 656 292.173828125 520.424804688 c 0,14,15
 264 485 264 485 264.1875 447.553710938 c 0,16,17
 264 379 264 379 364.0546875 305.606445312 c 0,18,19
 473 224 473 224 489.029296875 227.478515625 c 0,20,21
 643.174723797 265.592521344 643.174723797 265.592521344 722.681640625 282.788085938 c 2,22,-1
 864.16015625 313.38671875 l 1,23,24
 908.18354398 324.044434554 908.18354398 324.044434554 902.395507812 290.987304688 c 2,25,-1
 876.956054688 145.6953125 l 1,26,27
 354 1 354 1 62.5625 0.2587890625 c 2,28,-1
 -5 0 l 2,29,30
 -60.3662109375 -0 -60.3662109375 -0 -60.3662109375 77 c 2,31,-1
 -60.3662109375 102 l 2,32,33
 -60 184 -60 184 -5 183.999023438 c 2,0,-1
EndSplineSet
EndChar

StartChar: uniFECC
Encoding: 65228 65228 212
Width: 959
VWidth: 3741
GlyphClass: 2
Flags: W
AnchorPoint: "Anchor-10" 482.738 1068.06 basechar 0
AnchorPoint: "Anchor-7" 429.112 -231.153 basechar 0
LayerCount: 2
Fore
SplineSet
-5 183.999023438 m 2,0,-1
 63.5791015625 183.961914062 l 2,1,2
 359 184 359 184 462.078125 319.1796875 c 1,3,4
 410 478 410 478 145.420898438 497.96484375 c 1,5,-1
 145.319335938 613.874023438 l 1,6,7
 258 683 258 683 500 683.619140625 c 0,8,9
 648 684 648 684 737.1875 639.69140625 c 0,10,11
 812 602 812 602 805.87109375 545.641601562 c 0,12,13
 797 455 797 455 625 305.572265625 c 1,14,15
 707 184 707 184 922.732421875 184 c 2,16,-1
 965 184 l 2,17,18
 989 184 989 184 989 102 c 2,19,-1
 989 77 l 2,20,21
 989 0 989 0 965 0 c 2,22,-1
 919.689453125 0 l 2,23,24
 696 0 696 0 535.125 185.731445312 c 1,25,26
 327.317411785 1.28173423557 327.317411785 1.28173423557 62.0966796875 0.2587890625 c 2,27,-1
 -5 0 l 2,28,29
 -60.3662109375 -0 -60.3662109375 -0 -60.3662109375 77 c 2,30,-1
 -60.3662109375 102 l 2,31,32
 -60 184 -60 184 -5 183.999023438 c 2,0,-1
EndSplineSet
EndChar

StartChar: uniFEDA
Encoding: 65242 65242 226
Width: 1936
VWidth: 3705
GlyphClass: 2
Flags: W
AnchorPoint: "Anchor-10" 887.215 1526.87 basechar 0
AnchorPoint: "Anchor-7" 800.608 -212.552 basechar 0
LayerCount: 2
Fore
SplineSet
1722.58886719 549.653320312 m 2,0,1
 1722.88075593 185.446867629 1722.88075593 185.446867629 1913.01269531 184.19140625 c 2,2,-1
 1942 184 l 2,3,4
 1966 184 1966 184 1966 102 c 2,5,-1
 1966 77 l 2,6,7
 1966 -0.108244780811 1966 -0.108244780811 1942 0 c 2,8,-1
 1913.41894531 0.12890625 l 2,9,10
 1719 1 1719 1 1644.73730469 217 c 1,11,12
 1535.85837203 2 1535.85837203 2 808.87890625 2 c 4,13,14
 477 2 477 2 305.037109375 98.587890625 c 0,15,16
 104 210 104 210 104.243164062 454.830078125 c 0,17,18
 104 625 104 625 174.85546875 766.762695312 c 1,19,-1
 276.431640625 732.233398438 l 1,20,21
 244 613 244 613 243.690429688 523.778320312 c 0,22,23
 244 424 244 424 284.80859375 362.3515625 c 0,24,25
 402 184 402 184 825.046875 184.487304688 c 0,26,27
 1117 185 1117 185 1305.89550781 225.599609375 c 0,28,29
 1480 263 1480 263 1543.30078125 300.086914062 c 0,30,31
 1587 325 1587 325 1586 574 c 0,32,33
 1585 845 1585 845 1574.0234375 996.764648438 c 0,34,35
 1569 1067 1569 1067 1543.86523438 1319.42089844 c 1,36,-1
 1685.09472656 1432.51171875 l 2,37,38
 1721.85776934 1461.88635397 1721.85776934 1461.88635397 1721.89941406 1409.92382812 c 2,39,-1
 1722.58886719 549.653320312 l 2,0,1
848.966796875 1126.08984375 m 0,40,41
 847 1081 847 1081 1004.56347656 1053.05273438 c 0,42,43
 1162 1026 1162 1026 1162.99902344 872.706054688 c 0,44,45
 1164 720 1164 720 1018.08007812 667.928710938 c 0,46,47
 957 646 957 646 862.77734375 649.596679688 c 0,48,49
 768 653 768 653 669.856445312 684.34375 c 1,50,-1
 683.578125 824.89453125 l 1,51,52
 794 786 794 786 885.76953125 787.314453125 c 0,53,54
 1067 790 1067 790 1075.1953125 858.447265625 c 0,55,56
 1077 874 1077 874 1063.83007812 887.377929688 c 0,57,58
 1036 916 1036 916 939.595703125 937.001953125 c 0,59,60
 766 975 766 975 770.80859375 1142.73046875 c 0,61,62
 776 1339 776 1339 1088.7578125 1365.15136719 c 0,63,64
 1145.43876857 1369.84775838 1145.43876857 1369.84775838 1131.62695312 1330.31835938 c 2,65,-1
 1094.68066406 1224.578125 l 1,66,67
 852 1200 852 1200 848.966796875 1126.08984375 c 0,40,41
EndSplineSet
EndChar

StartChar: uniFEDB
Encoding: 65243 65243 227
Width: 975
VWidth: 3745
GlyphClass: 2
Flags: W
AnchorPoint: "Anchor-10" 250.736 1471.92 basechar 0
AnchorPoint: "Anchor-7" 335.081 -261.885 basechar 0
LayerCount: 2
Fore
SplineSet
38.662109375 955.13671875 m 1,0,1
 75.662109375 1143.13671875 l 1,2,-1
 880.387695312 1436.50878906 l 2,3,4
 921.639400838 1451.86575803 921.639400838 1451.86575803 914.7734375 1408.34667969 c 2,5,-1
 892 1264 l 1,6,-1
 219 1033 l 1,7,8
 704 598 704 598 708.224609375 403.499023438 c 0,9,10
 711 269 711 269 619.263671875 173.694335938 c 0,11,12
 452 0 452 0 96.552734375 0 c 2,13,14
 -5 0 l 2,15,16
 -60.3662109375 0 -60.3662109375 0 -60.3662109375 77 c 2,17,-1
 -60.3662109375 102 l 2,18,19
 -60.0000043613 183.999023438 -60.0000043613 183.999023438 -5 183.999023438 c 2,20,-1
 96.5732421875 183.999023438 l 2,21,22
 378 184 378 184 514.095703125 297.864257812 c 0,23,24
 570 345 570 345 567.43359375 395.891601562 c 0,25,26
 561 514 561 514 38.662109375 955.13671875 c 1,0,1
EndSplineSet
EndChar

StartChar: uniFEDC
Encoding: 65244 65244 228
Width: 1211
VWidth: 3745
GlyphClass: 2
Flags: W
AnchorPoint: "Anchor-10" 242.919 1473.12 basechar 0
AnchorPoint: "Anchor-7" 404.945 -250.381 basechar 0
LayerCount: 2
Fore
SplineSet
38.662109375 955.13671875 m 1,0,1
 75.662109375 1143.13671875 l 1,2,-1
 880.387695312 1436.50878906 l 2,3,4
 921.639400838 1451.86575803 921.639400838 1451.86575803 914.7734375 1408.34667969 c 2,5,-1
 892 1264 l 1,6,-1
 219 1033 l 1,7,8
 524 757 524 757 749.3984375 486.853515625 c 4,9,10
 997.722485653 188.333610687 997.722485653 188.333610687 1203.55957031 184.265625 c 2,11,-1
 1217 184 l 2,12,13
 1241 184 1241 184 1241 102 c 2,14,-1
 1241 77 l 2,15,16
 1241 0 1241 0 1217 0 c 2,17,-1
 1203.9765625 0 l 2,18,19
 946 0 946 0 706.791992188 315.80859375 c 1,20,21
 645 171 645 171 482.638671875 78.162109375 c 0,22,23
 346 0 346 0 95.486328125 0 c 2,24,-1
 -5 0 l 2,25,26
 -60.3662109375 0 -60.3662109375 0 -60.3662109375 77 c 2,27,-1
 -60.3662109375 102 l 2,28,29
 -60.0000043613 183.999023438 -60.0000043613 183.999023438 -5 183.999023438 c 2,30,-1
 95.5068359375 183.999023438 l 2,31,32
 383 184 383 184 513.030273438 298.399414062 c 0,33,34
 572 351 572 351 567.137695312 414.953125 c 0,35,36
 560 512 560 512 38.662109375 955.13671875 c 1,0,1
EndSplineSet
EndChar

StartChar: uniFEDE
Encoding: 65246 65246 230
Width: 1379
VWidth: 3705
GlyphClass: 2
Flags: W
AnchorPoint: "Anchor-10" 587.374 1003.89 basechar 0
AnchorPoint: "Anchor-7" 626.521 -751.186 basechar 0
LayerCount: 2
Fore
SplineSet
663.125 -359.364257812 m 0,0,1
 1038 -360 1038 -360 1055.62597656 -32 c 0,2,3
 1059 30 1059 30 1055.85449219 114 c 0,4,5
 1011 1251 1011 1251 998.236328125 1322.83886719 c 1,6,-1
 1137 1410 l 2,7,8
 1165.18665131 1428.11999013 1165.18665131 1428.11999013 1166 1392 c 2,9,-1
 1189.19238281 362.049804688 l 2,10,11
 1193 184 1193 184 1360.6015625 184 c 6,12,-1
 1385 184 l 6,13,14
 1409 184 1409 184 1409 102 c 6,15,-1
 1409 77 l 6,16,17
 1409 0 1409 0 1385 0 c 6,18,-1
 1362.36328125 0 l 6,19,20
 1256 0 1256 0 1195.76660156 88.3427734375 c 1,21,22
 1195 -535 1195 -535 666.619140625 -538.935546875 c 0,23,24
 381 -541 381 -541 237.024414062 -386.934570312 c 0,25,26
 107 -246 107 -246 106.561523438 -25.052734375 c 0,27,28
 107 164 107 164 209.770507812 384.857421875 c 1,29,-1
 320.032226562 352.3203125 l 1,30,31
 260 159 260 159 260.487304688 18.580078125 c 0,32,33
 260 -359 260 -359 663.125 -359.364257812 c 0,0,1
EndSplineSet
EndChar

StartChar: uniFEDF
Encoding: 65247 65247 231
Width: 556
VWidth: 3705
GlyphClass: 2
Flags: W
AnchorPoint: "Anchor-10" 258.796 1532.56 basechar 0
AnchorPoint: "Anchor-7" 183.305 -251.229 basechar 0
LayerCount: 2
Fore
SplineSet
-5 183.999023438 m 2,0,-1
 16.552734375 183.999023438 l 2,1,2
 136 184 136 184 188 207.721679688 c 4,3,4
 265.926981028 243.507249039 265.926981028 243.507249039 273.282226562 367 c 0,5,6
 279 463 279 463 268.478515625 672.23046875 c 0,7,8
 257 887 257 887 212.827148438 1323.14941406 c 1,9,-1
 340 1403.48046875 l 2,10,11
 379.557213581 1427.72857711 379.557213581 1427.72857711 381 1386 c 2,12,-1
 410.239257812 540.3359375 l 2,13,14
 420 272 420 272 365.708007812 163.354492188 c 0,15,16
 285 0 285 0 10.892578125 0 c 2,17,-1
 -5 0 l 2,18,19
 -60.3662109375 0 -60.3662109375 0 -60.3662109375 77 c 2,20,-1
 -60.3662109375 102 l 2,21,22
 -60 184 -60 184 -5 183.999023438 c 2,0,-1
EndSplineSet
EndChar

StartChar: uniFEE0
Encoding: 65248 65248 232
Width: 621
VWidth: 3705
GlyphClass: 2
Flags: W
AnchorPoint: "Anchor-10" 288.267 1518.21 basechar 0
AnchorPoint: "Anchor-7" 284.362 -247.795 basechar 0
LayerCount: 2
Fore
SplineSet
-5 183.999023438 m 2,0,-1
 39.7373046875 183.999023438 l 2,1,2
 112 184 112 184 155 207.032226562 c 0,3,4
 252 259 252 259 268.838867188 370 c 4,5,6
 278 434 278 434 274.017578125 532 c 4,7,8
 252 1035 252 1035 238.544921875 1324.41601562 c 5,9,-1
 382 1413 l 6,10,11
 407.186523438 1429.119375 407.186523438 1429.119375 407.186523438 1392 c 6,12,-1
 407.186523438 430.708984375 l 6,13,14
 406.999994668 183.992947365 406.999994668 183.992947365 596.537109375 183.999023438 c 6,15,-1
 627 184 l 6,16,17
 651 184 651 184 651 102 c 6,18,-1
 651 77 l 6,19,20
 651 0 651 0 627 0 c 6,21,-1
 596.051757812 0 l 6,22,23
 419 0 419 0 324.0078125 147.907226562 c 5,24,25
 209 0 209 0 46.2060546875 0 c 2,26,-1
 -5 0 l 2,27,28
 -60.3662109375 0 -60.3662109375 0 -60.3662109375 77 c 2,29,-1
 -60.3662109375 102 l 2,30,31
 -60 184 -60 184 -5 183.999023438 c 2,0,-1
EndSplineSet
EndChar

StartChar: uniFEE2
Encoding: 65250 65250 234
Width: 1249
VWidth: 3782
GlyphClass: 2
Flags: W
AnchorPoint: "Anchor-10" 569.784 1171.23 basechar 0
AnchorPoint: "Anchor-7" 201.916 -827.977 basechar 0
LayerCount: 2
Fore
SplineSet
1255 0 m 6,0,-1
 1248.08691406 0 l 6,1,2
 1137 0 1137 0 1057 76 c 5,3,4
 978 -193 978 -193 774.975585938 -193.045898438 c 4,5,6
 493.065429688 -193 493.065429688 -193 491.208007812 158.155273438 c 6,7,8
 490.407226562 309.524414062 l 5,9,10
 312 256 312 256 246.500976562 144.25390625 c 5,11,-1
 261.356445312 -479.451171875 l 6,12,13
 263 -543 263 -543 160.544921875 -648.950195312 c 4,14,15
 144 -666 144 -666 133.09375 -666.153320312 c 4,16,17
 117.758789062 -665.997070312 117.758789062 -665.997070312 116.5 -629.165039062 c 6,18,-1
 103.159179688 -238.676757812 l 6,19,20
 101 -175 101 -175 100.885742188 -76.337890625 c 4,21,22
 101 13 101 13 108.723632812 90.7021484375 c 4,23,24
 124 244 124 244 239.178710938 360.98828125 c 4,25,26
 354 478 354 478 516.522460938 493.297851562 c 5,27,28
 538 594 538 594 561.303710938 639.526367188 c 4,29,30
 571.9140625 660.828125 571.9140625 660.828125 591.916015625 645.4765625 c 6,31,-1
 1098.52636719 256.651367188 l 6,32,33
 1193.00683594 183.994140625 1193.00683594 183.994140625 1243.79296875 183.999023438 c 6,34,-1
 1255 184 l 6,35,36
 1279 184 1279 184 1279 102 c 6,37,-1
 1279 77 l 6,38,39
 1279 0 1279 0 1255 0 c 6,0,-1
626.899414062 394.45703125 m 5,40,-1
 626.67578125 163.111328125 l 6,41,42
 627 -9 627 -9 786.8828125 -9.755859375 c 4,43,44
 879 -10 879 -10 913.763671875 63.1689453125 c 4,45,46
 926 89 926 89 926.014648438 130.701171875 c 4,47,48
 926 175 926 175 861.763671875 235.66015625 c 4,49,50
 778 314 778 314 626.899414062 394.45703125 c 5,40,-1
EndSplineSet
EndChar

StartChar: uniFEE3
Encoding: 65251 65251 235
Width: 1008
VWidth: 3749
GlyphClass: 2
Flags: W
AnchorPoint: "Anchor-10" 543.686 1120.83 basechar 0
AnchorPoint: "Anchor-7" 517.424 -258.974 basechar 0
LayerCount: 2
Fore
SplineSet
-5 183.999023438 m 2,0,-1
 11.01953125 183.999023438 l 2,1,2
 94 184 94 184 194 317 c 0,3,4
 315.914149055 476.901891151 315.914149055 476.901891151 387.878927003 566 c 0,5,6
 491.263705064 693.998563623 491.263705064 693.998563623 606.325195312 694.09375 c 4,7,8
 718 694 718 694 790.948242188 598.036132812 c 0,9,10
 907 447 907 447 907.232603351 289.963508471 c 0,11,12
 907 132 907 132 808.014648438 39.3388671875 c 0,13,14
 749 -17 749 -17 689.65625 -17.083984375 c 0,15,16
 548 -17 548 -17 295.989257812 179.768554688 c 1,17,18
 159 0 159 0 12.4541015625 0 c 2,19,-1
 -5 0 l 2,20,21
 -60.3662109375 0 -60.3662109375 0 -60.3662109375 77 c 2,22,-1
 -60.3662109375 102 l 2,23,24
 -60 184 -60 184 -5 183.999023438 c 2,0,-1
396.130859375 330.145507812 m 1,25,26
 577 174 577 174 675.114503226 173.997705898 c 0,27,28
 717 174 717 174 744.59375 202.744140625 c 128,-1,29
 772.288173863 231.297107417 772.288173863 231.297107417 772.249229211 279 c 0,30,31
 772.191487528 349.727177387 772.191487528 349.727177387 724.272460938 418 c 0,32,33
 661 509 661 509 605.106000554 509.497915714 c 0,34,35
 519 509 519 509 396.130859375 330.145507812 c 1,25,26
EndSplineSet
EndChar

StartChar: uniFEE4
Encoding: 65252 65252 236
Width: 1145
VWidth: 3749
GlyphClass: 2
Flags: W
AnchorPoint: "Anchor-10" 573.076 1072.23 basechar 0
AnchorPoint: "Anchor-7" 517.449 -276.66 basechar 0
LayerCount: 2
Fore
SplineSet
-5 183.999023438 m 6,0,-1
 31.01953125 183.999023438 l 6,1,2
 135 184 135 184 221 291 c 4,3,4
 375 479 375 479 441 548.827082645 c 4,5,6
 521 633 521 633 621.812432367 633.01036761 c 4,7,8
 710 633 710 633 772.264648438 569.344726562 c 4,9,10
 851 490 851 490 944.547851562 301.848632812 c 4,11,12
 1003 184 1003 184 1133.34765625 184 c 6,13,-1
 1151 184 l 6,14,15
 1175 184 1175 184 1175 102 c 6,16,-1
 1175 77 l 6,17,18
 1175 0 1175 0 1151 0 c 6,19,-1
 1133.44726562 0 l 6,20,21
 991 0 991 0 887.565429688 110.67578125 c 5,22,23
 802 -41 802 -41 687.361363656 -41.6969341923 c 4,24,25
 538 -42 538 -42 306.024414062 139.534179688 c 5,26,27
 195 0 195 0 32.4541015625 0 c 6,28,-1
 -5 0 l 6,29,30
 -60.3662109375 0 -60.3662109375 0 -60.3662109375 77 c 6,31,-1
 -60.3662109375 102 l 6,32,33
 -60 184 -60 184 -5 183.999023438 c 6,0,-1
416.134765625 284.944335938 m 5,34,35
 583 140 583 140 678.0859375 139.565429688 c 4,36,37
 784.423451836 140.109640216 784.423451836 140.109640216 784.423451836 250.783921418 c 4,38,39
 784.423451836 316.296501602 784.423451836 316.296501602 735.3828125 383.169921875 c 4,40,41
 680 459 680 459 610.704101562 458.977539062 c 4,42,43
 536 459 536 459 416.134765625 284.944335938 c 5,34,35
EndSplineSet
EndChar

StartChar: uniFEEA
Encoding: 65258 65258 242
Width: 1016
VWidth: 3733
GlyphClass: 2
Flags: W
AnchorPoint: "Anchor-10" 587.224 1208.82 basechar 0
AnchorPoint: "Anchor-7" 432.803 -196.268 basechar 0
LayerCount: 2
Fore
SplineSet
1022 0 m 6,0,-1
 990.321289062 0 l 6,1,2
 769 0 769 0 684.489257812 236.897460938 c 5,3,-1
 512.211914062 135.474609375 l 5,4,-1
 511.369140625 135.487304688 l 6,5,6
 132 141 132 141 101.947265625 260.927734375 c 4,7,8
 93 297 93 297 92.4579552204 382.812538671 c 4,9,10
 92 441 92 441 106.29296875 487.627929688 c 4,11,12
 159 668 159 668 555.028320312 803.076171875 c 5,13,-1
 542.123046875 869.541015625 l 5,14,-1
 623.490234375 965.895507812 l 6,15,16
 636 981 636 981 641.3359375 983.454101562 c 4,17,18
 662.870674617 992.943014983 662.870674617 992.943014983 675 933 c 6,19,-1
 781.866210938 404.868164062 l 6,20,21
 827 184 827 184 991.045898438 184 c 6,22,-1
 1022 184 l 6,23,24
 1046 184 1046 184 1046 102 c 6,25,-1
 1046 77 l 6,26,27
 1046 0 1046 0 1022 0 c 6,0,-1
234.090820312 393.059570312 m 4,28,29
 266.380723526 328.274307637 266.380723526 328.274307637 503.953025085 328.274307637 c 4,30,31
 545.296736652 328.274307637 545.296736652 328.274307637 592.857421875 330.236328125 c 6,32,-1
 655.029296875 332.8828125 l 5,33,-1
 588.43359375 633.127929688 l 5,34,35
 317 548 317 548 260 488 c 4,36,37
 227.128363033 453.758711493 227.128363033 453.758711493 227.128363033 421.890292325 c 4,38,39
 227.128363033 407.223635628 227.128363033 407.223635628 234.090820312 393.059570312 c 4,28,29
EndSplineSet
EndChar

StartChar: uniFEEB
Encoding: 65259 65259 243
Width: 1226
VWidth: 3739
GlyphClass: 2
Flags: W
AnchorPoint: "Anchor-10" 538.316 1341.29 basechar 0
AnchorPoint: "Anchor-7" 525.812 -214.204 basechar 0
LayerCount: 2
Fore
SplineSet
-5 183.999023438 m 2,0,-1
 59.1103515625 184 l 2,1,2
 264 184 264 184 347.5546875 215.177734375 c 1,3,4
 146 289 146 289 143.479748646 452.587715486 c 0,5,6
 143 481 143 481 150.268554688 513.397460938 c 0,7,8
 193 712 193 712 389.01171875 830.481445312 c 1,9,-1
 257.727539062 884.189453125 l 1,10,-1
 320.350585938 1056.64550781 l 1,11,-1
 701.23046875 876.831054688 l 1,12,13
 1125 676 1125 676 1125.83121916 418.535769481 c 0,14,15
 1126 383 1126 383 1117.86230469 347.336914062 c 0,16,17
 1093 234 1093 234 1032 152.5 c 0,18,19
 962 59 962 59 868.555847153 59.4867263815 c 0,20,21
 775 59 775 59 502.42578125 142.095703125 c 1,22,23
 283 0 283 0 47.8837890625 0 c 2,24,-1
 -5 0 l 2,25,26
 -60.3662109375 0 -60.3662109375 0 -60.3662109375 77 c 2,27,-1
 -60.3662109375 102 l 2,28,29
 -60 184 -60 184 -5 183.999023438 c 2,0,-1
644.173828125 288.377929688 m 1,30,31
 819 227 819 227 925.875976562 221.157226562 c 1,32,33
 989.621165966 326.26182515 989.621165966 326.26182515 989.621165966 403.274089449 c 0,34,35
 989.621165966 441.183696159 989.621165966 441.183696159 974.174804688 472.286132812 c 0,36,37
 941 539 941 539 772.520507812 618.564453125 c 1,38,39
 772.817621302 609.826226717 772.817621302 609.826226717 772.817621302 601.195113277 c 0,40,41
 772.817621302 421.597708062 772.817621302 421.597708062 644.173828125 288.377929688 c 1,30,31
505.2734375 336.993164062 m 1,42,43
 609 404 609 404 645.170898438 549.45703125 c 0,44,45
 652.145665357 577.186614208 652.145665357 577.186614208 652.145665357 600.544617322 c 0,46,47
 652.145665357 683.780033323 652.145665357 683.780033323 563.578125 711.50390625 c 0,48,49
 533.950930689 720.722366578 533.950930689 720.722366578 506.180304621 720.722366578 c 0,50,51
 405.931382206 720.722366578 405.931382206 720.722366578 329.875976562 600.59375 c 0,52,53
 284.310554678 528.881209501 284.310554678 528.881209501 284.310554678 487.901035197 c 128,-1,54
 284.310554678 446.920860894 284.310554678 446.920860894 319.830078125 419.421875 c 0,55,56
 391 366 391 366 505.2734375 336.993164062 c 1,42,43
EndSplineSet
EndChar

StartChar: uniFEEC
Encoding: 65260 65260 244
Width: 928
VWidth: 3768
GlyphClass: 2
Flags: W
AnchorPoint: "Anchor-7" 339.865 -725.584 basechar 0
AnchorPoint: "Anchor-10" 439.619 1211.17 basechar 0
LayerCount: 2
Fore
SplineSet
-5 183.999023438 m 2,0,-1
 164.1796875 184.375 l 1,1,2
 200 493 200 493 317.288827444 696 c 0,3,4
 403 844 403 844 458.487304688 844.541015625 c 0,5,6
 497 845 497 845 580.112697247 757 c 0,7,8
 727 602 727 602 727.180664062 410.434570312 c 4,9,10
 727 222 727 222 612.439453125 121.495117188 c 0,11,12
 496 19 496 19 302.770507812 -0.92578125 c 1,13,14
 374 -181 374 -181 541.434570312 -308.951171875 c 1,15,16
 600 184 600 184 911.092773438 184 c 2,17,-1
 934 184 l 2,18,19
 958 184 958 184 958 102 c 2,20,-1
 958 77 l 2,21,22
 958 0 958 0 934 0 c 2,23,-1
 904.28515625 0 l 2,24,25
 696 0 696 0 695.977539062 -257.297851562 c 0,26,27
 696 -354 696 -354 718.635742188 -429.940429688 c 1,28,-1
 586.017578125 -550.971679688 l 1,29,30
 217 -287 217 -287 171.772460938 0.109375 c 1,31,-1
 -5 0 l 2,32,33
 -60.3662109375 -0 -60.3662109375 -0 -60.3662109375 77 c 2,34,-1
 -60.3662109375 102 l 2,35,36
 -60 184 -60 184 -5 183.999023438 c 2,0,-1
291.271484375 186.501953125 m 1,37,38
 606 197 606 197 606.0546875 359.203125 c 0,39,40
 606 458 606 458 443.221679688 642.567382812 c 1,41,42
 336 476 336 476 291.271484375 186.501953125 c 1,37,38
EndSplineSet
EndChar

StartChar: uniFEEE
Encoding: 65262 65262 246
Width: 816
VWidth: 3773
GlyphClass: 2
Flags: W
AnchorPoint: "Anchor-7" 356.313 -677.669 basechar 0
AnchorPoint: "Anchor-10" 406.024 1186.41 basechar 0
LayerCount: 2
Fore
SplineSet
687.921875 -0 m 21,0,1
 647 -196 647 -196 512 -368 c 0,2,3
 444 -454 444 -454 373 -488 c 0,4,5
 324 -511 324 -511 260.845703125 -510.8984375 c 0,6,7
 192 -511 192 -511 134 -493 c 0,8,9
 79 -476 79 -476 78.484375 -453.580078125 c 0,10,11
 78 -439 78 -439 149.7890625 -402.438476562 c 0,12,13
 414 -268 414 -268 534.204101562 -60 c 0,14,15
 552 -29 552 -29 559.234375 0.3994140625 c 1,16,-1
 431.193359375 0 l 2,17,18
 235 -1 235 -1 163.512695312 69.6064453125 c 0,19,20
 96 137 96 137 103.560546875 261.30078125 c 0,21,22
 112 401 112 401 172 515.98046875 c 0,23,24
 250 668 250 668 400.532226562 667.788085938 c 0,25,26
 563 668 563 668 647.97265625 480.303710938 c 0,27,28
 699 368 699 368 702.544921875 184 c 5,29,-1
 822 184 l 6,30,31
 846 184 846 184 846 102 c 6,32,-1
 846 77 l 6,33,34
 846 0 846 0 822 0 c 6,35,-1
 687.921875 -0 l 21,0,1
563.814453125 184.555664062 m 1,36,37
 551 347 551 347 495.333007812 428 c 0,38,39
 452 491 452 491 391.065429688 490.7421875 c 0,40,41
 297 491 297 491 260.943359375 383.198242188 c 0,42,43
 241 322 241 322 241.311523438 278.197265625 c 0,44,45
 241 216 241 216 305.215820312 193.265625 c 0,46,47
 337 182 337 182 461.477539062 182.672851562 c 0,48,49
 496 183 496 183 563.814453125 184.555664062 c 1,36,37
EndSplineSet
EndChar

StartChar: uniFEF0
Encoding: 65264 65264 248
Width: 1441
VWidth: 3745
GlyphClass: 2
Flags: W
AnchorPoint: "Anchor-10" 684.539 784.408 basechar 0
AnchorPoint: "Anchor-7" 645.513 -714.205 basechar 0
LayerCount: 2
Fore
SplineSet
691.813476562 -351.276367188 m 0,0,1
 991 -351 991 -351 1125.73242188 -215.44140625 c 0,2,3
 1163 -178 1163 -178 1163.23632812 -143.415039062 c 0,4,5
 1163 -101 1163 -101 1107.39355469 -61.5849609375 c 0,6,7
 1037 -12 1037 -12 945.193359375 -2.484375 c 0,8,9
 852 7 852 7 840.94921875 12.671875 c 0,10,11
 830 18 830 18 833.204101562 44.79296875 c 0,12,13
 851 184 851 184 922.348632812 184 c 2,14,-1
 1447 184 l 6,15,16
 1471 184 1471 184 1471 102 c 6,17,-1
 1471 77 l 6,18,19
 1471 -0.121669220513 1471 -0.121669220513 1447 0 c 6,20,-1
 1250.70703125 0.9951171875 l 1,21,22
 1315 -46 1315 -46 1315.0703125 -124.166015625 c 0,23,24
 1315 -233 1315 -233 1215 -335.475585938 c 0,25,26
 1023 -531 1023 -531 682.483398438 -530.856445312 c 24,27,28
 455 -531 455 -531 303 -434.66796875 c 0,29,30
 107 -311 107 -311 106.9296875 -34.5048828125 c 0,31,32
 107 169 107 169 204.79296875 384.94140625 c 1,33,-1
 315.0546875 352.40234375 l 1,34,35
 258 165 258 165 257.880859375 13.18359375 c 0,36,37
 258 -352 258 -352 691.813476562 -351.276367188 c 0,0,1
EndSplineSet
EndChar

StartChar: uniFEFB
Encoding: 65275 65275 259
Width: 1197
VWidth: 3705
GlyphClass: 3
Flags: W
AnchorPoint: "Anchor-9" 147.839 1594.33 baselig 1
AnchorPoint: "Anchor-9" 896.282 1557.62 baselig 0
AnchorPoint: "Anchor-6" 900.383 -179.223 baselig 0
AnchorPoint: "Anchor-6" 263.478 -263.959 baselig 1
LayerCount: 2
Fore
SplineSet
603.092773438 196.850585938 m 5,0,1
 454 693 454 693 102 1169 c 5,2,-1
 253.931640625 1282.8828125 l 5,3,4
 533 838 533 838 721.35546875 252.651367188 c 5,5,6
 893 348 893 348 907.798828125 489.8671875 c 4,7,8
 924 649 924 649 855.234375 1325.09863281 c 5,9,-1
 995 1409 l 6,10,11
 1023.85751366 1425.91647352 1023.85751366 1425.91647352 1025 1390 c 6,12,13
 1048.72851562 644.043945312 l 6,14,15
 1059 323 1059 323 878.654296875 149.124023438 c 4,16,17
 697.903160755 -24.0928026624 697.903160755 -24.0928026624 235.874023438 -25.8291015625 c 6,18,-1
 233.275390625 -25.8388671875 l 5,19,20
 152 82 152 82 143.658203125 107.208984375 c 4,21,22
 136 130 136 130 146.59375 130.485351562 c 4,23,24
 471 151 471 151 603.092773438 196.850585938 c 5,0,1
EndSplineSet
LCarets2: 1 0
Ligature2: "'rlig' Required Ligatures in Arabic lookup 16 subtable" uniFEDF uniFE8E
EndChar

StartChar: uniFEFC
Encoding: 65276 65276 260
Width: 1251
VWidth: 3705
GlyphClass: 3
Flags: W
AnchorPoint: "Anchor-9" 896.282 1557.62 baselig 0
AnchorPoint: "Anchor-6" 931.695 -210.265 baselig 0
AnchorPoint: "Anchor-6" 258.932 -246.661 baselig 1
AnchorPoint: "Anchor-9" 147.839 1594.33 baselig 1
LayerCount: 2
Fore
SplineSet
1257 0 m 6,0,-1
 1226.6796875 0 l 6,1,2
 1012 0 1012 0 951.197265625 265.041992188 c 5,3,4
 762 -25 762 -25 233.275390625 -25.8388671875 c 5,5,6
 152 82 152 82 143.658203125 107.208984375 c 4,7,8
 136 130 136 130 146.59375 130.485351562 c 4,9,10
 471 151 471 151 602.092773438 196.850585938 c 5,11,12
 452 695 452 695 102 1169 c 5,13,-1
 253.931640625 1282.8828125 l 5,14,15
 533 838 533 838 721.35546875 252.651367188 c 5,16,17
 892 351 892 351 907.793945312 519.810546875 c 4,18,19
 912 564 912 564 911.51953125 627.924804688 c 4,20,21
 912 772 912 772 855.23046875 1324.09472656 c 5,22,-1
 996 1411 l 6,23,24
 1023.58064325 1427.74539054 1023.58064325 1427.74539054 1025 1385 c 6,25,-1
 1052.99316406 541.95703125 l 6,26,27
 1064.99107237 187.263926671 1064.99107237 187.263926671 1227.01171875 184.509765625 c 6,28,-1
 1257 184 l 6,29,30
 1281 184 1281 184 1281 102 c 6,31,-1
 1281 77 l 6,32,33
 1281 0 1281 0 1257 0 c 6,0,-1
EndSplineSet
LCarets2: 1 0
Ligature2: "'rlig' Required Ligatures in Arabic lookup 16 subtable" uniFEE0 uniFE8E
EndChar

StartChar: arabic_dot
Encoding: 65536 -1 261
Width: 233
VWidth: 3243
GlyphClass: 2
Flags: W
LayerCount: 2
Fore
SplineSet
128.224922417 262.752535769 m 2,0,-1
 251.634773213 139.343659963 l 6,1,2
 260.495457557 129.930276127 260.495457557 129.930276127 249.018858176 117.783586824 c 6,3,-1
 130.684738366 -0.551511981399 l 2,4,5
 116.098369592 -14.4169133456 116.098369592 -14.4169133456 101.857950593 -0.177205656644 c 2,6,-1
 -14.3186485966 115.99939352 l 2,7,8
 -27.5535571732 129.97904538 -27.5535571732 129.97904538 -13.7353475372 144.327071589 c 2,9,-1
 104.917660803 262.980079931 l 2,10,11
 116.866515843 274.112269495 116.866515843 274.112269495 128.224922417 262.752535769 c 2,0,-1
EndSplineSet
EndChar

StartChar: arabic_2dots
Encoding: 65537 -1 262
Width: 612
VWidth: 3243
GlyphClass: 2
Flags: W
LayerCount: 2
Fore
SplineSet
469.197265625 1.3671875 m 2,0,1
 455.959960938 -12.1826171875 455.959960938 -12.1826171875 442.42578125 1.3515625 c 2,2,-1
 331.111328125 112.66796875 l 2,3,4
 317.782226562 126.221679688 317.782226562 126.221679688 331.614257812 140.053710938 c 2,5,-1
 444.680664062 253.120117188 l 2,6,7
 456 264 456 264 466.862304688 253.186523438 c 2,8,-1
 585.596679688 134.451171875 l 2,9,10
 594.561576972 126.158709131 594.561576972 126.158709131 582.696289062 114.8671875 c 2,11,-1
 469.197265625 1.3671875 l 2,0,1
165.53515625 253.181640625 m 2,12,-1
 283.888671875 134.828125 l 2,13,14
 291.908237828 125.410373439 291.908237828 125.410373439 281.313476562 114.815429688 c 2,15,-1
 167.919921875 1.419921875 l 2,16,17
 154.227664605 -11.7805130488 154.227664605 -11.7805130488 141.177734375 1.26953125 c 2,18,-1
 29.455078125 112.993164062 l 2,19,20
 16.116752009 125.887137465 16.116752009 125.887137465 30.283203125 140.053710938 c 2,21,-1
 143.349609375 253.12109375 l 2,22,23
 154 264 154 264 165.53515625 253.181640625 c 2,12,-1
EndSplineSet
EndChar

StartChar: arabic_3dots
Encoding: 65538 -1 263
Width: 590
VWidth: 3243
GlyphClass: 2
Flags: W
LayerCount: 2
Fore
SplineSet
302.28257586 445.682570015 m 2,0,-1
 413.414213562 334.550932312 l 2,1,2
 421.065243531 326.899902344 421.065243531 326.899902344 414.202312136 320.036970949 c 2,3,-1
 304.906313084 210.739018776 l 2,4,5
 295.642490152 201.476348349 295.642490152 201.476348349 286.379718873 210.739119626 c 2,6,-1
 179.12826434 317.992535514 l 2,7,8
 170.199407463 326.878420526 170.199407463 326.878420526 179.647303558 336.326316619 c 2,9,-1
 288.943338938 445.62332855 l 2,10,11
 295.64505839 452.323810154 295.64505839 452.323810154 302.28257586 445.682570015 c 2,0,-1
448.246537372 219.318217877 m 2,12,-1
 560.414213562 107.150541688 l 2,13,14
 567.032339713 100.470265251 567.032339713 100.470265251 560.200421681 93.6376195611 c 2,15,-1
 450.187050188 -16.3874692988 l 2,16,17
 441.804841071 -25.0845259119 441.804841071 -25.0845259119 432.37972531 -15.6593243098 c 2,18,-1
 325.135681887 91.585695862 l 2,19,20
 316.478389511 100.75782464 316.478389511 100.75782464 325.647297238 109.926896237 c 2,21,-1
 434.958040341 219.239592992 l 2,22,23
 442.095920277 225.805752526 442.095920277 225.805752526 448.246537372 219.318217877 c 2,12,-1
268.202312177 93.6385334895 m 2,24,-1
 159.270589996 -15.2951416068 l 2,25,26
 149.802527831 -25.0802595081 149.802527831 -25.0802595081 140.381678436 -15.6593243098 c 2,27,-1
 33.1377260832 91.5856047897 l 2,28,29
 24.4792361902 100.756636191 24.4792361902 100.756636191 33.649244041 109.926889915 c 2,30,-1
 142.913892479 219.194468041 l 2,31,32
 150.031244417 225.168459363 150.031244417 225.168459363 156.201139985 219.366544929 c 2,33,-1
 267.41403061 108.182423202 l 2,34,35
 274.974306945 100.624102583 274.974306945 100.624102583 268.202312177 93.6385334895 c 2,24,-1
EndSplineSet
EndChar

StartChar: arabic_3dots_a
Encoding: 65539 -1 264
Width: 636
VWidth: 3243
GlyphClass: 2
Flags: W
LayerCount: 2
Fore
SplineSet
325.28257586 -205.400343452 m 2,0,1
 318.645058397 -212.041583584 318.645058397 -212.041583584 311.943201995 -205.340965056 c 2,2,-1
 202.647309876 -96.0440963749 l 2,3,4
 193.199411608 -86.596198108 193.199411608 -86.596198108 202.124836061 -77.7137290016 c 2,5,-1
 309.37973175 29.5431198124 l 2,6,7
 318.642490148 38.8058782104 318.642490148 38.8058782104 327.906413698 29.5431071764 c 2,8,-1
 437.2022995 -79.7547317502 l 2,9,10
 439.393152932 -81.9455851817 439.393152932 -81.9455851817 440.006743125 -84.4408034039 c 128,-1,11
 440.620333318 -86.9360216262 440.620333318 -86.9360216262 439.689975503 -89.4294779881 c 128,-1,12
 438.759617689 -91.92293435 438.759617689 -91.92293435 436.414213562 -94.2687057499 c 2,13,-1
 325.28257586 -205.400343452 l 2,0,1
471.246537372 20.9640086851 m 2,14,15
 465.095920276 14.4764740366 465.095920276 14.4764740366 457.95804034 21.0426335708 c 2,16,-1
 348.647309876 130.355317688 l 2,17,18
 339.47844167 139.524185893 339.47844167 139.524185893 348.135671421 148.696520235 c 2,19,-1
 455.37973175 255.941557312 l 2,20,21
 458.315072224 258.876897786 458.315072224 258.876897786 461.384621108 259.991222085 c 128,-1,22
 464.454169992 261.105546384 464.454169992 261.105546384 467.480786646 260.277671079 c 128,-1,23
 470.5074033 259.449795773 470.5074033 259.449795773 473.187025111 256.669720942 c 2,24,-1
 583.200346374 146.644682312 l 2,25,26
 590.063778687 139.78125 590.063778687 139.78125 583.414213562 133.131684876 c 2,27,-1
 471.246537372 20.9640086851 l 2,14,15
291.20230584 146.643699411 m 2,28,29
 298.081688222 139.764317029 298.081688222 139.764317029 290.414033464 132.1002548 c 2,30,-1
 179.200994699 20.9155364008 l 2,31,32
 173.80501104 15.5220566777 173.80501104 15.5220566777 166.180513339 20.8639703793 c 0,33,-1
 165.913892479 21.087758522 l 1,34,-1
 56.6492630001 130.355317688 l 2,35,36
 47.4792398954 139.525340793 47.4792398954 139.525340793 56.1377163024 148.696611992 c 2,37,-1
 163.381684876 255.941557312 l 2,38,39
 172.802813838 265.362686276 172.802813838 265.362686276 182.27060788 255.577350286 c 2,40,-1
 291.20230584 146.643699411 l 2,28,29
EndSplineSet
EndChar

StartChar: uni066E.fina
Encoding: 65540 -1 265
Width: 1942
VWidth: 3745
GlyphClass: 2
Flags: W
AnchorPoint: "Anchor-10" 1039.91 1792.78 basechar 0
AnchorPoint: "Anchor-7" 970.749 -375.569 basechar 0
LayerCount: 2
Fore
SplineSet
1948 0 m 2,0,-1
 1929.09960938 0 l 2,1,2
 1653 0 1653 0 1598.88574219 225.639648438 c 1,3,4
 1430 2 1430 2 815.678710938 2 c 0,5,6
 477 2 477 2 305.037109375 98.587890625 c 0,7,8
 104 210 104 210 104.243164062 454.830078125 c 0,9,10
 104 625 104 625 174.85546875 766.762695312 c 1,11,-1
 276.431640625 732.233398438 l 1,12,13
 244 613 244 613 243.690429688 523.778320312 c 0,14,15
 244 424 244 424 284.80859375 362.3515625 c 0,16,17
 405 184 405 184 818.309570312 184.650390625 c 0,18,19
 1513 186 1513 186 1571.9296875 448.161132812 c 6,20,-1
 1588.91503906 524.150390625 l 5,21,-1
 1705.26464844 511.140625 l 5,22,-1
 1703.81445312 475.5625 l 6,23,24
 1703 456 1703 456 1703 437 c 4,25,26
 1703 184 1703 184 1921.35351562 184 c 2,27,-1
 1948 184 l 2,28,29
 1972 184 1972 184 1972 102 c 2,30,-1
 1972 77 l 2,31,32
 1972 0 1972 0 1948 0 c 2,0,-1
EndSplineSet
EndChar

StartChar: uni06A1.fina
Encoding: 65543 -1 266
Width: 1893
VWidth: 3740
GlyphClass: 2
Flags: W
AnchorPoint: "Anchor-10" 746.262 1972.83 basechar 0
AnchorPoint: "Anchor-7" 933.447 -460.558 basechar 0
LayerCount: 2
Fore
SplineSet
1621.99316406 216.904296875 m 1,0,1
 1722 184 1722 184 1864.953125 184 c 2,2,-1
 1899 184 l 2,3,4
 1923 184 1923 184 1923 102 c 2,5,-1
 1923 77 l 2,6,7
 1923 0 1923 0 1899 0 c 2,8,-1
 1862.36328125 0 l 6,9,10
 1637 0 1637 0 1469.5859375 118.1484375 c 1,11,12
 1259 2 1259 2 816.678710938 2 c 0,13,14
 478 2 478 2 306.037109375 98.587890625 c 0,15,16
 105 212 105 212 105.243164062 454.830078125 c 0,17,18
 105 625 105 625 175.85546875 766.762695312 c 1,19,-1
 277.431640625 732.233398438 l 1,20,21
 245 613 245 613 244.690429688 523.778320312 c 0,22,23
 245 424 245 424 285.80859375 362.3515625 c 0,24,25
 403 185 403 185 819.309570312 184.650390625 c 0,26,27
 1121 185 1121 185 1298.21875 224.7890625 c 1,28,29
 1167 326 1167 326 1167.98925781 482.473632812 c 0,30,31
 1169 592 1169 592 1237.17480469 693.913085938 c 0,32,33
 1335 839 1335 839 1472.30859375 839.40625 c 0,34,35
 1609 839 1609 839 1708.10644531 696.874023438 c 0,36,37
 1774 602 1774 602 1774.03515625 501.180664062 c 0,38,39
 1775 332 1775 332 1621.99316406 216.904296875 c 1,0,1
1594.86035156 557.317382812 m 0,40,41
 1538 644 1538 644 1470.58984375 643.643554688 c 0,42,43
 1390 644 1390 644 1333.59375 535.94921875 c 0,44,45
 1315 499 1315 499 1314.86621094 463.94921875 c 0,46,47
 1315 405 1315 405 1371.53613281 349.357421875 c 0,48,49
 1447.64941406 275.314453125 1447.64941406 275.314453125 1481.58984375 276.69140625 c 0,50,51
 1513 278 1513 278 1569.18066406 347.94921875 c 0,52,53
 1626 417 1626 417 1625.56738281 473.12109375 c 0,54,55
 1626 512 1626 512 1594.86035156 557.317382812 c 0,40,41
EndSplineSet
EndChar

StartChar: uni06A1.init
Encoding: 65544 -1 267
Width: 832
VWidth: 3773
GlyphClass: 2
Flags: W
AnchorPoint: "Anchor-10" 487.044 2032.37 basechar 0
AnchorPoint: "Anchor-7" 404.877 -373.909 basechar 0
LayerCount: 2
Fore
SplineSet
-5 183.999023438 m 2,0,-1
 179.006835938 183.999023438 l 6,1,2
 588.966294255 183.99999992 588.966294255 183.99999992 586.27734375 377.305664062 c 2,3,-1
 586.189453125 383.624023438 l 1,4,5
 488 363 488 363 416.141601562 363.318359375 c 0,6,7
 321 363 321 363 248.365234375 392.502929688 c 0,8,9
 120 446 120 446 120.326171875 586.2734375 c 0,10,11
 120 698 120 698 155.200195312 791 c 0,12,13
 243 1022 243 1022 415.864257812 1021.99316406 c 0,14,15
 532 1022 532 1022 601.16015625 935.801757812 c 0,16,17
 731 774 731 774 730.543945312 482.743164062 c 0,18,19
 730 302 730 302 682 209.788085938 c 0,20,21
 573 0 573 0 183.461914062 0 c 2,22,-1
 -5 0 l 2,23,24
 -60.3662109375 0 -60.3662109375 0 -60.3662109375 77 c 2,25,-1
 -60.3662109375 102 l 2,26,27
 -60 184 -60 184 -5 183.999023438 c 2,0,-1
407.944335938 833.416015625 m 0,28,29
 293 833 293 833 258.091796875 694.078125 c 0,30,31
 251 666 251 666 251.24609375 642.353515625 c 0,32,33
 251 571 251 571 325.328125 551.37890625 c 0,34,35
 364 541 364 541 411.077148438 541.155273438 c 0,36,37
 516 541 516 541 585.462890625 567.76953125 c 1,38,39
 575 707 575 707 528.12109375 768.87890625 c 0,40,41
 480 833 480 833 407.944335938 833.416015625 c 0,28,29
EndSplineSet
EndChar

StartChar: uni06A1.medi
Encoding: 65545 -1 268
Width: 907
VWidth: 3740
GlyphClass: 2
Flags: W
AnchorPoint: "Anchor-10" 435.076 1478.72 basechar 0
AnchorPoint: "Anchor-7" 408.729 -209.104 basechar 0
LayerCount: 2
Fore
SplineSet
-5 183.999023438 m 2,0,-1
 27.501953125 183.999023438 l 2,1,2
 217 184 217 184 309.62890625 222.83984375 c 1,3,4
 179 323 179 323 179.399414062 480.524414062 c 0,5,6
 180 588 180 588 248.584960938 691.963867188 c 0,7,8
 346 837 346 837 483.71875 837.45703125 c 0,9,10
 622 837 622 837 719.516601562 694.924804688 c 0,11,12
 786 598 786 598 785.4453125 499.231445312 c 0,13,14
 786 330 786 330 633.403320312 214.955078125 c 1,15,16
 722.015237175 183.994676235 722.015237175 183.994676235 877.966796875 183.999023438 c 6,17,-1
 913 184 l 6,18,19
 937 184 937 184 937 102 c 6,20,-1
 937 77 l 6,21,22
 937 0 937 0 913 0 c 6,23,-1
 883.709960938 0 l 6,24,25
 669 0 669 0 479.779296875 118.205078125 c 1,26,27
 303 0 303 0 27.548828125 0 c 2,28,-1
 -5 0 l 2,29,30
 -60.3662109375 0 -60.3662109375 0 -60.3662109375 77 c 2,31,-1
 -60.3662109375 102 l 2,32,33
 -60 184 -60 184 -5 183.999023438 c 2,0,-1
606.270507812 555.368164062 m 0,34,35
 549 642 549 642 482 641.694335938 c 0,36,37
 401 642 401 642 345.00390625 534 c 0,38,39
 326 497 326 497 326.276367188 462 c 0,40,41
 326 403 326 403 382.946289062 347.408203125 c 0,42,43
 459 273 459 273 493 274.7421875 c 0,44,45
 524 276 524 276 580.590820312 346 c 0,46,47
 637 415 637 415 636.977539062 471.171875 c 0,48,49
 637 510 637 510 606.270507812 555.368164062 c 0,34,35
EndSplineSet
EndChar

StartChar: uni066F.fina
Encoding: 65546 -1 269
Width: 1409
VWidth: 3773
GlyphClass: 2
Flags: W
AnchorPoint: "Anchor-10" 460.114 754.358 basechar 0
AnchorPoint: "Anchor-7" 381.375 -884 basechar 0
LayerCount: 2
Fore
SplineSet
1292.3515625 184.243164062 m 1,0,-1
 1415 184 l 6,1,2
 1439 184 1439 184 1439 102 c 6,3,-1
 1439 77 l 6,4,5
 1439 0 1439 0 1415 0 c 6,6,-1
 1291.35351562 0 l 1,7,8
 1247 -536 1247 -536 660.965820312 -538.86328125 c 24,9,10
 449 -540 449 -540 302 -447.248046875 c 0,11,12
 102 -321 102 -321 101.665039062 -35.0888671875 c 0,13,14
 102 169 102 169 199.79296875 384.94140625 c 1,15,-1
 310.0546875 352.40234375 l 1,16,17
 253 165 253 165 252.880859375 13.18359375 c 0,18,19
 253 -359 253 -359 667.813476562 -359.276367188 c 0,20,21
 995 -359 995 -359 1113.14648438 -160.129882812 c 0,22,23
 1144 -108 1144 -108 1149.04101562 0.642578125 c 1,24,-1
 1021 0.2431640625 l 2,25,26
 825 -0 825 -0 753.319335938 69.849609375 c 0,27,28
 686 137 686 137 693.3671875 261.543945312 c 0,29,30
 702 401 702 401 761.806640625 516.223632812 c 0,31,32
 840 668 840 668 990.338867188 668.03125 c 0,33,34
 1153 668 1153 668 1237.77929688 480.546875 c 0,35,36
 1289 368 1289 368 1292.3515625 184.243164062 c 1,0,-1
1153.62109375 184.798828125 m 1,37,38
 1141 347 1141 347 1085.13964844 428.243164062 c 0,39,40
 1042 491 1042 491 980.872070312 490.985351562 c 0,41,42
 885.801389428 491.000187039 885.801389428 491.000187039 850.75 383.44140625 c 0,43,44
 831 322 831 322 831.118164062 278.440429688 c 0,45,46
 831 216 831 216 895.022460938 193.508789062 c 0,47,48
 927 182 927 182 1051.28417969 182.916015625 c 0,49,50
 1086 183 1086 183 1153.62109375 184.798828125 c 1,37,38
EndSplineSet
EndChar

StartChar: arabic_gaf_bar
Encoding: 65550 -1 270
Width: 788
VWidth: 3131
GlyphClass: 2
Flags: W
LayerCount: 2
Fore
SplineSet
772.499023438 2081 m 2,0,-1
 755.013671875 1989.16601562 l 1,1,-1
 40.84375 1735.89257812 l 1,2,-1
 62 1849 l 5,3,-1
 756 2100.34082031 l 2,4,5
 778 2108 778 2108 772.499023438 2081 c 2,0,-1
EndSplineSet
EndChar

StartChar: guillemotleft
Encoding: 171 171 279
Width: 1236
VWidth: 3378
Flags: W
LayerCount: 2
Fore
SplineSet
408.756835938 2.0810546875 m 5,0,1
 114 408 114 408 114.20703125 475.755859375 c 4,2,3
 114 544 114 544 408.721679688 949.745117188 c 5,4,-1
 596.290039062 949.745117188 l 5,5,-1
 567.606445312 908.389648438 l 6,6,7
 323 556 323 556 323.396484375 475.1171875 c 4,8,9
 322.998046875 394.640625 322.998046875 394.640625 567.548828125 43.4794921875 c 6,10,-1
 596.37890625 2.0810546875 l 5,11,-1
 408.756835938 2.0810546875 l 5,0,1
889.298828125 2.080078125 m 5,12,13
 596 407 596 407 595.784179688 475.505859375 c 4,14,15
 596 543 596 543 889.262695312 949.745117188 c 5,16,-1
 1076.828125 949.745117188 l 5,17,-1
 1048.14160156 908.390625 l 6,18,19
 804 556 804 556 803.872070312 475.326171875 c 4,20,21
 804 394.063476562 804 394.063476562 1047.65136719 44.109375 c 6,22,-1
 1076.91308594 2.0810546875 l 5,23,-1
 889.298828125 2.080078125 l 5,12,13
EndSplineSet
EndChar

StartChar: guillemotright
Encoding: 187 187 280
Width: 1236
VWidth: 3378
Flags: W
LayerCount: 2
Fore
SplineSet
827.36328125 2.0810546875 m 1,0,1
 639.741210938 2.0810546875 l 1,2,-1
 668.571289062 43.4794921875 l 2,3,4
 913.122070312 394.640625 913.122070312 394.640625 912.723632812 475.1171875 c 0,5,6
 913.120117188 556 913.120117188 556 668.513671875 908.389648438 c 2,7,-1
 639.830078125 949.745117188 l 1,8,-1
 827.3984375 949.745117188 l 1,9,10
 1122.12011719 544 1122.12011719 544 1121.91308594 475.755859375 c 0,11,12
 1122.12011719 408 1122.12011719 408 827.36328125 2.0810546875 c 1,0,1
346.821289062 2.080078125 m 1,13,-1
 159.20703125 2.0810546875 l 1,14,-1
 188.46875 44.109375 l 2,15,16
 432.120117188 394.063476562 432.120117188 394.063476562 432.248046875 475.326171875 c 0,17,18
 432.120117188 556 432.120117188 556 187.978515625 908.390625 c 2,19,-1
 159.291992188 949.745117188 l 1,20,-1
 346.857421875 949.745117188 l 1,21,22
 640.120117188 543 640.120117188 543 640.3359375 475.505859375 c 0,23,24
 640.120117188 407 640.120117188 407 346.821289062 2.080078125 c 1,13,-1
EndSplineSet
EndChar

StartChar: exclam
Encoding: 33 33 289
Width: 676
VWidth: -1
Flags: W
LayerCount: 2
Fore
SplineSet
200 158.837890625 m 128,-1,1
 200 215.537109375 200 215.537109375 240.5 256.037109375 c 128,-1,2
 281 296.537109375 281 296.537109375 337.700195312 296.537109375 c 128,-1,3
 394.400390625 296.537109375 394.400390625 296.537109375 435.912109375 257.049804688 c 0,4,5
 475.400390625 215.537109375 475.400390625 215.537109375 475.400390625 158.837890625 c 128,-1,6
 475.400390625 102.137695312 475.400390625 102.137695312 434.900390625 61.6376953125 c 128,-1,7
 394.400390625 21.1376953125 394.400390625 21.1376953125 337.700195312 21.1376953125 c 128,-1,8
 281 21.1376953125 281 21.1376953125 240.5 61.6376953125 c 128,-1,0
 200 102.137695312 200 102.137695312 200 158.837890625 c 128,-1,1
345.767578125 1404.90722656 m 1,9,-1
 363.110351562 1404.54785156 l 2,10,11
 450.35312578 1402.99370942 450.35312578 1402.99370942 439.993164062 1258.71875 c 2,12,-1
 386.88671875 519.147460938 l 2,13,14
 385 496 385 496 341.177734375 495.6640625 c 0,15,16
 289.060143213 495.999612778 289.060143213 495.999612778 287.04296875 520.154296875 c 6,17,-1
 225.389648438 1258.42285156 l 2,18,19
 225 1270 225 1270 224.446289062 1281.57421875 c 0,20,21
 223.001087108 1404.90722657 223.001087108 1404.90722657 312.345703125 1404.90722656 c 2,22,-1
 345.767578125 1404.90722656 l 1,9,-1
EndSplineSet
EndChar

StartChar: period
Encoding: 46 46 290
Width: 676
VWidth: 3384
Flags: W
LayerCount: 2
Fore
SplineSet
200 158.837890625 m 132,-1,1
 200 215.537109375 200 215.537109375 240.5 256.037109375 c 132,-1,2
 281 296.537109375 281 296.537109375 337.700195312 296.537109375 c 132,-1,3
 394.400390625 296.537109375 394.400390625 296.537109375 435.912109375 257.049804688 c 4,4,5
 475.400390625 215.537109375 475.400390625 215.537109375 475.400390625 158.837890625 c 132,-1,6
 475.400390625 102.137695312 475.400390625 102.137695312 434.900390625 61.6376953125 c 132,-1,7
 394.400390625 21.1376953125 394.400390625 21.1376953125 337.700195312 21.1376953125 c 132,-1,8
 281 21.1376953125 281 21.1376953125 240.5 61.6376953125 c 132,-1,0
 200 102.137695312 200 102.137695312 200 158.837890625 c 132,-1,1
EndSplineSet
EndChar

StartChar: colon
Encoding: 58 58 291
Width: 676
VWidth: 3384
Flags: W
LayerCount: 2
Fore
SplineSet
200 818.837890625 m 132,-1,1
 200 875.537109375 200 875.537109375 240.5 916.037109375 c 132,-1,2
 281 956.537109375 281 956.537109375 337.700195312 956.537109375 c 132,-1,3
 394.400390625 956.537109375 394.400390625 956.537109375 435.912109375 917.049804688 c 4,4,5
 475.400390625 875.537109375 475.400390625 875.537109375 475.400390625 818.837890625 c 132,-1,6
 475.400390625 762.137695312 475.400390625 762.137695312 434.900390625 721.637695312 c 132,-1,7
 394.400390625 681.137695312 394.400390625 681.137695312 337.700195312 681.137695312 c 132,-1,8
 281 681.137695312 281 681.137695312 240.5 721.637695312 c 132,-1,0
 200 762.137695312 200 762.137695312 200 818.837890625 c 132,-1,1
200 158.837890625 m 128,-1,10
 200 215.537109375 200 215.537109375 240.5 256.037109375 c 128,-1,11
 281 296.537109375 281 296.537109375 337.700195312 296.537109375 c 128,-1,12
 394.400390625 296.537109375 394.400390625 296.537109375 435.912109375 257.049804688 c 0,13,14
 475.400390625 215.537109375 475.400390625 215.537109375 475.400390625 158.837890625 c 128,-1,15
 475.400390625 102.137695312 475.400390625 102.137695312 434.900390625 61.6376953125 c 128,-1,16
 394.400390625 21.1376953125 394.400390625 21.1376953125 337.700195312 21.1376953125 c 128,-1,17
 281 21.1376953125 281 21.1376953125 240.5 61.6376953125 c 128,-1,9
 200 102.137695312 200 102.137695312 200 158.837890625 c 128,-1,10
EndSplineSet
EndChar

StartChar: uniFDFC
Encoding: 65020 65020 292
Width: 2565
VWidth: 3744
Flags: W
LayerCount: 2
Fore
SplineSet
2210.79589844 -228 m 0,0,1
 2142.79589844 -314 2142.79589844 -314 2071.79589844 -348 c 0,2,3
 2022.79589844 -371 2022.79589844 -371 1959.64160156 -370.8984375 c 0,4,5
 1890.79589844 -371 1890.79589844 -371 1832.79589844 -353 c 0,6,7
 1777.79589844 -336 1777.79589844 -336 1777.28027344 -313.580078125 c 0,8,9
 1776.79589844 -299 1776.79589844 -299 1848.58496094 -262.438476562 c 0,10,11
 2115.79589844 -125 2115.79589844 -125 2233 80 c 0,12,13
 2271.79589844 148 2271.79589844 148 2271.63476562 227.694335938 c 0,14,15
 2271.79589844 273 2271.79589844 273 2257.75 306 c 0,16,17
 2216.79589844 403 2216.79589844 403 2143.79589844 511 c 1,18,-1
 2249.01269531 669 l 2,19,20
 2261.79589844 688 2261.79589844 688 2286.81933594 647 c 0,21,22
 2397.79589844 470 2397.79589844 470 2397.6640625 267.754882812 c 0,23,24
 2397.79589844 10 2397.79589844 10 2210.79589844 -228 c 0,0,1
1514.25390625 195.1171875 m 1,25,-1
 1663.70214844 45.669921875 l 1,26,-1
 1514.25390625 -103.780273438 l 1,27,-1
 1364.80566406 45.669921875 l 1,28,-1
 1514.25390625 195.1171875 l 1,25,-1
1831.78125 195.1171875 m 1,29,-1
 1981.22949219 45.669921875 l 1,30,-1
 1831.78125 -103.78125 l 1,31,-1
 1682.33398438 45.669921875 l 1,32,-1
 1831.78125 195.1171875 l 1,29,-1
997.842773438 -22 m 0,33,34
 891 -216 891 -216 605.8515625 -215.990234375 c 0,35,36
 414 -216 414 -216 291 -123.764648438 c 0,37,38
 144 -15 144 -15 140.649414062 204 c 0,39,40
 138 406 138 406 225.491210938 599.673828125 c 1,41,-1
 325.701171875 566.984375 l 1,42,43
 274 399 274 399 274.059570312 267 c 0,44,45
 274 150 274 150 340.624023438 67.5830078125 c 0,46,47
 429 -41 429 -41 616 -39 c 0,48,49
 936 -36 936 -36 931.3828125 218.577148438 c 0,50,51
 916 952 916 952 863.119140625 1278.56152344 c 1,52,-1
 975 1368 l 2,53,54
 1021.28028824 1405.22544923 1021.28028824 1405.22544923 1024 1333 c 2,55,-1
 1057.91796875 432.264648438 l 2,56,57
 1070 110 1070 110 997.842773438 -22 c 0,33,34
1282.32714844 774.349609375 m 1,58,59
 1297 1141 1297 1141 1265.03417969 1282.28417969 c 1,60,-1
 1387 1375 l 2,61,62
 1416 1397 1416 1397 1420 1341 c 0,63,64
 1425 1255 1425 1255 1418.5 1058 c 128,-1,65
 1412 861 1412 861 1416 737.5 c 128,-1,66
 1420 614 1420 614 1451.390625 567.6640625 c 128,-1,67
 1482.77707267 521.329101562 1482.77707267 521.329101562 1625.62304688 521.329101562 c 2,68,-1
 1675.12402344 521.329101562 l 2,69,70
 1813 521 1813 521 1845.1796875 577.83203125 c 4,71,72
 1860 605 1860 605 1851 653 c 0,73,74
 1836 731 1836 731 1784.22070312 850.741210938 c 1,75,-1
 1885 966 l 2,76,77
 1920 1006 1920 1006 1942.06738281 932.790039062 c 0,78,79
 2014 689 2014 689 1962.99121094 536.72265625 c 0,80,81
 1897.11129143 341.330078125 1897.11129143 341.330078125 1658.01660156 341.330078125 c 2,82,-1
 1575.21191406 341.330078125 l 2,83,84
 1400 341 1400 341 1333.5 463.5 c 0,85,86
 1283 556 1283 556 1282.32714844 774.349609375 c 1,58,59
EndSplineSet
EndChar

StartChar: uniFD3E
Encoding: 64830 64830 294
Width: 1480
VWidth: 3
Flags: W
LayerCount: 2
Fore
SplineSet
579.641601562 651.709960938 m 4,0,1
 577.51171875 726.267578125 577.51171875 726.267578125 632.8984375 781.65234375 c 132,-1,2
 688.283203125 837.0390625 688.283203125 837.0390625 764.971679688 837.0390625 c 132,-1,3
 841.659179688 837.0390625 841.659179688 837.0390625 897.044921875 781.65234375 c 132,-1,4
 952.430664062 726.267578125 952.430664062 726.267578125 950.299804688 651.709960938 c 4,5,6
 952.430664062 577.153320312 952.430664062 577.153320312 897.044921875 521.766601562 c 132,-1,7
 841.659179688 466.380859375 841.659179688 466.380859375 764.971679688 466.380859375 c 132,-1,8
 688.283203125 466.380859375 688.283203125 466.380859375 632.8984375 521.766601562 c 132,-1,9
 577.51171875 577.153320312 577.51171875 577.153320312 579.641601562 651.709960938 c 4,0,1
688.919921875 651.66015625 m 4,10,11
 688 619 688 619 712.459960938 594.223632812 c 4,12,13
 737 570 737 570 770.837890625 569.7421875 c 4,14,15
 805 570 805 570 829.216796875 594.223632812 c 4,16,17
 851.759765625 616.760742188 851.759765625 616.760742188 852.756835938 651.66015625 c 4,18,19
 854 685 854 685 829.216796875 709.096679688 c 4,20,21
 805 734 805 734 770.837890625 733.578125 c 4,22,23
 737 734 737 734 712.459960938 709.096679688 c 4,24,25
 690 687 690 687 688.919921875 651.66015625 c 4,10,11
1245.04882812 239.635742188 m 6,26,27
 1244.11520941 182.643554687 1244.11520941 182.643554687 1188.04882812 182.643554688 c 6,28,-1
 964.252929688 182.643554688 l 5,29,-1
 960.485351562 178.874023438 l 5,30,31
 1040.96972656 -253.350585938 1040.96972656 -253.350585938 1252.41796875 -422.350585938 c 4,32,33
 1307.24622779 -466.021419627 1307.24622779 -466.021419627 1200.98632812 -521.557617188 c 5,34,35
 728.480414222 -381.350497722 728.480414222 -381.350497722 604.09375 145.0234375 c 5,36,-1
 567.142578125 182.643554688 l 5,37,-1
 343.361328125 182.643554688 l 6,38,39
 309.65982652 182.007825384 309.65982652 182.007825384 292.188476562 215.84765625 c 4,40,41
 286.352539062 227.155030117 286.352539062 227.155030117 286.352539062 239.643554688 c 6,42,-1
 286.352539062 463.44140625 l 5,43,-1
 128.112304688 621.678710938 l 6,44,45
 117.499023438 631.805664062 117.499023438 631.805664062 111.51171875 655.760742188 c 132,-1,46
 105.524414062 679.715820312 105.524414062 679.715820312 128.104492188 702.297851562 c 6,47,-1
 286.352539062 860.544921875 l 5,48,-1
 286.352539062 1084.33105469 l 6,49,50
 285.754882812 1111.88867188 285.754882812 1111.88867188 300.592285156 1122.35644531 c 4,51,52
 327.502812161 1141.34179688 327.502812161 1141.34179688 343.3515625 1141.34179688 c 6,53,-1
 567.1484375 1141.34179688 l 5,54,-1
 592.115234375 1166.31054688 l 5,55,56
 709.580015042 1753.43908259 709.580015042 1753.43908259 1200.59960938 1898.3125 c 4,57,58
 1237.89355469 1909.26367188 1237.89355469 1909.26367188 1254.78710938 1870.16894531 c 4,59,60
 1263.80012728 1848.8227361 1263.80012728 1848.8227361 1255.1796875 1801.59570312 c 5,61,62
 1035.1999438 1600.59460398 1035.1999438 1600.59460398 957.138671875 1148.45703125 c 5,63,-1
 964.25390625 1141.34179688 l 5,64,-1
 1188.22070312 1141.34179688 l 5,65,66
 1245.04882812 1134.79543428 1245.04882812 1134.79543428 1245.04882812 1084.34179688 c 6,67,-1
 1245.04882812 239.635742188 l 6,26,27
711.333984375 187.225585938 m 4,68,69
 779.079101562 -116.46484375 779.079101562 -116.46484375 1009.91894531 -301.510742188 c 5,70,71
 883.00390625 -64.1083984375 883.00390625 -64.1083984375 842.994140625 188.545898438 c 4,72,73
 838.358398438 217.970703125 838.358398438 217.970703125 858.870117188 238.48046875 c 6,74,-1
 900.34375 279.954101562 l 6,75,76
 917.301363854 296.642578125 917.301363854 296.642578125 940.643554688 296.642578125 c 6,77,-1
 1131.04882812 296.642578125 l 5,78,-1
 1131.04882812 1027.34277344 l 5,79,-1
 940.649414062 1027.34277344 l 6,80,81
 917.31640625 1027.05957031 917.31640625 1027.05957031 900.337890625 1044.03710938 c 6,82,-1
 855.83203125 1088.54492188 l 6,83,84
 835.192382812 1108.7734375 835.192382812 1108.7734375 839.84765625 1137.84960938 c 4,85,86
 888.05929509 1439.19289852 888.05929509 1439.19289852 1022.93554688 1687.14257812 c 5,87,88
 771.803710938 1491.68847656 771.803710938 1491.68847656 700.795898438 1127.83691406 c 4,89,90
 697.365906605 1110.33953942 697.365906605 1110.33953942 685.081054688 1098.0546875 c 6,91,-1
 631.0703125 1044.04492188 l 6,92,93
 615.091950052 1027.34277344 615.091950052 1027.34277344 590.7578125 1027.34277344 c 6,94,-1
 400.3515625 1027.34277344 l 5,95,-1
 400.3515625 836.926757812 l 6,96,97
 399.91960523 812.889317479 399.91960523 812.889317479 383.65625 796.630859375 c 6,98,-1
 249.018554688 661.993164062 l 5,99,-1
 383.655273438 527.356445312 l 6,100,101
 400.3515625 510.727539062 400.3515625 510.727539062 400.3515625 487.05078125 c 6,102,-1
 400.3515625 296.642578125 l 5,103,-1
 590.765625 296.642578125 l 6,104,105
 614.750751746 296.258031308 614.750751746 296.258031308 631.0625 279.948242188 c 6,106,-1
 696.038085938 214.974609375 l 6,107,108
 708.114257812 202.9609375 708.114257812 202.9609375 711.333984375 187.225585938 c 4,68,69
EndSplineSet
EndChar

StartChar: uniFD3F
Encoding: 64831 64831 295
Width: 1480
VWidth: 3
Flags: W
LayerCount: 2
Fore
SplineSet
523.641601562 651.709960938 m 4,0,1
 521.51171875 726.267578125 521.51171875 726.267578125 576.8984375 781.65234375 c 132,-1,2
 632.283203125 837.0390625 632.283203125 837.0390625 708.971679688 837.0390625 c 132,-1,3
 785.659179688 837.0390625 785.659179688 837.0390625 841.044921875 781.65234375 c 132,-1,4
 896.430664062 726.267578125 896.430664062 726.267578125 894.299804688 651.709960938 c 4,5,6
 896.430664062 577.153320312 896.430664062 577.153320312 841.044921875 521.766601562 c 132,-1,7
 785.659179688 466.380859375 785.659179688 466.380859375 708.971679688 466.380859375 c 132,-1,8
 632.283203125 466.380859375 632.283203125 466.380859375 576.8984375 521.766601562 c 132,-1,9
 521.51171875 577.153320312 521.51171875 577.153320312 523.641601562 651.709960938 c 4,0,1
632.919921875 651.66015625 m 4,10,11
 632 619 632 619 656.459960938 594.223632812 c 4,12,13
 681 570 681 570 714.837890625 569.7421875 c 4,14,15
 749 570 749 570 773.216796875 594.223632812 c 4,16,17
 795.759765625 616.760742188 795.759765625 616.760742188 796.756835938 651.66015625 c 4,18,19
 798 685 798 685 773.216796875 709.096679688 c 4,20,21
 749 734 749 734 714.837890625 733.578125 c 4,22,23
 681 734 681 734 656.459960938 709.096679688 c 4,24,25
 634 687 634 687 632.919921875 651.66015625 c 4,10,11
278.209960938 -521.559570312 m 5,26,27
 173.243164062 -465.91015625 173.243164062 -465.91015625 226.77734375 -422.35546875 c 4,28,29
 438.63671875 -251.1640625 438.63671875 -251.1640625 518.715820312 178.875 c 5,30,-1
 514.947265625 182.643554688 l 5,31,-1
 291.16015625 182.643554688 l 6,32,33
 254.146484375 182.048828125 254.146484375 182.048828125 238.247070312 219.541015625 c 4,34,35
 234.15234375 229.198242188 234.15234375 229.198242188 234.15234375 239.643554688 c 6,36,-1
 234.15234375 1084.33300781 l 6,37,38
 233.723632812 1108.50390625 233.723632812 1108.50390625 252.361328125 1124.95117188 c 132,-1,39
 270.9375 1141.34179688 270.9375 1141.34179688 291.15234375 1141.34179688 c 6,40,-1
 514.948242188 1141.34179688 l 5,41,-1
 522.0625 1148.45507812 l 5,42,43
 444.10546875 1601.38867188 444.10546875 1601.38867188 224.020507812 1801.59472656 c 5,44,45
 215.668945312 1848.69238281 215.668945312 1848.69238281 228.649414062 1878.97949219 c 132,-1,46
 241.629882812 1909.26660156 241.629882812 1909.26660156 278.610351562 1898.30957031 c 4,47,48
 770.368164062 1749.04882812 770.368164062 1749.04882812 886.970703125 1166.890625 c 5,49,-1
 912.068359375 1141.34179688 l 5,50,-1
 1135.85546875 1141.34179688 l 6,51,52
 1159.97265625 1141.05566406 1159.97265625 1141.05566406 1176.52539062 1122.90234375 c 4,53,54
 1192.84863281 1103.78417969 1192.84863281 1103.78417969 1192.84863281 1084.34179688 c 6,55,-1
 1192.84863281 860.544921875 l 5,56,-1
 1351.09570312 702.299804688 l 6,57,58
 1373.90820312 679.625976562 1373.90820312 679.625976562 1369.45703125 661.9453125 c 4,59,60
 1362.08691406 632.676757812 1362.08691406 632.676757812 1351.09765625 621.6875 c 6,61,-1
 1192.84863281 463.44140625 l 5,62,-1
 1192.84863281 239.63671875 l 6,63,64
 1192.35449219 202.328125 1192.35449219 202.328125 1155.57324219 186.725585938 c 4,65,66
 1145.9453125 182.643554688 1145.9453125 182.643554688 1135.84960938 182.643554688 c 6,67,-1
 912.059570312 182.643554688 l 5,68,-1
 875.106445312 145.0234375 l 5,69,70
 751.1796875 -380.764648438 751.1796875 -380.764648438 278.209960938 -521.559570312 c 5,26,27
469.313476562 -301.490234375 m 5,71,72
 700.428710938 -116.459960938 700.428710938 -116.459960938 767.87109375 187.236328125 c 4,73,74
 771.493164062 203.3046875 771.493164062 203.3046875 783.161132812 214.97265625 c 6,75,-1
 848.14453125 279.954101562 l 6,76,77
 865.102539062 296.642578125 865.102539062 296.642578125 888.443359375 296.642578125 c 6,78,-1
 1078.84960938 296.642578125 l 5,79,-1
 1078.84960938 487.043945312 l 6,80,81
 1078.53125 510.344726562 1078.53125 510.344726562 1095.54492188 527.35546875 c 6,82,-1
 1230.18261719 661.993164062 l 5,83,-1
 1095.54882812 796.626953125 l 6,84,85
 1078.84960938 812.924804688 1078.84960938 812.924804688 1078.84960938 836.935546875 c 6,86,-1
 1078.84960938 1027.34277344 l 5,87,-1
 888.44921875 1027.34277344 l 6,88,89
 865.116210938 1027.05957031 865.116210938 1027.05957031 848.138671875 1044.03710938 c 6,90,-1
 794.026367188 1098.14941406 l 5,91,92
 782.130859375 1112.37304688 782.130859375 1112.37304688 778.385742188 1127.94238281 c 4,93,94
 708.102539062 1497.07128906 708.102539062 1497.07128906 456.138671875 1687.37109375 c 5,95,96
 583.533203125 1451.25878906 583.533203125 1451.25878906 639.350585938 1137.86621094 c 4,97,98
 644.388671875 1109.56640625 644.388671875 1109.56640625 623.373046875 1088.54882812 c 6,99,-1
 578.870117188 1044.04492188 l 6,100,101
 562.895507812 1027.34277344 562.895507812 1027.34277344 538.557617188 1027.34277344 c 6,102,-1
 348.15234375 1027.34277344 l 5,103,-1
 348.15234375 296.642578125 l 5,104,-1
 538.565429688 296.642578125 l 6,105,106
 562.548828125 296.26171875 562.548828125 296.26171875 578.862304688 279.948242188 c 6,107,-1
 620.330078125 238.481445312 l 6,108,109
 641.134765625 217.743164062 641.134765625 217.743164062 636.204101562 188.53125 c 4,110,111
 590.569335938 -75.58203125 590.569335938 -75.58203125 469.313476562 -301.490234375 c 5,71,72
EndSplineSet
EndChar

StartChar: NameMe.303
Encoding: 65562 -1 296
Width: 556
VWidth: 3705
Flags: W
AnchorPoint: "Anchor-10" 254.76 1405.69 basechar 0
AnchorPoint: "Anchor-7" 210.877 -259.762 basechar 0
LayerCount: 2
Fore
SplineSet
-5 183.999023438 m 2,0,-1
 16.552734375 183.999023438 l 2,1,2
 118 184 118 184 178 211.721679688 c 0,3,4
 267 253 267 253 273.282226562 367 c 0,5,6
 280.554298945 495.435825258 280.554298945 495.435825258 268.478515625 672.23046875 c 4,7,8
 258 815 258 815 218 1226 c 1,9,-1
 344 1306 l 2,10,11
 384.514685065 1331.69223931 384.514685065 1331.69223931 386 1286 c 2,12,-1
 410.239257812 540.3359375 l 2,13,14
 419 270 419 270 365.708007812 163.354492188 c 0,15,16
 285 0 285 0 10.892578125 0 c 2,17,-1
 -5 0 l 2,18,19
 -60.3662109375 0 -60.3662109375 0 -60.3662109375 77 c 2,20,-1
 -60.3662109375 102 l 2,21,22
 -60 184 -60 184 -5 183.999023438 c 2,0,-1
EndSplineSet
EndChar

StartChar: NameMe.304
Encoding: 65563 -1 297
Width: 621
VWidth: 3705
Flags: W
LayerCount: 2
Fore
SplineSet
-5 183.999023438 m 2,0,-1
 29.7001953125 183.999023438 l 2,1,2
 241 184 241 184 268.875976562 386 c 4,3,4
 276 437 276 437 273.025390625 517.5234375 c 4,5,6
 266.863511151 700.042901452 266.863511151 700.042901452 239.874023438 1080.28417969 c 6,7,-1
 239.763671875 1081.83886719 l 5,8,-1
 371 1166.421875 l 6,9,10
 407.9765625 1189.98506453 407.9765625 1189.98506453 407.9765625 1143 c 6,11,-1
 407.9765625 433.450195312 l 6,12,13
 408.000000582 183.993800776 408.000000582 183.993800776 592.500976562 183.999023438 c 6,14,-1
 627 184 l 6,15,16
 651 184 651 184 651 102 c 6,17,-1
 651 77 l 6,18,19
 651 0 651 0 627 0 c 6,20,-1
 596.202148438 0 l 6,21,22
 428 0 428 0 324.796875 148.439453125 c 5,23,24
 222 0 222 0 26.501953125 0 c 2,25,-1
 -5 0 l 2,26,27
 -60.3662109375 0 -60.3662109375 0 -60.3662109375 77 c 2,28,-1
 -60.3662109375 102 l 2,29,30
 -60 184 -60 184 -5 183.999023438 c 2,0,-1
EndSplineSet
EndChar

StartChar: NameMe.306
Encoding: 65566 -1 299
Width: 511
VWidth: 3705
Flags: W
LayerCount: 2
Fore
SplineSet
517 0 m 2,0,-1
 482.934570312 0 l 2,1,2
 162 0 162 0 150 347 c 24,3,4
 141.663085938 763.90625 141.663085938 763.90625 141 783 c 24,5,6
 136 927 136 927 109.987304688 1191.0390625 c 1,7,-1
 221 1296 l 2,8,9
 262 1335 262 1335 266 1262 c 1,10,11
 280 1149 280 1149 284.779296875 472.400390625 c 0,12,13
 286 297 286 297 327.942382812 240.354492188 c 0,14,15
 369.00390625 183.995117188 369.00390625 183.995117188 487.885742188 183.999023438 c 2,16,-1
 517 184 l 2,17,18
 541 184 541 184 541 102 c 2,19,-1
 541 77 l 2,20,21
 541 0 541 0 517 0 c 2,0,-1
EndSplineSet
EndChar

StartChar: uni06C1
Encoding: 1729 1729 300
Width: 972
VWidth: 2424
Flags: W
AnchorPoint: "Anchor-7" 420.886 -224.499 basechar 0
AnchorPoint: "Anchor-10" 539.369 1109.95 basechar 0
LayerCount: 2
Fore
SplineSet
978.643554688 184 m 2,0,1
 1002.64355469 183.991794872 1002.64355469 183.991794872 1002.64355469 102 c 2,2,-1
 1002.64355469 77 l 2,3,4
 1003 0 1003 0 978.643554688 0 c 2,5,-1
 902.953125 0 l 2,6,7
 630 0 630 0 621.489257812 303.450195312 c 0,8,9
 619 401 619 401 610.649414062 415 c 0,10,11
 597 439 597 439 560.749865157 422 c 0,12,13
 469 380 469 380 355.046875 153.712890625 c 0,14,15
 263 -30 263 -30 233.357421875 -110.423828125 c 1,16,-1
 93.4287109375 -37.748046875 l 1,17,18
 183 208 183 208 297 376 c 0,19,20
 369 482 369 482 448.846191406 539.831054688 c 0,21,22
 531 599 531 599 612.810546875 597.865234375 c 0,23,24
 731.830499333 595.954560896 731.830499333 595.954560896 763.122070312 475.3828125 c 0,25,26
 764 472 764 472 784.286132812 278.19921875 c 0,27,28
 793.993490188 184.063128227 793.993490188 184.063128227 924.37109375 184.018554688 c 2,29,-1
 978.643554688 184 l 2,0,1
EndSplineSet
EndChar

StartChar: NameMe.65567
Encoding: 65567 -1 304
Width: 678
VWidth: 3745
Flags: W
LayerCount: 2
Fore
SplineSet
107.376953125 -35.0341796875 m 5,0,1
 169.2578125 -64.982421875 169.2578125 -64.982421875 251.616210938 -64.3681640625 c 4,2,3
 406.380859375 -63.0390625 406.380859375 -63.0390625 472.666015625 13.93359375 c 4,4,5
 497.170898438 42.70703125 497.170898438 42.70703125 467.2109375 59.427734375 c 4,6,7
 435.793945312 76.9619140625 435.793945312 76.9619140625 351.474609375 100.6015625 c 4,8,9
 265.4921875 124.239257812 265.4921875 124.239257812 297.475585938 232.400390625 c 4,10,11
 340.796875 376.446289062 340.796875 376.446289062 470.557617188 429.600585938 c 4,12,13
 541.537109375 458.614257812 541.537109375 458.614257812 625.641601562 432.522460938 c 5,14,15
 621.888671875 393.357421875 621.888671875 393.357421875 603.754882812 317.1484375 c 5,16,-1
 572.502929688 318.665039062 l 6,17,18
 481.236328125 323.09375 481.236328125 323.09375 425.071289062 266.928710938 c 4,19,20
 395.37109375 237.228515625 395.37109375 237.228515625 384.728515625 212.9375 c 5,21,-1
 514.37890625 169.752929688 l 6,22,23
 574.083007812 149.8671875 574.083007812 149.8671875 573.537109375 75.2333984375 c 132,-1,24
 572.991210938 0.6005859375 572.991210938 0.6005859375 527.80078125 -58.435546875 c 4,25,26
 438.94921875 -175.002929688 438.94921875 -175.002929688 248.9921875 -174.874023438 c 4,27,28
 147.037109375 -175.002929688 147.037109375 -175.002929688 68.328125 -142.765625 c 5,29,-1
 107.376953125 -35.0341796875 l 5,0,1
EndSplineSet
EndChar

StartChar: NameMe.65541
Encoding: 65541 -1 305
Width: 576
VWidth: 3744
Flags: W
AnchorPoint: "Anchor-10" 323.261 1301.53 basechar 0
AnchorPoint: "Anchor-7" 350.876 -259.541 basechar 0
LayerCount: 2
Fore
SplineSet
475.098632812 393.55859375 m 4,0,1
 475 237 475 237 393.703125 137.951171875 c 4,2,3
 280 0 280 0 80.7080078125 0 c 6,4,-1
 -5 0 l 6,5,6
 -60.3662109375 0 -60.3662109375 0 -60.3662109375 77 c 6,7,-1
 -60.3662109375 102 l 6,8,9
 -60.0000043613 183.999023438 -60.0000043613 183.999023438 -5 183.999023438 c 6,10,-1
 77.8056640625 183.999023438 l 6,11,12
 324 184 324 184 323.4140625 346.751953125 c 4,13,14
 323 435 323 435 251 636 c 5,15,-1
 362.000976562 763.575195312 l 6,16,17
 377 781 377 781 397.000976562 738.575195312 c 4,18,19
 475 578 475 578 475.098632812 393.55859375 c 4,0,1
EndSplineSet
EndChar

StartChar: NameMe.65542
Encoding: 65542 -1 306
Width: 678
VWidth: 3744
Flags: W
AnchorPoint: "Anchor-10" 391.618 1159.37 basechar 0
AnchorPoint: "Anchor-7" 371.317 -218.507 basechar 0
LayerCount: 2
Fore
SplineSet
294.15625 334.38671875 m 2,0,1
 317.440429688 530.31640625 l 1,2,-1
 431.720703125 530.369140625 l 1,3,-1
 455.733398438 333.099609375 l 2,4,5
 473.882594889 184.000000604 473.882594889 184.000000604 663.682617188 183.999023438 c 6,6,-1
 684 184 l 6,7,8
 708 184.001153568 708 184.001153568 708 102 c 6,9,-1
 708 77 l 6,10,11
 708 0 708 0 684 0 c 6,12,-1
 665.583007812 0 l 6,13,14
 456 0 456 0 374.059570312 130.338867188 c 1,15,16
 280 0 280 0 99.8349609375 0 c 2,17,-1
 -5 0 l 2,18,19
 -60 0 -60 0 -60.3662109375 77 c 2,20,-1
 -60.3662109375 102 l 2,21,22
 -60.3662109375 183.999023438 -60.3662109375 183.999023438 -5 183.999023438 c 2,23,-1
 95.18359375 183.999023438 l 2,24,25
 275.999882099 183.999023438 275.999882099 183.999023438 294.15625 334.38671875 c 2,0,1
EndSplineSet
EndChar
